{"glyphs":{"0":{"ha":779,"x_min":-92,"x_max":764,"o":"m 548 213 q 501 160 548 213 q 337 38 454 107 q 112 -32 219 -32 q -44 28 4 -32 q -92 172 -92 89 q -63 351 -92 256 q 22 550 -35 447 q 156 740 79 653 q 340 883 232 826 q 564 939 447 939 q 764 711 764 939 q 703 454 764 589 q 548 213 642 319 m 714 746 q 693 838 714 800 q 642 889 672 875 q 557 911 590 911 q 400 872 478 911 q 259 769 322 833 q 141 625 196 706 q 49 461 86 544 q -31 161 -31 283 q 39 8 -31 38 q 122 -4 72 -4 q 385 123 243 -4 q 620 428 526 250 q 714 746 714 606 z "},"1":{"ha":454,"x_min":-54,"x_max":611,"o":"m 603 921 q 323 528 469 757 q 97 154 176 300 l 17 8 q -26 -18 1 -18 q -54 -3 -54 -18 l -50 11 q 138 339 8 133 q 369 692 268 544 l 471 840 q 464 844 471 844 l 456 843 q 292 735 389 792 q 131 647 194 679 l 67 617 q 42 611 51 611 q 32 619 32 611 q 49 651 36 638 q 85 673 61 664 q 158 703 110 682 q 333 793 207 724 q 556 938 460 863 q 588 950 565 950 q 611 940 611 950 q 603 921 611 931 z "},"2":{"ha":728,"x_min":-187,"x_max":744,"o":"m 517 728 q 413 636 517 686 q 215 586 310 586 q 121 651 121 586 q 192 773 121 708 q 376 882 263 838 q 599 926 489 926 q 703 900 663 926 q 744 824 744 874 q 721 728 744 774 q 665 648 697 683 q 574 565 633 613 q 472 490 514 518 q 351 410 429 461 q 249 342 274 360 q 204 310 224 325 q 131 255 185 296 q 36 178 78 214 q -100 29 -76 83 q -103 17 -103 22 q -93 7 -103 7 q -63 13 -92 7 q 10 28 -35 19 q 108 44 56 36 q 314 65 238 65 q 438 49 390 65 q 486 8 486 33 q 471 -17 486 -17 l 446 -10 q 256 15 371 15 q -94 -19 50 15 l -144 -31 q -165 -35 -157 -35 q -187 -12 -187 -35 q -78 125 -187 28 q 82 256 7 201 q 221 354 199 339 l 235 364 q 447 515 357 443 q 564 617 536 586 l 592 649 q 678 808 678 740 q 558 897 678 897 q 310 816 438 897 q 183 664 183 735 q 245 618 183 618 q 375 647 307 618 q 493 731 443 676 q 510 739 503 739 q 517 728 517 739 z "},"3":{"ha":694,"x_min":-151,"x_max":707,"o":"m 233 497 l 208 496 q 199 503 199 496 q 214 532 199 514 l 228 539 q 561 683 438 585 q 600 721 590 707 l 611 735 q 644 813 644 779 q 482 900 644 900 q 265 842 367 900 q 163 724 163 783 q 225 685 163 685 q 397 740 325 685 q 408 744 401 744 q 414 738 414 744 q 338 675 414 704 q 212 646 261 646 q 140 659 163 646 q 113 683 117 672 q 110 704 110 694 q 237 854 110 781 q 515 928 364 928 q 621 914 576 928 q 707 821 707 885 q 694 769 707 790 q 656 719 681 747 q 596 664 631 690 q 494 603 561 638 q 343 543 426 569 q 328 533 328 538 q 340 528 328 529 q 367 526 351 528 q 421 513 382 524 q 490 483 460 501 q 545 428 521 465 q 569 344 569 392 q 483 135 569 231 q 281 -8 397 40 q 76 -56 164 -56 q -58 -37 -12 -56 q -122 8 -104 -19 q -151 90 -151 53 q -121 182 -147 142 q -62 243 -94 222 q 6 278 -31 264 q 85 299 60 299 q 111 288 111 299 q 94 276 111 282 q 0 243 40 265 q -58 196 -40 221 q -97 108 -96 143 l -99 93 q -79 26 -99 53 q -28 -12 -60 -1 q 86 -31 22 -31 q 220 -3 150 -31 q 340 67 290 24 q 428 161 390 110 q 503 346 503 261 q 476 426 503 393 q 407 474 450 460 q 254 497 333 497 l 233 497 z "},"4":{"ha":782,"x_min":-137,"x_max":853,"o":"m 221 -67 q 176 -90 208 -90 q 144 -71 144 -90 l 153 -44 q 318 219 182 15 l 300 219 l -97 206 q -137 231 -137 206 l -129 258 q 382 686 75 478 q 825 928 743 928 q 853 910 847 928 l 853 908 q 801 817 853 882 q 410 257 592 540 q 674 278 550 264 l 681 278 q 703 268 703 278 q 696 258 703 263 q 386 219 653 226 q 221 -67 283 60 m 28 249 q 343 254 208 249 q 692 763 544 554 l 756 853 q 763 867 763 864 q 756 869 763 869 l 738 865 q 580 776 693 844 q 378 646 467 708 q 178 485 290 583 q -22 283 65 386 q -32 259 -32 269 q -15 249 -32 249 l 28 249 z "},"5":{"ha":656,"x_min":-194,"x_max":753,"o":"m -161 -39 q -171 -26 -161 -39 q -187 8 -181 -12 q -194 49 -194 28 q -183 86 -194 69 q -147 115 -164 115 q -129 101 -129 115 q -137 83 -129 96 q -146 54 -146 71 q 10 -69 -146 -69 q 206 -6 115 -69 q 314 92 283 50 l 328 111 q 431 367 431 246 q 419 440 431 406 q 397 489 408 475 l 386 504 q 275 550 342 550 q 169 528 218 550 l 154 519 q 92 494 121 497 q 76 508 76 499 l 82 524 q 276 814 149 601 l 318 883 q 347 894 328 894 q 573 889 471 889 q 726 894 675 889 q 753 888 753 894 q 736 864 753 872 q 372 835 690 843 q 326 825 338 835 q 164 582 229 672 q 161 569 161 575 q 169 560 161 560 q 199 569 172 560 q 283 578 226 578 q 475 443 436 578 q 488 356 488 410 q 325 29 488 181 q 281 -6 315 19 q 212 -49 247 -31 q 122 -83 176 -68 q 9 -99 68 -99 q -96 -82 -50 -99 q -161 -39 -142 -65 z "},"6":{"ha":749,"x_min":-69,"x_max":785,"o":"m 471 521 q 600 403 600 521 q 532 206 600 311 q 349 24 464 100 q 114 -53 233 -53 q 14 -8 42 -53 q -6 60 -6 25 q 8 128 -6 94 q 42 185 22 161 q 113 253 78 231 l 126 263 q 153 271 140 271 q 165 263 165 271 q 156 249 165 256 q 32 61 32 169 q 60 -6 32 15 q 122 -26 88 -26 q 273 25 193 -26 q 412 147 353 76 q 510 292 471 218 q 550 411 550 367 q 458 493 550 493 q 305 453 388 493 q 159 358 222 413 q 53 260 96 304 q 0 199 10 215 q -26 163 -18 167 q -39 160 -33 160 q -69 201 -62 160 q -36 304 -69 235 q 31 428 -3 374 l 64 481 q 349 789 158 635 q 542 909 439 861 q 733 957 646 957 l 751 956 q 785 940 785 953 q 761 926 785 926 l 728 928 q 401 774 592 926 q 96 431 211 621 q 25 299 51 358 q 28 285 25 285 q 38 292 31 285 q 63 315 46 300 q 130 370 79 331 q 230 440 181 410 q 347 496 279 471 q 471 521 414 521 z "},"7":{"ha":601,"x_min":-153,"x_max":729,"o":"m -139 -40 q -153 -24 -153 -40 q 103 339 -136 90 q 264 500 199 440 l 328 560 q 617 842 617 826 q 518 858 617 858 q 169 815 219 858 l 136 796 q 122 806 122 796 l 128 822 q 176 881 146 854 q 225 908 207 908 q 503 919 383 919 q 676 917 622 919 q 729 903 729 915 q 679 838 729 883 q 307 503 414 597 q 60 231 169 372 q -79 -12 -50 89 q -96 -35 -86 -29 q -139 -40 -106 -40 z "},"8":{"ha":736,"x_min":-135,"x_max":757,"o":"m 525 397 q 565 264 565 349 q 494 102 565 179 q 321 -15 424 25 q 101 -56 218 -56 q -76 3 -17 -56 q -135 126 -135 63 q -101 244 -135 189 q -35 332 -68 299 q 76 411 -3 365 q 181 469 156 457 q 304 526 275 517 l 321 533 l 296 557 q 196 710 196 638 q 305 870 196 797 q 572 943 414 943 q 674 928 631 943 q 757 825 757 899 q 733 760 757 793 q 682 703 710 726 q 601 647 654 679 q 439 561 529 604 l 394 540 q 525 397 507 424 m 251 -12 q 288 -2 251 -12 q 378 47 324 7 q 468 145 433 88 q 503 249 503 203 q 486 335 503 296 q 446 406 469 375 q 357 501 399 467 l 340 515 q -69 128 -69 321 q -39 31 -69 79 q 133 -31 3 -31 q 251 -12 179 -31 m 331 603 l 375 558 q 628 706 561 646 q 696 831 696 767 q 563 914 696 914 q 435 895 503 914 q 313 832 368 876 q 258 728 258 788 q 331 603 258 668 z "},"9":{"ha":694,"x_min":-128,"x_max":660,"o":"m 617 574 q 494 340 574 461 q 357 153 415 218 l 299 88 q -11 -114 136 -82 q -64 -121 -40 -121 l -81 -119 q -128 -89 -128 -114 l -124 -72 q -117 -69 -121 -69 l -97 -76 q -35 -86 -74 -86 q 62 -58 4 -86 q 153 0 119 -29 l 185 28 q 360 240 269 108 q 497 464 450 372 l 544 557 q 549 569 549 565 q 544 574 549 574 l 531 567 q 282 383 386 433 q 132 333 178 333 q 63 347 86 333 q 31 383 40 361 q 13 458 13 425 q 94 669 13 554 q 302 865 175 783 q 544 946 429 946 q 660 860 660 946 q 572 692 660 781 q 394 571 483 603 q 373 565 382 565 q 364 574 364 565 q 382 593 364 583 q 543 715 478 629 q 608 856 608 800 q 538 921 608 921 q 335 835 449 921 q 144 633 222 749 q 65 435 65 517 q 132 367 65 367 q 302 427 190 367 q 549 618 414 488 q 593 649 572 649 q 600 647 597 649 q 624 616 624 640 q 617 574 624 592 z "}," ":{"ha":243,"x_min":0,"x_max":0,"o":""},"!":{"ha":454,"x_min":85,"x_max":603,"o":"m 603 888 q 522 739 603 883 q 208 167 274 293 q 158 121 172 121 q 150 130 150 121 q 244 319 150 139 q 433 677 339 499 q 524 857 526 856 q 551 878 532 871 l 596 893 l 603 888 m 160 36 q 147 7 160 21 q 117 -7 133 -7 q 94 0 101 -7 q 85 24 86 7 q 100 51 85 40 q 129 63 115 63 q 160 36 160 63 z "},"\"":{"ha":379,"x_min":176,"x_max":403,"o":"m 288 701 l 203 592 q 183 578 193 578 q 176 585 176 578 q 181 601 176 593 l 254 724 q 275 738 263 738 q 292 715 292 738 q 288 701 292 710 m 399 701 l 314 592 q 294 578 304 578 q 288 585 288 578 q 292 601 288 593 l 365 724 q 386 738 374 738 q 403 715 403 738 q 399 701 403 710 z "},"#":{"ha":617,"x_min":-32,"x_max":619,"o":"m 353 400 l 292 226 q 281 217 289 217 q 265 224 272 217 q 257 242 257 232 q 308 400 293 354 q 194 399 269 399 l 133 226 q 122 217 131 217 q 106 224 114 217 q 99 242 99 232 q 149 399 136 363 l 17 399 q -24 401 -15 399 q -32 413 -32 404 q -11 442 -32 440 l 164 442 l 197 540 l 74 540 q 33 543 42 540 q 25 554 25 546 q 46 583 25 582 l 213 583 l 267 733 q 292 776 282 776 q 310 768 303 776 q 318 750 318 760 l 260 583 l 372 583 q 425 733 381 608 q 451 776 440 776 q 469 768 461 776 q 476 750 476 760 l 418 585 l 611 585 q 619 579 619 585 q 599 549 619 550 q 403 542 486 543 l 368 443 l 554 443 q 563 438 563 443 q 542 407 563 408 q 353 400 433 401 m 322 443 l 357 542 q 244 540 318 540 l 210 443 l 322 443 z "},"$":{"ha":736,"x_min":-181,"x_max":876,"o":"m 496 942 l 582 1101 q 612 1129 597 1129 q 626 1122 626 1129 q 540 943 626 1111 q 672 906 628 940 q 861 954 789 954 q 874 952 872 954 q 876 936 876 950 q 864 918 876 922 q 693 885 781 915 q 711 825 711 860 q 654 670 711 725 q 529 615 597 615 q 469 633 493 615 q 444 682 444 650 q 494 790 444 739 q 624 882 544 842 q 525 914 589 913 q 335 554 463 790 q 479 397 450 439 q 519 264 519 349 q 449 102 519 179 q 275 -15 378 25 q 69 -56 172 -56 q 0 -50 42 -56 l -53 -144 q -70 -167 -58 -156 q -89 -179 -82 -179 q -101 -165 -101 -179 q -96 -146 -101 -157 l -37 -42 q -147 31 -112 -19 q -181 129 -181 81 q -154 178 -181 178 q -128 163 -140 178 q -115 128 -115 147 q -22 -12 -115 25 q 275 535 21 67 l 250 557 q 150 710 150 646 q 249 863 150 792 q 496 942 349 935 m 15 -24 q 78 -31 50 -31 q 136 -26 107 -31 q 222 -8 165 -22 q 333 47 278 7 q 422 145 388 88 q 457 251 457 203 q 441 337 457 300 q 408 390 425 374 l 392 407 q 307 503 347 464 q 15 -24 213 329 m 213 729 q 285 603 213 668 l 303 585 q 479 911 476 907 q 296 853 379 901 q 213 729 213 806 m 642 863 q 531 785 574 831 q 489 697 489 740 q 524 653 489 653 q 619 700 579 653 q 660 793 660 747 q 642 863 660 839 z "},"%":{"ha":989,"x_min":67,"x_max":936,"o":"m 185 -77 q 190 -69 185 -77 q 476 434 194 -61 q 769 951 757 929 q 797 974 782 974 q 811 967 811 974 q 225 -81 811 961 q 208 -103 219 -92 q 189 -115 196 -115 q 176 -101 176 -115 q 185 -77 176 -93 m 172 378 q 92 409 117 378 q 67 497 67 440 q 106 640 67 553 q 226 801 144 728 q 403 874 307 874 q 506 751 506 874 q 394 503 506 629 q 172 378 283 378 m 397 857 q 265 790 333 857 q 153 633 196 722 q 111 478 111 544 q 181 396 111 396 q 369 534 272 396 q 465 778 465 672 q 397 857 465 857 m 603 -25 q 522 6 547 -25 q 497 94 497 38 q 536 238 497 150 q 656 398 575 325 q 833 471 738 471 q 936 349 936 471 q 825 101 936 226 q 603 -25 714 -25 m 828 454 q 695 387 764 454 q 584 231 626 319 q 542 75 542 142 q 611 -7 542 -7 q 799 131 703 -7 q 896 375 896 269 q 828 454 896 454 z "},"&":{"ha":767,"x_min":-40,"x_max":746,"o":"m 721 -17 q 746 -42 746 -31 q 728 -64 746 -61 l 721 -64 q 554 56 643 -51 q 199 -72 378 -72 q 25 -18 90 -72 q -40 135 -40 36 q 58 368 -40 260 q 274 547 139 457 q 354 600 303 567 q 386 772 360 706 l 396 794 q 452 878 419 844 q 517 925 485 913 q 603 947 569 947 q 656 913 640 947 q 663 869 663 899 q 642 801 663 840 q 578 721 622 763 q 497 651 535 679 q 393 574 460 622 q 428 393 396 485 q 433 372 429 385 q 635 438 546 438 q 686 428 657 438 q 743 343 743 408 q 593 86 743 210 q 721 -17 654 15 m 447 221 q 404 314 417 279 q 314 176 329 250 q 294 157 310 157 q 275 189 275 157 q 393 346 275 264 q 354 547 358 449 q 231 454 278 493 q 131 360 183 415 q 24 122 24 250 q 217 -42 24 -42 q 367 -10 274 -42 q 539 75 461 22 q 458 200 492 136 l 447 221 m 693 315 q 690 342 693 328 q 665 378 688 357 q 600 399 642 399 q 444 343 535 399 q 579 104 494 213 q 693 315 693 201 m 626 872 q 617 900 626 889 q 589 917 608 911 q 446 819 504 917 q 394 625 401 744 q 568 757 510 701 q 626 872 626 813 z "},"'":{"ha":264,"x_min":176,"x_max":292,"o":"m 288 701 l 203 592 q 183 578 193 578 q 176 585 176 578 q 181 601 176 593 l 254 724 q 275 738 263 738 q 292 715 292 738 q 288 701 292 710 z "},"(":{"ha":440,"x_min":143,"x_max":875,"o":"m 143 65 q 183 347 143 213 q 288 580 224 482 q 431 762 353 678 q 586 900 508 846 q 832 1050 744 1011 l 872 1067 q 875 1064 875 1067 l 867 1051 q 380 641 572 915 q 188 25 188 367 q 243 -217 188 -110 q 240 -228 243 -228 q 232 -222 236 -228 q 170 -85 197 -167 q 143 65 143 -3 z "},")":{"ha":576,"x_min":-129,"x_max":603,"o":"m 514 1061 q 576 924 549 1006 q 603 750 603 842 q 578 550 603 658 q 510 356 553 442 q 414 194 468 271 q 299 59 360 117 q 177 -47 238 1 q 63 -128 117 -96 q -101 -217 -49 -196 l -126 -228 q -129 -225 -129 -228 l -121 -212 q 366 198 174 -76 q 558 814 558 472 q 503 1056 558 949 q 506 1067 503 1067 q 514 1061 510 1067 z "},"*":{"ha":410,"x_min":101,"x_max":378,"o":"m 319 604 l 260 529 l 356 522 q 378 504 378 518 q 353 482 378 482 q 261 504 349 482 l 304 426 q 308 411 308 419 q 286 393 308 393 q 267 411 272 393 l 238 493 l 194 414 q 174 400 186 400 q 157 422 157 400 q 161 436 157 428 l 221 511 l 124 519 q 106 527 111 519 q 101 539 101 535 q 125 558 101 558 l 217 536 l 172 618 q 169 631 169 624 q 187 647 169 646 q 210 633 204 649 l 242 544 l 286 626 q 307 640 294 640 q 324 618 324 640 q 319 604 324 613 z "},"+":{"ha":494,"x_min":-32,"x_max":393,"o":"m 194 400 l 133 226 q 122 217 131 217 q 106 224 114 217 q 99 242 99 232 q 149 399 133 354 l 17 399 q -24 401 -15 399 q -32 413 -32 404 q -11 442 -32 440 l 164 442 l 214 585 q 240 628 229 628 q 258 619 250 628 q 265 601 265 611 l 210 443 l 385 443 q 393 438 393 443 q 372 407 393 408 q 194 400 301 403 z "},",":{"ha":265,"x_min":-31,"x_max":140,"o":"m 88 -19 l 78 24 q 86 45 78 36 q 107 54 94 54 q 129 45 119 54 q 140 17 139 36 q 118 -50 136 -21 q 78 -94 100 -79 q -8 -131 29 -124 l -24 -133 q -31 -125 -31 -133 q -1 -112 -31 -122 q 58 -78 29 -101 q 88 -19 88 -54 z "},"-":{"ha":604,"x_min":114,"x_max":496,"o":"m 496 143 q 464 107 496 122 q 395 92 432 92 q 294 117 358 92 q 205 143 231 143 q 151 130 179 143 q 117 117 124 117 l 114 118 q 128 137 114 124 q 172 163 143 150 q 232 175 200 175 q 332 147 264 175 q 422 118 400 118 q 458 126 443 118 q 482 140 474 133 q 493 147 490 147 q 496 143 496 147 z "},".":{"ha":301,"x_min":57,"x_max":132,"o":"m 132 21 q 119 -8 132 6 q 90 -22 106 -22 q 66 -15 74 -22 q 58 8 58 -8 q 72 36 57 25 q 101 47 88 47 q 132 21 132 47 z "},"/":{"ha":433,"x_min":26,"x_max":661,"o":"m 35 -120 q 40 -112 35 -120 q 326 391 44 -104 q 619 908 607 886 q 647 931 632 931 q 661 924 661 931 q 75 -124 661 918 q 58 -147 69 -135 q 39 -158 46 -158 q 26 -144 26 -158 q 35 -120 26 -136 z "},":":{"ha":301,"x_min":56,"x_max":228,"o":"m 228 282 q 215 253 228 267 q 185 239 201 239 q 162 246 169 239 q 153 269 154 253 q 168 297 153 286 q 197 308 183 308 q 228 282 228 308 m 131 21 q 117 -8 131 6 q 88 -22 104 -22 q 65 -15 72 -22 q 56 8 57 -8 q 71 36 56 25 q 100 47 86 47 q 131 21 131 47 z "},";":{"ha":265,"x_min":-31,"x_max":200,"o":"m 88 -19 l 78 24 q 86 45 78 36 q 107 54 94 54 q 129 45 119 54 q 140 17 139 36 q 118 -50 136 -21 q 78 -94 100 -79 q -8 -131 29 -124 l -24 -133 q -31 -125 -31 -133 q -1 -112 -31 -122 q 58 -78 29 -101 q 88 -19 88 -54 m 200 268 q 187 239 200 253 q 158 225 174 225 q 134 232 142 225 q 126 256 126 239 q 140 283 125 272 q 169 294 156 294 q 200 268 200 294 z "},"<":{"ha":522,"x_min":18,"x_max":435,"o":"m 36 425 l 435 617 l 435 597 q 411 564 435 575 l 71 399 l 272 217 q 293 189 293 196 q 275 167 293 172 l 26 383 q 18 401 18 392 q 36 425 18 411 z "},"=":{"ha":558,"x_min":-32,"x_max":457,"o":"m -11 369 l 381 372 q 393 365 393 372 q 372 335 393 336 q 95 326 206 326 q -24 329 -15 326 q -32 340 -32 332 q -11 369 -32 368 m 53 475 l 444 478 q 457 471 457 478 q 436 440 457 442 q 159 432 269 432 q 40 435 49 432 q 32 446 32 438 q 53 475 32 474 z "},">":{"ha":522,"x_min":21,"x_max":438,"o":"m 419 358 l 21 167 l 21 186 q 44 219 21 208 l 385 385 l 183 567 q 163 594 163 588 q 181 617 163 611 l 429 400 q 438 382 438 392 q 419 358 438 372 z "},"?":{"ha":454,"x_min":85,"x_max":740,"o":"m 208 242 q 189 224 203 226 q 175 258 175 233 q 350 475 175 342 q 497 584 424 529 q 622 699 571 639 q 674 811 674 760 q 651 864 674 843 q 594 892 629 885 q 504 903 538 903 q 261 831 367 903 q 156 696 156 758 q 244 639 156 639 q 424 694 332 639 q 440 701 433 701 q 447 694 447 701 q 356 635 447 668 q 193 601 265 601 q 93 669 93 601 q 233 849 93 764 q 531 933 372 933 q 631 918 575 933 q 740 807 740 889 q 581 607 740 725 q 439 501 511 556 q 301 378 367 447 q 208 242 235 310 m 160 36 q 147 7 160 21 q 117 -7 133 -7 q 94 0 101 -7 q 85 24 86 7 q 100 51 85 40 q 129 63 115 63 q 160 36 160 63 z "},"@":{"ha":724,"x_min":-4,"x_max":675,"o":"m 675 220 q 675 175 675 220 q 595 22 675 131 q 414 -86 515 -86 q 351 -17 351 -86 q 368 64 351 22 l 360 61 q 222 -8 276 -8 q 178 42 178 -8 q 277 202 178 118 q 454 286 376 286 q 486 278 475 286 q 501 250 501 265 q 475 197 501 219 q 426 169 442 169 q 411 175 411 169 l 414 181 q 453 242 453 217 q 428 260 453 260 q 301 178 368 260 q 233 58 233 97 q 259 35 233 35 q 320 60 285 35 q 378 110 356 85 l 401 135 q 416 142 407 142 q 431 133 425 142 q 436 117 436 124 l 435 108 q 399 -6 399 43 q 442 -56 399 -56 q 571 32 506 -56 q 636 215 636 119 q 618 295 636 261 q 574 344 600 329 q 478 378 518 376 l 460 379 q 163 256 286 379 q 40 -6 40 133 q 65 -94 40 -50 q 149 -137 90 -137 q 190 -131 171 -137 q 268 -72 233 -121 q 281 -65 275 -65 l 285 -71 q 237 -134 285 -97 q 129 -171 189 -171 q 44 -139 82 -171 q -4 -10 -4 -99 q 57 174 -4 78 q 228 339 118 271 q 463 407 339 407 q 622 356 561 407 q 675 220 675 310 z "},"A":{"ha":715,"x_min":-104,"x_max":915,"o":"m -57 -94 q -100 -74 -89 -94 q -104 -62 -104 -67 q -101 -56 -104 -58 q 199 236 25 38 q 65 349 113 283 q 18 472 18 415 q 53 560 18 528 q 154 592 88 592 q 369 446 281 592 q 494 604 408 494 q 618 762 579 714 q 714 875 657 810 q 874 992 819 992 q 915 947 915 990 q 884 822 915 901 q 834 695 853 742 q 778 572 815 649 q 721 449 742 494 q 657 316 700 404 q 597 193 614 228 q 767 231 704 200 q 781 243 778 236 q 788 250 783 250 q 798 244 793 250 q 803 233 803 239 q 586 168 803 186 q 511 6 532 56 q 494 -6 506 -6 q 465 50 465 -6 q 446 168 460 93 q 240 217 336 176 l 240 215 q 106 65 181 142 q -12 -53 32 -12 l -57 -94 m 546 192 q 864 929 864 853 q 847 953 864 953 q 777 903 822 953 q 704 819 732 853 q 631 727 676 786 q 555 629 585 668 q 471 517 525 590 q 390 410 417 444 q 468 197 433 329 q 546 192 501 192 m 354 425 q 160 567 272 567 q 85 546 110 567 q 60 484 60 525 q 106 383 60 443 q 232 276 153 322 q 354 425 274 325 m 374 388 q 271 254 329 328 q 438 201 353 215 q 374 388 408 318 m 533 165 l 475 165 l 492 78 q 533 165 508 111 z "},"B":{"ha":1015,"x_min":-79,"x_max":1029,"o":"m 988 117 q 914 44 988 63 q 910 50 910 44 q 919 63 910 56 q 947 108 947 83 q 869 179 947 157 q 584 -31 767 53 q 260 -114 401 -114 q 118 -56 118 -114 q 215 60 118 -7 q 463 178 311 128 q 750 229 615 229 q 864 219 817 229 q 907 379 907 296 q 864 460 907 428 q 749 493 821 493 q 611 464 676 493 q 589 454 597 454 q 574 462 574 454 q 594 481 574 469 q 712 556 625 490 q 881 715 799 621 q 964 872 964 808 q 739 976 964 976 q 402 912 581 976 q 101 744 224 847 q -21 542 -21 640 q 44 489 -21 489 q 228 535 138 489 q 464 704 318 582 q 489 725 482 725 q 504 715 504 725 q 494 696 504 713 q 393 608 458 660 q 272 522 328 557 q 147 460 217 488 q 19 432 76 432 q -79 519 -79 432 q 69 753 -79 633 q 419 948 218 874 q 778 1022 619 1022 q 1029 899 1029 1022 q 909 685 1029 808 q 693 517 789 563 q 774 525 736 525 q 908 492 861 525 q 956 401 956 458 q 893 211 956 304 q 988 117 988 183 m 735 196 q 496 151 629 196 q 273 50 363 107 q 183 -42 183 -7 q 269 -78 183 -78 q 456 -51 354 -78 q 670 40 558 -24 q 842 186 782 103 q 735 196 789 196 m 750 888 q 588 604 750 883 q 350 197 426 325 q 319 169 342 179 q 285 160 297 160 q 274 166 274 160 q 376 345 274 172 q 581 689 479 518 q 681 861 683 860 q 708 882 689 875 l 743 893 l 750 888 z "},"C":{"ha":638,"x_min":0,"x_max":924,"o":"m 624 150 q 635 133 635 150 q 570 69 635 113 q 403 -10 506 26 q 217 -47 301 -47 q 0 193 0 -47 q 55 439 0 315 q 197 659 110 563 q 385 832 283 756 q 588 949 488 908 q 765 990 689 990 q 924 868 924 990 q 839 650 924 776 q 632 431 754 524 q 413 338 510 338 q 338 408 338 338 q 455 631 338 499 q 656 764 572 764 q 667 756 667 764 l 660 738 q 542 681 610 738 q 426 549 474 624 q 379 424 379 474 q 436 368 379 368 q 610 454 507 368 q 790 658 714 540 q 865 856 865 775 q 738 957 865 957 q 581 919 671 957 q 399 808 490 881 q 228 646 307 736 q 101 440 150 556 q 51 208 51 324 q 246 -11 51 -11 q 465 44 347 -11 q 624 150 583 99 z "},"D":{"ha":811,"x_min":-189,"x_max":1013,"o":"m 775 117 q 701 44 775 63 q 697 50 697 44 q 707 63 697 56 q 735 108 735 83 q 654 181 735 157 q 372 -15 519 58 q 96 -87 225 -87 q -3 -19 -3 -87 q 86 109 -3 50 q 299 199 175 168 q 513 229 422 229 q 647 219 603 229 q 869 495 783 351 q 956 748 956 639 q 874 917 956 857 q 629 976 793 976 q 290 917 465 976 q -8 763 114 858 q -131 574 -131 667 q -65 521 -131 521 q 118 567 28 521 q 354 736 208 614 q 381 757 372 757 q 394 747 394 757 q 385 728 394 744 q 283 640 349 692 q 163 554 218 589 q 37 492 107 519 q -90 464 -33 464 q -189 551 -189 464 q -48 763 -189 650 q 296 949 93 875 q 672 1024 499 1024 q 929 958 846 1024 q 1013 776 1013 893 q 922 504 1013 660 q 686 210 831 349 q 775 117 775 182 m 614 189 q 494 196 568 196 q 317 172 419 196 q 140 99 214 149 q 65 -14 65 49 q 125 -60 65 -60 q 360 8 231 -60 q 614 189 490 76 m 614 897 q 450 601 614 890 q 238 231 286 313 q 207 203 229 213 q 173 193 185 193 q 161 199 161 193 q 258 372 161 206 q 544 871 549 869 q 572 892 553 885 l 607 903 l 614 897 z "},"E":{"ha":556,"x_min":-19,"x_max":929,"o":"m 525 688 q 488 710 488 688 q 569 810 488 744 q 749 915 650 876 q 750 925 750 918 q 664 988 750 988 q 452 913 578 988 q 232 738 326 839 q 138 568 138 638 q 299 481 138 481 q 461 525 393 481 q 471 531 465 531 q 481 516 481 531 q 471 497 481 501 q 183 317 297 418 q 95 209 135 274 q 56 90 56 144 q 84 -1 56 35 q 190 -36 113 -36 q 250 -28 217 -35 q 363 19 283 -21 q 514 126 442 60 q 532 140 525 140 q 540 129 540 139 q 475 57 540 106 q 312 -33 410 8 q 140 -75 214 -75 q -4 -3 35 -75 q -19 64 -19 26 q 87 270 -19 156 q 363 463 193 385 q 242 449 297 449 q 67 546 67 449 q 132 690 67 606 q 290 846 197 774 q 490 970 382 918 q 674 1022 597 1022 q 792 942 792 1022 q 790 929 792 933 q 882 949 851 949 q 921 947 913 949 q 929 929 929 944 q 918 911 929 914 q 779 888 854 911 q 672 751 749 814 q 525 688 594 688 m 533 726 q 556 714 533 714 q 654 765 597 714 q 736 872 711 815 q 594 794 656 839 q 533 726 533 749 z "},"F":{"ha":569,"x_min":-178,"x_max":1292,"o":"m 732 919 l 608 921 l 594 921 q 305 879 447 921 q 66 777 163 838 q -90 653 -31 717 q -149 543 -149 589 q -53 481 -149 481 q 177 545 42 481 q 404 708 313 610 q 425 724 419 724 q 428 719 428 724 q 426 713 428 715 q 238 524 388 621 q -54 428 89 428 q -147 453 -115 428 q -178 530 -178 478 q -120 658 -178 582 q 38 804 -62 733 q 298 924 138 875 q 638 972 458 972 q 1246 975 1226 972 q 1278 978 1265 978 q 1292 972 1292 978 q 1277 955 1292 967 q 1227 931 1263 943 q 1147 919 1192 919 q 732 919 939 919 m 682 858 q 679 850 682 856 l 403 314 q 567 317 517 317 l 619 317 q 710 306 710 315 q 690 283 710 297 q 651 268 669 268 q 467 271 613 271 l 381 271 l 244 6 q 214 -22 236 -12 q 180 -32 192 -32 q 168 -25 168 -32 q 319 269 168 -18 q 56 253 147 264 q 44 258 44 253 q 71 289 44 265 q 342 311 93 303 q 613 832 615 829 q 640 853 621 846 l 675 864 l 682 858 z "},"G":{"ha":688,"x_min":-8,"x_max":982,"o":"m 654 379 q 413 153 533 244 q 275 71 353 108 q 135 33 197 33 q -8 168 -8 33 q 53 426 -8 294 q 209 660 114 557 q 414 845 304 763 q 626 972 524 928 q 797 1017 728 1017 q 892 938 888 1017 q 965 958 940 958 q 982 943 982 954 q 975 922 982 932 q 951 913 968 913 q 888 896 935 913 q 757 686 868 785 q 575 588 646 588 q 539 621 539 588 q 640 774 539 685 q 856 921 742 864 l 856 922 q 782 985 856 985 q 631 944 722 985 q 440 826 539 903 q 253 652 340 749 q 110 430 167 556 q 54 181 54 304 q 156 74 54 74 q 761 533 376 74 q 803 561 785 561 q 821 558 821 561 q 813 538 821 554 q 717 383 804 522 q 531 85 631 244 q 250 -365 272 -332 q 246 -379 246 -374 q 258 -385 246 -385 l 293 -382 q 304 -386 304 -382 q 264 -417 304 -393 q 207 -440 224 -440 q 190 -419 190 -440 q 205 -358 190 -399 q 334 -137 219 -317 q 553 203 449 43 q 658 372 658 364 q 654 379 658 379 m 611 625 q 747 704 663 625 q 851 881 832 783 q 673 765 756 836 q 590 644 590 694 q 611 625 590 625 z "},"H":{"ha":650,"x_min":-11,"x_max":1017,"o":"m 775 244 q 785 235 785 244 q 769 218 785 225 q 547 167 675 171 q 479 35 481 39 q 473 22 478 32 q 464 6 468 11 q 446 -8 456 -8 q 421 26 421 -8 q 403 176 421 100 q 263 211 326 188 l 75 -124 l 46 -144 q 19 -153 29 -153 q 7 -139 7 -153 q 13 -119 7 -131 l 213 232 q 50 349 111 278 q -11 508 -11 421 q 72 624 -11 624 q 197 571 126 624 q 326 431 267 518 l 597 908 q 651 931 613 931 q 661 924 661 931 q 357 378 661 918 q 428 196 406 290 q 522 190 468 190 q 949 978 679 496 q 1006 1008 964 1006 q 1017 1001 1017 1008 q 1007 976 1017 993 q 922 828 997 960 q 561 190 650 354 q 775 244 678 197 m 226 256 l 306 394 q 190 522 253 474 q 85 571 128 571 q 38 514 38 571 q 88 365 38 432 q 226 256 139 299 m 276 235 q 396 201 332 213 q 338 343 372 278 q 276 235 278 238 m 432 172 q 444 50 444 111 l 446 35 q 510 167 456 57 q 432 172 485 167 z "},"I":{"ha":797,"x_min":-165,"x_max":974,"o":"m -165 1 q -55 147 -165 74 q 217 266 56 221 q 529 311 379 311 q 611 307 567 311 q 917 897 917 593 q 863 979 917 979 q 786 945 829 979 q 703 856 743 911 q 637 718 664 800 q 610 545 610 636 q 635 439 610 454 q 642 429 642 435 q 610 406 631 406 q 578 417 590 406 q 567 451 567 429 q 602 690 567 574 q 689 883 638 806 q 797 1007 740 960 q 899 1054 854 1054 q 974 936 974 1054 q 654 301 974 596 q 803 197 803 275 q 767 140 803 169 q 710 108 732 110 q 688 113 689 107 q 703 126 688 117 q 761 188 761 163 q 604 257 761 244 q 229 17 431 110 q -61 -76 28 -76 q -131 -57 -106 -76 q -161 -18 -157 -37 l -165 1 m 519 261 q 237 228 382 261 q -9 138 92 194 q -111 21 -110 81 q -33 -31 -107 -31 q 235 50 65 -31 q 558 260 404 131 q 519 261 544 261 z "},"J":{"ha":729,"x_min":-164,"x_max":840,"o":"m 610 106 q 458 83 536 106 q 117 -392 278 -199 q -115 -586 -43 -586 q -164 -533 -164 -586 q -117 -390 -164 -479 q 8 -208 -69 -301 q 197 -27 85 -114 q 424 103 308 60 q 669 564 567 347 q 772 843 772 781 q 709 925 772 925 q 538 849 646 925 q 328 667 429 772 q 152 440 226 561 q 78 246 78 319 q 149 172 78 172 q 317 261 224 172 q 426 413 411 350 q 440 422 429 422 q 450 413 450 422 q 321 234 450 339 q 101 129 192 129 q 29 217 29 129 q 112 439 29 306 q 308 688 194 572 q 545 885 421 803 q 747 967 669 967 q 840 846 840 967 q 738 568 840 774 q 483 122 635 363 q 608 143 563 143 q 677 130 653 143 q 701 96 701 117 q 673 14 701 51 q 607 -24 644 -24 q 601 -19 601 -24 q 621 4 601 -6 q 647 67 647 28 q 610 106 647 106 m -107 -492 q -82 -524 -107 -524 q 115 -358 -15 -524 q 399 61 244 -193 q 142 -109 264 7 q -44 -331 19 -225 q -107 -492 -107 -436 z "},"K":{"ha":732,"x_min":0,"x_max":1111,"o":"m 651 964 q 396 488 644 944 q 497 463 449 482 q 833 719 678 575 q 1057 1001 988 863 q 1070 1015 1058 1015 q 1097 1008 1082 1015 q 1111 992 1111 1001 q 894 712 1057 858 q 531 446 732 565 q 681 161 681 365 q 665 51 681 101 q 636 -18 650 1 l 621 -37 q 610 -24 610 -37 l 618 3 q 638 117 638 63 q 479 417 638 328 q 313 333 403 375 q 139 25 199 126 q 113 -6 129 1 q 81 -12 97 -12 q 64 -7 64 -12 l 232 301 q 79 268 140 268 q 0 329 0 268 q 105 441 0 390 q 336 492 210 492 l 582 943 q 608 962 586 954 q 640 969 629 969 q 651 964 651 969 m 294 461 q 124 425 197 461 q 50 339 50 389 q 105 296 50 296 q 249 332 160 296 l 318 460 q 294 461 310 461 m 378 453 q 332 368 340 383 q 447 432 375 389 q 378 453 414 446 z "},"L":{"ha":694,"x_min":-425,"x_max":1235,"o":"m 1222 872 l 1172 875 l 1156 875 q 1052 741 1132 803 q 889 679 972 679 q 843 715 843 679 q 928 833 843 767 q 1131 910 1013 899 l 1131 915 q 1010 986 1131 986 q 678 767 824 986 q 550 553 610 663 q 261 71 364 204 q 332 69 307 71 l 560 63 q 659 60 644 63 q 674 53 674 58 q 607 8 674 13 q 217 17 424 14 q -321 -246 -12 -246 q -397 -223 -368 -246 q -425 -164 -425 -200 q -391 -90 -425 -128 q -288 -17 -357 -53 q -93 44 -219 19 q 199 71 33 68 q 442 475 308 219 q 557 674 490 571 q 687 847 624 776 q 838 962 750 917 q 1026 1007 926 1007 q 1164 917 1164 1007 l 1164 913 q 1226 907 1200 913 q 1235 888 1235 904 q 1222 872 1235 872 m -367 -103 q -399 -159 -399 -132 q -372 -203 -399 -186 q -299 -219 -346 -219 q 156 17 -43 -219 q -367 -103 -243 13 m 885 724 q 913 701 885 701 q 1029 757 963 701 q 1121 872 1096 813 q 952 810 1019 860 q 885 724 885 761 z "},"M":{"ha":857,"x_min":-337,"x_max":933,"o":"m 644 35 q 667 21 644 21 q 749 48 690 21 q 851 103 807 75 l 896 131 q 897 119 897 128 q 885 106 897 111 q 624 -22 697 -22 q 588 14 588 -22 q 647 151 588 50 l 892 576 q 887 581 892 581 q 868 567 882 581 q 615 310 854 554 q 333 22 375 65 q 292 -6 310 -6 q 276 13 276 -6 q 459 331 276 54 q 649 642 642 608 q 645 646 649 646 q 622 626 642 646 q 333 326 601 606 q 22 -1 65 47 q -2 -10 11 -10 q -15 3 -15 -10 q -3 33 -15 13 q 33 93 10 54 q 115 240 56 132 q 219 444 174 349 q 301 650 264 540 q 338 829 338 760 q 238 944 338 944 q -6 878 122 944 q -215 726 -135 813 q -296 578 -296 640 q -178 506 -296 506 q 45 578 -61 506 q 196 735 151 651 q 207 743 203 743 q 211 724 211 743 q 181 660 211 706 q 101 567 150 614 q -24 488 51 521 q -179 454 -100 454 q -337 558 -337 454 q -287 685 -337 615 q -157 818 -237 756 q 38 923 -76 881 q 267 965 153 965 q 396 831 396 965 q 362 658 396 761 q 281 458 328 556 q 100 136 185 268 l 67 82 q 203 221 72 85 q 672 706 635 668 q 704 699 699 706 q 710 689 710 692 l 710 688 q 458 256 710 650 q 353 90 361 104 l 340 63 q 483 202 351 63 q 751 481 615 342 q 906 621 886 621 q 924 613 914 621 q 933 597 933 606 q 929 581 933 589 l 681 131 q 644 35 644 64 z "},"N":{"ha":724,"x_min":-194,"x_max":847,"o":"m 511 35 q 534 21 511 21 q 615 48 557 21 q 718 103 674 75 l 763 131 q 764 119 764 128 q 751 106 764 111 q 490 -22 564 -22 q 454 13 454 -22 q 540 221 454 47 q 711 553 625 394 l 796 710 l 778 690 q 192 33 758 671 q 159 25 172 25 q 146 38 146 25 q 158 69 146 50 q 194 128 171 89 q 276 275 217 167 q 380 479 335 383 q 462 685 425 575 q 499 864 499 794 q 399 979 499 979 q 152 914 282 979 q -60 763 22 849 q -142 615 -142 678 q -21 540 -142 540 q 206 613 100 540 q 357 769 313 686 q 368 778 364 778 q 372 760 372 778 q 339 698 372 743 q 254 606 306 653 q 128 524 203 558 q -18 489 53 489 q -194 592 -194 489 q -140 718 -194 647 q 1 851 -85 789 q 202 957 86 914 q 428 1000 318 1000 q 557 865 557 1000 q 474 568 557 756 q 310 249 392 381 l 228 117 q 358 261 233 119 q 806 761 754 710 q 831 753 815 761 q 847 738 847 746 q 843 721 847 729 q 511 35 511 75 z "},"O":{"ha":603,"x_min":0,"x_max":831,"o":"m 581 978 q 590 969 588 978 q 574 956 590 958 q 408 860 496 929 q 241 692 319 790 q 110 461 163 594 q 58 192 58 328 q 189 7 58 7 q 367 74 265 7 q 559 244 469 142 q 711 483 649 346 q 774 748 774 621 q 686 875 774 875 q 519 799 615 875 q 352 608 424 724 q 281 390 281 492 q 351 288 281 288 q 452 330 396 288 q 553 443 508 372 q 566 454 558 454 q 574 446 574 454 q 477 324 574 407 q 311 240 381 240 q 229 372 229 240 q 315 606 229 475 q 518 828 401 738 q 719 918 635 918 q 831 753 831 918 q 758 484 831 628 q 583 228 686 340 q 361 42 479 117 q 154 -33 243 -33 q 0 186 0 -33 q 53 449 0 319 q 181 671 106 579 q 341 835 257 763 q 490 942 425 907 q 581 978 554 978 z "},"P":{"ha":365,"x_min":-210,"x_max":933,"o":"m 606 854 q 596 830 606 851 q 338 365 586 808 q 704 598 543 450 q 865 856 865 746 q 618 988 865 988 q 292 921 474 988 q -21 751 110 854 q -151 557 -151 649 q -54 479 -151 479 q 140 537 28 479 q 340 690 251 594 q 360 708 351 708 q 369 699 369 708 q 288 601 369 667 q 90 480 206 535 q -103 425 -25 425 q -210 535 -210 425 q -59 750 -210 631 q 301 952 92 869 q 669 1035 511 1035 q 933 889 933 1035 q 747 592 933 763 q 317 328 560 421 q 132 1 178 79 q 101 -26 124 -17 q 67 -36 79 -36 q 56 -29 56 -36 l 240 301 q 78 267 153 275 q 69 284 69 267 q 85 303 69 301 q 261 338 167 307 l 539 833 q 564 852 543 844 q 599 860 585 860 l 606 854 z "},"Q":{"ha":653,"x_min":0,"x_max":940,"o":"m 558 946 q 581 940 581 944 q 567 929 581 935 q 208 625 358 835 q 57 249 57 415 q 104 115 57 164 q 240 65 151 65 q 433 126 329 65 q 428 249 428 175 l 428 274 q 331 247 375 247 q 208 351 208 247 q 269 528 208 424 q 418 728 329 633 q 619 889 507 822 q 826 956 732 956 q 940 835 940 956 q 805 483 940 697 q 493 138 669 268 q 514 -88 514 -26 q 485 -226 514 -150 q 431 -303 457 -301 q 424 -293 424 -303 q 432 -274 424 -283 q 469 -143 469 -247 q 455 -12 469 -89 q 436 100 440 65 q 206 22 311 22 q 50 75 100 22 q 0 218 0 128 q 167 630 0 401 q 558 946 335 858 m 897 804 q 790 917 897 917 q 556 817 683 917 q 344 589 429 718 q 260 372 260 460 q 360 285 260 285 q 431 301 390 285 q 499 508 443 421 q 629 596 554 596 q 671 553 671 596 q 611 433 671 511 q 474 300 551 354 q 489 164 478 243 q 772 479 647 282 q 897 804 897 676 m 474 326 q 578 434 533 368 q 622 529 622 500 q 604 558 622 558 q 519 478 564 557 q 474 338 474 400 l 474 326 z "},"R":{"ha":783,"x_min":-214,"x_max":933,"o":"m 604 865 q 602 859 604 863 q 561 781 600 856 q 335 360 518 700 q 703 588 540 436 q 865 856 865 740 q 804 958 865 918 q 619 999 743 999 q 353 947 496 999 q 103 822 211 894 q -78 674 -6 750 q -151 549 -151 597 q -65 494 -151 494 q 134 552 22 494 q 335 706 246 610 q 354 724 350 724 q 364 714 364 724 q 354 694 364 711 q 151 531 308 625 q -110 438 -7 438 q -214 503 -214 438 q -131 653 -214 561 q 75 833 -49 746 q 363 983 199 921 q 665 1046 526 1046 q 868 1002 803 1046 q 933 889 933 958 q 780 614 933 768 q 410 367 626 460 q 643 245 550 365 q 738 -33 736 125 q 731 -53 738 -53 q 715 -28 719 -53 q 706 19 711 -4 q 672 103 700 43 q 605 208 643 163 q 494 292 567 254 q 332 329 422 329 l 317 329 q 149 28 217 147 q 118 0 140 10 q 84 -10 96 -10 q 72 -3 72 -10 l 243 308 q 129 288 188 294 q 104 296 104 288 q 119 313 104 311 q 258 336 183 317 l 538 844 q 563 863 542 856 q 597 871 583 871 l 604 865 z "},"S":{"ha":632,"x_min":-208,"x_max":1025,"o":"m 647 653 q 593 700 593 653 q 674 836 593 772 q 865 940 754 900 q 815 1002 856 981 q 716 1024 775 1024 q 594 1001 657 1024 q 474 938 531 979 q 383 830 418 897 q 347 682 347 763 q 389 519 347 654 q 431 296 431 385 q 425 232 431 274 q 501 238 478 238 q 636 167 636 238 q 621 125 636 142 q 569 86 606 108 q 558 99 558 93 q 564 108 558 104 q 606 156 606 132 q 496 203 606 203 q 418 197 456 203 q 330 31 394 108 q 186 -94 265 -46 q 27 -168 107 -142 q -114 -194 -53 -194 q -208 -139 -208 -194 q -111 18 -208 -61 q 120 151 -14 97 q 383 226 254 204 q 389 289 389 265 q 345 476 389 349 q 301 694 301 603 q 374 877 301 786 q 545 1017 446 968 q 733 1065 644 1065 q 888 947 874 1065 q 993 972 965 972 q 1023 970 1021 972 q 1025 954 1025 968 q 1013 936 1025 940 q 889 918 950 933 q 804 729 886 806 q 647 653 722 653 m -154 -104 q -74 -144 -154 -144 q 178 -64 39 -144 q 301 42 246 -25 q 376 192 356 110 q 140 129 258 172 q -67 23 21 86 q -154 -104 -154 -40 m 638 708 q 665 682 638 682 q 792 753 718 682 q 868 911 867 825 q 704 826 771 881 q 638 708 638 772 z "},"T":{"ha":368,"x_min":-286,"x_max":1163,"o":"m 653 956 q 1117 958 1097 956 q 1149 961 1136 961 q 1163 956 1163 961 q 1148 938 1163 950 q 1098 915 1133 926 q 1018 903 1063 903 l 608 904 q 266 856 429 901 q -1 746 103 810 q -167 615 -106 682 q -228 501 -228 549 q -143 444 -228 444 q 77 517 -58 444 q 307 692 213 590 q 328 707 322 707 q 331 703 331 707 q 329 696 331 699 q 139 497 289 601 q -149 392 -11 392 q -286 471 -286 392 q -208 613 -286 531 q -7 772 -131 694 q 295 902 117 849 q 653 956 474 956 m 590 854 q 493 669 590 850 q 129 -11 228 176 q 99 -39 121 -29 q 65 -49 76 -49 q 53 -42 53 -49 q 171 181 53 -36 q 406 612 289 397 q 521 828 524 826 q 549 849 529 842 l 583 860 l 590 854 z "},"U":{"ha":694,"x_min":-315,"x_max":785,"o":"m 503 21 q 589 48 531 21 q 692 103 647 75 l 736 131 q 738 119 738 128 q 725 106 738 111 q 464 -22 538 -22 q 415 39 415 -22 q 556 353 415 149 q 407 196 503 289 q 129 10 215 10 q 78 33 96 10 q 60 83 60 56 q 117 252 60 143 q 245 462 175 361 q 373 668 315 563 q 431 829 431 774 q 386 915 431 885 q 265 946 342 946 q 86 905 189 946 q -94 805 -17 864 q -222 682 -171 746 q -274 572 -274 618 q -168 507 -274 507 q 50 586 -62 507 q 247 782 163 665 q 261 793 254 793 l 263 793 q 269 782 269 789 q 197 669 269 749 q 14 519 125 590 q -183 449 -97 449 q -315 539 -315 449 q -263 668 -315 594 q -129 808 -211 742 q 67 919 -47 874 q 277 965 181 965 q 432 930 374 965 q 490 810 490 894 q 307 456 490 724 q 182 251 239 357 q 125 97 125 146 q 161 47 125 47 q 250 88 193 47 q 367 186 307 129 q 567 403 486 304 l 601 443 l 725 613 q 753 628 735 628 l 776 626 q 785 621 785 626 q 633 378 785 615 q 481 54 481 142 q 486 31 481 39 q 503 21 492 22 z "},"V":{"ha":649,"x_min":-257,"x_max":986,"o":"m 300 449 q 335 501 300 449 q 430 663 371 553 q 489 828 489 772 q 444 915 489 885 q 324 946 400 946 q 144 905 247 946 q -35 805 42 864 q -164 682 -112 746 q -215 572 -215 618 q -110 507 -215 507 q 108 586 -4 507 q 306 782 221 665 q 320 793 313 793 q 328 782 328 793 q 256 669 328 749 q 72 519 183 590 q -125 449 -39 449 q -257 539 -257 449 q -205 668 -257 594 q -71 808 -153 742 q 125 919 11 874 q 335 965 239 965 q 490 930 432 965 q 549 810 549 894 q 457 598 549 749 q 274 299 365 447 q 183 90 183 150 q 235 29 183 29 q 421 125 306 29 q 636 342 536 221 q 810 569 736 463 q 885 700 885 676 q 879 703 885 703 q 861 694 874 704 q 834 669 849 683 q 814 649 819 654 q 799 644 808 644 q 774 663 774 644 q 800 696 774 674 q 869 767 826 718 q 936 844 911 815 q 969 874 961 874 q 981 869 976 874 q 986 855 986 865 q 960 785 986 844 q 708 378 872 586 q 441 108 586 224 q 189 -7 296 -7 q 127 14 143 -7 q 111 84 111 35 q 170 240 111 133 q 300 449 229 346 z "},"W":{"ha":863,"x_min":-297,"x_max":1225,"o":"m 283 942 q 92 901 192 942 q -83 805 -8 861 q -206 685 -157 749 q -254 576 -254 622 q -178 493 -254 493 q 57 590 -85 493 q 240 754 199 688 q 255 765 247 765 q 263 754 263 765 q 170 627 250 701 q -16 497 90 553 q -199 440 -122 440 q -297 543 -297 440 q -247 671 -297 599 q -118 808 -197 743 q 72 917 -39 872 q 290 961 182 961 q 500 832 500 961 q 444 656 500 765 q 320 449 388 546 q 197 250 253 351 q 140 99 140 149 q 183 49 140 49 q 399 126 278 49 q 490 340 413 215 q 652 551 568 464 q 776 638 736 638 q 817 599 817 639 q 701 380 817 526 q 440 129 585 233 l 440 119 q 544 25 440 25 q 792 178 631 25 q 962 378 869 251 q 1136 661 1054 506 q 1053 611 1061 611 q 1038 627 1038 611 q 1043 647 1038 643 q 1069 665 1049 651 q 1150 729 1131 706 l 1194 783 q 1207 794 1199 794 q 1225 781 1225 792 q 1224 772 1225 775 l 1156 640 q 1015 415 1111 549 q 844 198 919 282 q 680 53 769 114 q 517 -7 590 -7 q 396 94 396 -7 l 396 99 q 167 15 261 15 q 72 90 72 15 q 131 257 72 150 q 261 462 190 364 q 391 668 332 560 q 450 838 450 776 q 283 942 450 942 m 776 575 q 748 600 776 600 q 652 526 719 600 q 522 346 585 453 q 444 158 458 239 q 674 385 572 254 q 776 575 776 517 z "},"X":{"ha":657,"x_min":-285,"x_max":1108,"o":"m 464 21 q 550 48 492 21 q 653 103 608 75 l 697 131 q 699 119 699 128 q 686 106 699 111 q 425 -22 499 -22 q 286 161 286 -22 q 328 390 286 260 q -242 -39 -169 4 q -265 -53 -256 -53 q -275 -42 -275 -53 q -258 -22 -275 -32 q 64 217 -137 53 q 204 332 104 250 q 344 446 304 414 q 372 535 353 475 q 401 628 390 594 q 424 706 411 663 q 447 825 447 788 q 409 940 447 904 q 282 976 371 976 q 95 935 193 976 q -73 835 -3 894 q -187 713 -143 776 q -232 604 -232 650 q -149 540 -232 540 q 246 796 56 540 q 259 810 253 810 q 265 793 265 810 q 224 725 265 776 q 124 618 183 674 q -17 521 64 563 q -165 479 -97 479 q -285 569 -285 479 q -235 700 -285 626 q -104 840 -185 774 q 92 953 -24 907 q 326 1000 208 1000 q 413 985 376 1000 q 467 950 450 971 q 504 875 501 913 l 506 861 q 428 514 506 767 q 746 768 668 710 q 849 847 824 826 q 911 893 875 868 q 978 939 947 918 q 1085 986 1053 986 q 1101 978 1093 986 q 1108 961 1108 969 q 1101 949 1108 953 q 973 879 1071 940 q 803 763 875 818 q 408 453 621 618 q 351 172 351 282 q 464 21 351 21 z "},"Y":{"ha":646,"x_min":-292,"x_max":792,"o":"m 499 861 q 462 701 499 788 q 372 540 425 615 q 267 392 319 464 q 140 139 140 221 q 155 98 140 114 q 196 82 169 82 q 657 442 328 82 q 731 533 706 493 l 739 544 q 758 560 749 560 q 792 539 792 556 q 788 526 792 533 l 724 424 q 607 233 714 408 q 438 -40 500 58 q 589 -22 513 -22 q 668 -65 665 -22 q 649 -104 668 -89 q 599 -129 617 -129 q 581 -125 581 -129 q 592 -115 581 -121 q 608 -106 603 -110 q 618 -99 613 -103 q 631 -81 631 -89 q 561 -61 631 -61 q 410 -83 492 -61 q -54 -614 71 -614 q -90 -569 -90 -614 q 45 -303 -90 -471 q 369 -62 181 -136 q 509 178 422 26 q 619 369 596 331 q 400 161 519 257 q 284 83 349 118 q 172 49 219 49 q 138 53 154 49 q 105 77 122 57 q 88 145 88 97 q 124 269 88 193 q 212 416 160 344 q 317 558 264 488 q 440 825 440 725 q 402 940 440 904 q 275 976 364 976 q 88 935 186 976 q -80 835 -10 894 q -194 713 -150 776 q -239 604 -239 650 q -156 540 -239 540 q 239 796 49 540 q 252 810 246 810 q 258 793 258 810 q 217 725 258 776 q 117 618 176 674 q -24 521 57 563 q -172 479 -104 479 q -292 569 -292 479 q -242 701 -292 626 q -111 843 -192 775 q 85 958 -31 911 q 319 1004 201 1004 q 406 990 369 1004 q 461 954 443 975 q 497 875 493 914 l 499 861 m -42 -522 q -21 -551 -42 -551 q 343 -107 75 -551 q 68 -310 178 -174 q -42 -522 -42 -446 z "},"Z":{"ha":879,"x_min":0,"x_max":918,"o":"m 876 -14 q 795 11 876 11 q 621 -24 714 11 q 458 -297 572 -156 q 228 -524 343 -437 q 49 -611 113 -611 q 0 -553 0 -611 q 184 -283 0 -461 q 576 -10 368 -104 q 593 110 593 57 q 504 236 593 208 q 150 50 288 50 q 74 83 74 50 q 133 163 74 117 q 287 245 192 210 q 469 281 382 281 q 513 278 488 281 q 752 567 653 408 q 851 836 851 725 q 647 990 851 990 q 392 920 526 990 q 174 760 258 850 q 89 610 89 671 q 163 529 89 529 q 322 582 225 529 q 494 701 419 635 q 579 804 569 767 q 588 819 582 819 q 594 808 594 819 q 513 677 594 758 q 321 533 432 596 q 135 471 210 471 q 42 575 42 471 q 99 711 42 633 q 244 859 156 789 q 456 978 333 929 q 697 1026 579 1026 q 918 865 918 1026 q 809 581 918 749 q 544 271 700 414 q 650 124 650 240 q 633 14 650 69 q 826 54 743 54 q 910 7 910 54 q 883 -49 910 -26 q 838 -72 856 -72 q 819 -65 819 -72 q 829 -54 819 -57 q 858 -38 839 -51 q 876 -14 876 -25 m 53 -533 q 81 -561 53 -561 q 224 -492 129 -561 q 421 -297 319 -422 q 565 -46 522 -172 q 215 -291 376 -129 q 53 -533 53 -453 m 475 243 q 410 247 453 247 q 296 222 367 247 q 178 163 225 196 q 132 108 132 131 q 186 86 132 86 q 475 243 297 86 z "},"[":{"ha":567,"x_min":60,"x_max":897,"o":"m 124 -164 l 432 -164 q 453 -176 453 -164 q 411 -208 453 -189 l 79 -208 q 60 -192 60 -208 l 517 1011 q 540 1039 529 1039 l 875 1039 q 897 1026 897 1039 q 854 993 897 1014 l 553 993 q 124 -164 496 838 z "},"\\":{"ha":343,"x_min":10,"x_max":243,"o":"m 44 965 q 144 378 47 943 q 243 -200 240 -186 q 231 -231 243 -231 q 201 -185 214 -231 q 10 994 10 982 q 17 1006 10 1006 q 44 965 33 1006 z "},"]":{"ha":506,"x_min":-103,"x_max":735,"o":"m 671 994 l 363 994 q 342 1007 342 994 q 383 1039 342 1019 l 715 1039 q 735 1022 735 1039 l 278 -181 q 254 -208 265 -208 l -81 -208 q -103 -196 -103 -208 q -60 -162 -103 -183 l 242 -162 q 671 994 299 -7 z "},"^":{"ha":472,"x_min":96,"x_max":356,"o":"m 276 161 q 108 85 121 85 q 96 91 96 85 q 189 153 96 97 q 293 208 282 208 q 327 150 304 208 q 356 79 350 92 q 344 71 351 71 q 290 139 333 71 l 276 161 z "},"_":{"ha":494,"x_min":35,"x_max":389,"o":"m 51 -17 l 378 -15 q 389 -21 389 -15 q 371 -46 389 -44 q 75 -53 232 -53 q 35 -42 35 -53 q 51 -17 35 -18 z "},"`":{"ha":528,"x_min":222,"x_max":371,"o":"m 371 328 q 349 336 365 328 l 231 411 q 222 429 222 419 q 242 449 222 449 q 256 443 250 449 l 365 353 q 371 328 385 333 z "},"a":{"ha":421,"x_min":-22,"x_max":463,"o":"m 263 165 q 254 175 254 165 l 258 185 q 283 225 283 208 q 261 246 283 246 q 130 178 213 246 q 47 58 47 111 q 76 36 47 36 q 144 60 106 36 q 209 109 182 85 q 239 133 236 133 q 253 119 253 132 q 231 83 253 114 q 210 35 210 53 q 233 21 210 21 q 314 48 256 21 q 417 103 372 75 l 461 131 q 463 119 463 128 q 450 106 463 111 q 189 -22 263 -22 q 153 14 153 -22 q 158 46 153 29 q 101 12 149 35 q 15 -11 53 -11 q -22 24 -22 -11 q 92 191 -22 106 q 283 276 206 276 q 329 238 329 276 q 301 190 329 215 q 263 165 274 165 z "},"b":{"ha":324,"x_min":-26,"x_max":601,"o":"m 369 217 q 381 221 374 221 q 388 216 388 221 q 378 203 388 211 q 218 146 315 161 q 162 24 210 78 q 57 -31 114 -31 q 10 36 10 -31 q 50 153 10 69 q -26 246 -26 178 q -1 290 -26 272 q 62 307 24 307 q 131 296 100 307 q 374 624 243 478 q 575 771 504 771 q 601 733 601 771 q 477 519 601 667 q 204 233 353 371 q 219 171 219 206 l 219 167 q 369 217 317 181 m 192 253 q 435 506 325 378 q 551 700 544 635 q 533 731 550 731 q 376 584 496 731 q 163 279 256 438 q 192 253 176 271 m 189 142 q 143 140 174 140 q 97 143 113 140 q 89 136 92 138 q 63 50 63 72 q 88 15 63 15 q 156 53 125 15 q 189 142 186 92 m 113 265 q 53 282 81 282 q 8 253 8 282 q 63 175 8 197 q 113 265 85 221 m 121 163 q 153 161 131 161 q 188 163 175 161 q 174 207 185 188 q 121 163 146 181 m 161 225 l 143 244 q 128 216 142 240 q 108 179 114 192 q 161 225 126 193 z "},"c":{"ha":314,"x_min":-19,"x_max":356,"o":"m 185 39 q 328 114 251 67 l 354 131 q 356 119 356 128 q 343 106 356 111 q 196 18 269 56 q 60 -19 122 -19 q -19 38 -19 -19 q 76 191 -19 106 q 264 276 171 276 q 303 243 303 276 q 268 194 303 224 q 207 154 219 154 q 194 165 194 154 q 200 174 194 169 q 231 199 214 182 q 249 229 249 217 q 231 249 249 249 q 117 178 192 249 q 42 65 42 108 q 94 17 42 17 q 171 33 129 17 l 185 39 z "},"d":{"ha":382,"x_min":-43,"x_max":651,"o":"m 242 131 q 232 50 232 93 q 268 7 232 7 q 301 17 278 7 q 327 28 324 28 q 331 25 331 28 q 301 -10 331 8 q 243 -28 272 -28 q 185 50 185 -28 q 186 78 185 68 q 16 -19 75 -19 q -43 21 -43 -19 q 59 170 -43 81 q 253 272 161 260 q 448 576 332 435 q 626 718 564 718 q 644 706 638 718 q 651 683 651 694 q 516 453 651 638 q 242 131 381 268 m 600 663 q 592 674 600 674 q 502 596 568 674 q 364 398 436 518 q 257 178 292 278 q 493 460 386 314 q 600 663 600 606 m 24 32 q 47 11 24 11 q 193 115 85 11 q 236 233 211 179 q 96 144 168 217 q 24 32 24 72 z "},"e":{"ha":317,"x_min":-43,"x_max":358,"o":"m 78 135 q -6 171 -6 135 q 93 273 -6 214 q 271 332 192 332 q 311 307 311 332 q 290 276 311 293 q 250 250 269 260 q 228 240 231 240 q 217 247 219 240 q 231 267 214 257 q 249 290 249 278 q 217 303 249 303 q 119 259 186 303 q 53 188 53 215 q 101 167 53 167 q 132 168 110 167 q 154 163 154 169 q 85 113 154 156 q 17 39 17 69 q 62 4 17 4 q 164 28 107 4 q 331 114 256 68 l 357 131 q 358 119 358 128 q 346 106 358 111 q 185 10 272 56 q 27 -35 97 -35 q -43 12 -43 -35 q 78 135 -43 58 z "},"f":{"ha":272,"x_min":-289,"x_max":501,"o":"m -3 36 q 85 -1 60 35 q 317 132 215 67 q 318 119 318 128 q 306 106 318 111 q 206 42 257 72 q 94 -22 154 11 q 99 -56 99 -36 q 34 -238 99 -129 q -117 -427 -31 -347 q -262 -507 -204 -507 q -289 -465 -289 -507 q -143 -142 -289 -424 q -192 -153 -174 -153 q -242 -124 -242 -153 q -181 -39 -242 -89 q -53 29 -121 11 q 249 513 103 311 q 471 715 394 715 q 501 685 501 715 q 467 575 501 639 q 383 449 433 511 q 272 322 333 388 q 160 210 210 257 q 71 128 110 164 q 31 92 32 93 q 12 60 24 81 q -3 36 0 40 m -231 -440 q -221 -456 -231 -456 q -115 -384 -182 -456 q 6 -217 -47 -312 q 60 -58 60 -121 q 58 -42 60 -47 q -90 -119 -19 -86 q -231 -440 -231 -376 m 451 650 q 436 667 451 667 q 301 512 410 665 q 64 147 193 358 q 251 335 150 224 q 451 650 451 551 m -149 -37 q -167 -50 -149 -37 q -185 -83 -185 -64 q -149 -103 -185 -103 q -121 -97 -143 -103 l -67 3 q -149 -37 -112 -10 m -67 -75 q 51 -18 -32 -61 q -14 11 33 11 l -17 11 q -43 -35 -26 -6 q -67 -75 -60 -64 z "},"g":{"ha":353,"x_min":-276,"x_max":353,"o":"m 353 278 q 317 218 353 250 q 265 186 281 186 q 249 194 249 186 l 258 207 q 293 254 293 239 q 272 274 293 274 q 133 185 222 272 q 44 56 44 97 q 65 38 44 38 q 121 56 85 38 q 183 94 157 75 l 211 114 q 226 131 215 117 q 267 168 257 168 q 289 149 289 165 q 154 -69 253 96 q 211 -65 183 -65 q 278 -100 278 -65 q 252 -149 278 -119 q 213 -179 226 -179 q 199 -169 199 -179 q 214 -152 199 -164 q 229 -124 229 -140 q 200 -101 229 -101 q 132 -108 171 -101 q 35 -273 71 -214 q -53 -406 0 -332 q -229 -546 -153 -546 q -276 -497 -276 -546 q -159 -272 -276 -411 q 101 -85 -42 -133 l 179 63 q 122 32 163 51 q 14 -6 44 -6 q -24 33 -24 -6 q 36 139 -24 72 q 178 258 96 206 q 314 310 260 310 q 340 302 331 310 q 353 278 350 294 m -229 -476 q -207 -506 -229 -506 q 79 -124 -136 -506 q -138 -289 -47 -171 q -229 -476 -229 -407 z "},"h":{"ha":436,"x_min":-50,"x_max":521,"o":"m 22 18 q 162 128 35 18 q 311 239 289 239 q 333 219 333 239 q 306 172 333 204 q 251 103 278 140 q 224 36 224 65 q 247 21 224 21 q 328 48 269 21 q 431 103 386 75 l 475 131 q 476 119 476 128 q 464 106 476 111 q 203 -22 276 -22 q 167 17 167 -22 q 186 81 167 43 q 225 143 206 118 l 243 168 q 114 62 181 121 q 13 -27 47 3 q -36 -57 -22 -57 q -50 -37 -50 -57 q 15 103 -50 -17 q 166 360 81 222 q 345 611 251 499 q 488 724 439 724 q 517 704 508 724 q 521 688 521 697 q 233 319 521 592 q 128 222 179 267 q 22 18 22 44 m 475 672 q 468 686 475 686 q 351 564 440 686 q 163 279 263 442 q 475 672 475 564 z "},"i":{"ha":254,"x_min":-14,"x_max":296,"o":"m 249 424 q 269 403 269 424 q 250 360 269 382 q 207 339 231 339 q 188 366 188 339 q 210 408 188 393 q 249 424 232 424 m 118 240 q 138 251 125 251 q 163 239 150 251 q 144 214 163 233 q 83 127 126 194 q 40 38 40 60 q 61 21 40 24 q 147 48 89 21 q 250 103 206 75 l 294 131 q 296 119 296 128 q 283 106 296 111 q 22 -22 96 -22 q -14 14 -14 -22 q 26 115 -14 50 q 118 240 65 179 z "},"j":{"ha":233,"x_min":-411,"x_max":300,"o":"m 4 89 q -11 86 -4 86 q -19 93 -18 86 q 113 185 79 154 q 158 228 146 215 q 181 250 171 240 q 206 268 197 268 q 225 253 225 265 q 210 222 225 247 q 127 71 194 196 q 25 -115 60 -54 q 78 -111 53 -111 q 144 -146 144 -111 q 119 -195 144 -165 q 79 -225 93 -225 q 65 -215 65 -225 q 81 -198 65 -210 q 96 -169 96 -186 q 67 -147 96 -147 q 4 -154 39 -147 q -364 -608 -249 -608 q -411 -560 -411 -608 q -292 -326 -411 -472 q -29 -129 -172 -179 q 132 182 57 29 q 4 89 119 167 m -342 -568 q -51 -171 -271 -568 q -272 -344 -179 -219 q -364 -539 -364 -468 q -342 -568 -364 -568 m 279 421 q 300 400 300 421 q 281 358 300 379 q 238 336 261 336 q 218 363 218 336 q 240 406 218 390 q 279 421 263 421 z "},"k":{"ha":404,"x_min":-67,"x_max":524,"o":"m 331 64 l 444 131 q 446 119 446 128 q 433 106 446 111 q 164 -21 244 -21 q 94 71 94 -21 q 107 140 94 108 q 147 171 119 171 q 297 200 243 171 q 350 260 350 229 q 306 292 350 292 q 51 111 206 292 q -19 -25 4 22 q -39 -37 -26 -37 q -67 -18 -67 -37 q -61 1 -67 -10 l 63 218 q 304 593 181 426 q 490 760 428 760 q 519 740 511 760 q 524 724 524 733 q 438 567 524 674 q 276 386 351 460 q 124 243 201 313 l 85 174 q 346 326 235 326 q 410 285 410 326 q 338 193 410 239 q 160 147 267 147 q 144 97 144 125 q 206 19 144 19 q 326 61 250 19 q 331 64 329 64 m 478 708 q 471 722 478 722 q 153 297 394 722 q 376 527 275 410 q 478 708 478 644 z "},"l":{"ha":268,"x_min":-25,"x_max":521,"o":"m 38 -22 q -25 46 -25 -22 q 73 305 -25 136 q 297 608 171 474 q 494 742 422 742 q 521 704 521 742 q 423 514 521 646 q 213 267 325 382 q 39 108 100 151 q 36 78 36 86 q 38 61 36 71 q 49 36 39 51 q 81 21 58 21 q 163 48 104 21 q 265 103 221 75 l 310 131 q 311 119 311 128 q 299 106 311 111 q 38 -22 111 -22 m 471 671 q 453 701 469 701 q 322 604 410 701 q 153 372 235 507 q 46 139 71 236 q 196 278 104 186 q 376 488 288 369 q 471 671 465 606 z "},"m":{"ha":678,"x_min":-8,"x_max":718,"o":"m 44 115 l 10 93 q -1 90 4 90 q -6 96 -6 90 q -1 106 -6 101 q 69 156 10 111 q 145 201 128 201 q 163 181 163 201 q 120 99 163 161 q 78 31 78 36 q 81 26 78 26 q 225 136 93 26 q 368 246 357 246 q 389 226 389 246 q 341 141 389 214 q 278 42 293 68 q 284 40 279 40 q 340 77 289 40 q 447 156 392 114 q 513 203 503 197 q 531 210 522 210 q 547 190 547 208 q 499 117 547 183 q 451 33 451 51 q 481 21 451 21 q 569 48 511 21 q 672 103 628 75 l 717 131 q 718 119 718 128 q 706 106 718 111 q 444 -22 518 -22 q 401 11 401 -22 q 420 72 401 43 q 453 122 439 101 q 467 143 467 142 q 252 -6 281 7 q 211 -19 224 -19 q 199 8 199 -19 l 299 164 q 190 88 282 157 q 47 -28 99 18 q 10 -51 28 -51 q -8 -28 -8 -47 q 42 54 -8 -22 q 93 137 93 131 q 90 143 93 143 q 78 138 86 143 q 58 125 69 133 q 44 115 47 117 z "},"n":{"ha":496,"x_min":-4,"x_max":538,"o":"m 0 106 q 69 154 26 121 q 182 238 175 238 q 203 219 203 238 q 181 164 203 201 q 133 86 160 126 q 101 38 106 46 q 108 36 103 36 q 163 73 113 36 q 267 151 213 110 q 331 198 321 192 q 349 204 340 204 q 365 185 365 203 q 318 115 365 178 q 271 33 271 51 q 301 21 271 21 q 389 48 331 21 q 492 103 447 75 l 536 131 q 538 119 538 128 q 525 106 538 111 q 264 -22 338 -22 q 221 11 221 -22 q 240 72 221 43 q 272 122 258 101 q 286 143 286 142 q 135 33 222 97 q 36 -31 47 -31 q 28 -11 28 -31 q 83 90 28 8 q 138 178 138 172 q 135 183 138 183 l 121 176 l 51 121 q 25 103 44 115 q 1 90 6 90 q -4 97 -4 90 q 0 106 -4 103 z "},"o":{"ha":288,"x_min":-7,"x_max":315,"o":"m 306 97 q 206 71 263 71 l 189 71 q 109 1 151 28 q 36 -26 67 -26 q -7 29 -7 -26 q 53 158 -7 85 q 47 196 47 174 q 90 280 47 244 q 172 315 132 315 q 257 224 257 315 q 204 90 257 163 l 221 90 q 297 111 265 90 q 308 115 301 115 q 315 110 315 115 q 306 97 315 106 m 172 257 q 183 260 179 260 q 188 253 188 260 q 172 236 188 247 q 89 158 117 193 q 182 94 119 110 q 236 214 236 158 q 215 263 236 246 q 162 279 194 279 q 101 260 129 279 q 74 220 74 242 q 78 186 74 199 q 172 257 121 231 m 69 128 q 47 44 47 90 q 69 19 47 19 q 163 75 107 19 q 69 128 100 86 z "},"p":{"ha":390,"x_min":-415,"x_max":386,"o":"m 165 222 q 322 274 257 274 q 386 219 386 274 q 294 66 386 146 q 110 -14 201 -14 q 89 -6 101 -14 q 76 22 76 3 q 108 68 76 42 q 145 94 139 94 q 158 92 151 94 q 170 85 164 90 q 176 75 176 79 q 169 64 176 71 q 140 38 156 54 q 124 16 124 22 q 138 10 124 10 q 196 30 151 10 q 285 97 240 50 q 329 199 329 143 q 289 233 329 233 q 144 186 228 233 q -6 -69 25 -14 q -221 -416 -126 -292 q -390 -540 -315 -540 q -415 -510 -415 -540 q -253 -173 -415 -387 q 90 174 -92 42 q 260 464 231 406 q 208 421 244 446 l 129 367 q 114 364 121 364 q 106 371 107 364 q 299 521 236 453 q 315 542 314 538 q 335 544 319 546 q 350 531 350 543 q 330 492 350 525 q 165 222 310 460 m -46 -58 l 67 133 q -235 -190 -93 13 q -376 -487 -376 -392 q -368 -500 -376 -500 q -46 -58 -281 -500 z "},"q":{"ha":381,"x_min":-146,"x_max":399,"o":"m 369 17 q 374 19 372 19 q 376 15 376 19 q 354 -26 376 -7 q 190 -143 282 -86 q 197 -181 197 -161 q 145 -340 197 -246 q 27 -500 93 -433 q -76 -567 -39 -567 q -107 -529 -107 -567 q 7 -236 -107 -422 q -102 -262 -58 -262 q -146 -232 -146 -262 q -77 -137 -146 -187 q 86 -87 -8 -87 q 107 -89 100 -87 q 139 -42 118 -71 q 208 61 176 11 q 29 -11 117 -11 q -29 31 -29 -11 q 31 144 -29 75 q 185 266 92 213 q 361 319 279 319 q 399 288 399 319 q 355 228 399 264 q 294 192 311 192 q 278 200 278 192 q 311 229 278 206 q 344 270 344 253 q 317 288 344 288 q 149 199 258 288 q 40 60 40 110 q 80 32 40 32 q 167 58 119 32 q 244 110 214 83 l 275 136 q 292 143 283 143 q 308 128 308 143 q 297 104 308 119 q 149 -99 233 21 q 181 -124 168 -107 q 369 17 282 -62 m 75 -208 q -58 -494 -58 -415 q -42 -517 -58 -517 q 34 -460 -17 -517 q 127 -324 85 -404 q 169 -189 169 -244 q 165 -158 169 -172 q 75 -208 125 -182 m 92 -110 l 78 -110 q -12 -129 35 -110 q -86 -193 -58 -149 q -53 -219 -86 -219 q 31 -200 -19 -219 q 92 -110 36 -190 m 133 -121 l 101 -168 l 156 -139 q 133 -121 146 -128 z "},"r":{"ha":340,"x_min":-6,"x_max":382,"o":"m 10 93 q -1 90 4 90 q -6 96 -6 90 q -1 106 -6 101 q 124 210 56 138 q 61 265 61 229 q 108 344 61 300 q 197 388 156 388 q 225 354 225 388 q 174 244 225 303 q 240 213 240 233 q 216 170 240 185 q 160 118 192 156 q 128 43 128 81 q 133 28 128 35 q 157 21 139 21 q 233 48 175 21 q 336 103 292 75 l 381 131 q 382 119 382 128 q 369 106 382 111 q 108 -22 182 -22 q 72 14 72 -22 q 92 75 72 43 q 137 128 113 107 q 181 167 161 149 q 201 192 201 186 q 184 199 201 197 q 139 206 167 200 q 10 93 63 124 m 96 286 q 157 247 96 258 q 193 324 193 292 q 172 357 193 357 q 124 333 151 357 q 96 286 96 308 z "},"s":{"ha":274,"x_min":-29,"x_max":218,"o":"m 85 151 q 0 90 18 90 q -6 96 -6 90 q -1 106 -6 101 q 76 164 32 124 q 69 200 69 181 q 118 290 69 247 q 200 333 167 333 q 218 316 218 333 q 163 232 218 299 q 150 218 157 225 q 135 202 143 211 q 124 189 128 193 q 149 165 131 182 q 178 136 167 147 q 208 60 208 106 q 151 -20 208 14 q 33 -54 94 -54 q -29 -17 -29 -54 q 28 50 -29 19 q 147 92 85 81 q 116 121 139 103 q 85 151 93 139 m 157 75 q 68 49 110 69 q 26 2 26 29 q 65 -25 26 -25 q 133 -7 103 -25 q 163 33 163 11 q 157 75 163 56 m 114 200 l 150 239 q 186 291 186 282 q 178 300 186 300 q 129 277 154 300 q 104 233 104 254 q 114 200 104 211 z "},"t":{"ha":276,"x_min":-31,"x_max":600,"o":"m 31 458 q 217 460 125 458 q 419 650 365 650 q 439 629 439 650 q 342 463 439 563 l 447 464 q 576 468 553 468 q 600 463 600 468 q 564 435 600 436 l 303 424 q 135 289 235 360 q 29 53 29 115 q 70 21 29 21 q 200 65 111 21 l 313 131 q 314 119 314 128 q 301 106 314 111 q 204 44 257 75 q 32 -12 92 -12 q -11 -1 4 -12 q -28 21 -26 10 l -31 32 q 33 191 -31 79 q 185 419 97 303 q 58 417 118 417 q -1 431 -1 417 q 31 458 -1 457 m 396 600 q 390 607 396 607 q 249 461 358 607 l 318 461 q 396 600 396 546 m 279 422 q 219 421 235 422 q 185 368 207 403 q 154 321 163 333 q 279 422 226 374 z "},"u":{"ha":442,"x_min":-12,"x_max":483,"o":"m 174 14 q 197 65 174 29 q 227 111 219 101 q 250 142 235 121 q 22 -8 85 -8 q -12 21 -12 -8 q 128 256 -12 63 q 146 267 135 267 q 178 253 178 257 q 169 236 178 249 q 50 55 50 75 q 64 35 50 35 q 202 124 103 35 q 346 272 301 214 q 364 282 351 282 q 392 271 392 276 q 350 213 376 249 q 307 153 324 176 q 272 104 290 131 q 231 35 238 57 q 253 21 231 21 q 335 48 276 21 q 438 103 393 75 l 482 131 q 483 119 483 128 q 471 106 483 111 q 210 -22 283 -22 q 174 14 174 -22 z "},"v":{"ha":296,"x_min":-15,"x_max":465,"o":"m 22 225 l -12 215 q -15 219 -15 215 q 16 250 -15 232 q 67 268 47 268 q 86 185 86 268 l 78 50 q 171 152 79 51 q 330 307 263 253 q 444 361 397 361 q 465 347 465 360 q 440 313 465 333 q 402 292 415 292 q 386 297 389 292 q 373 303 383 303 q 340 288 363 303 q 283 240 317 274 q 218 174 249 207 q 134 84 188 142 q 40 -15 81 26 q 22 -25 29 -25 q 14 -19 14 -25 q 35 192 35 88 l 35 218 q 22 225 31 225 z "},"w":{"ha":468,"x_min":-33,"x_max":563,"o":"m 36 239 l -7 221 q -10 225 -10 221 q 22 256 -10 238 q 73 274 53 274 q 93 246 93 274 q 63 82 93 199 q 65 81 64 81 q 226 219 186 179 q 281 260 267 260 q 296 244 296 260 q 264 137 296 229 q 232 32 232 44 l 253 50 q 374 168 315 107 q 343 203 343 172 q 399 305 343 253 q 492 357 456 357 q 510 339 510 357 q 419 192 510 294 l 429 192 q 535 244 458 192 l 560 263 q 563 256 563 263 q 556 243 563 249 q 397 167 469 174 q 260 35 332 96 q 172 -25 188 -25 q 156 -11 156 -25 q 161 6 156 -6 q 190 93 167 18 q 213 172 214 168 q 211 175 213 175 q 200 168 207 175 l 21 19 q -21 -8 -8 -8 q -33 1 -33 -4 q -22 27 -33 6 q 15 124 -11 49 q 40 219 40 200 q 36 239 40 239 m 463 307 q 449 315 463 315 q 407 285 435 315 q 379 219 379 256 q 400 196 379 201 q 463 307 463 271 z "},"x":{"ha":347,"x_min":-142,"x_max":390,"o":"m 331 304 q 346 298 338 304 q 354 284 354 292 q 342 269 354 276 q 124 115 236 200 l 124 94 q 156 21 124 21 q 242 48 183 21 q 344 103 300 75 l 389 131 q 390 119 390 128 q 378 106 390 111 q 117 -22 190 -22 q 74 50 74 -22 q 75 78 74 68 q -74 -41 -22 3 q -134 -85 -126 -85 q -142 -78 -142 -85 q -132 -61 -142 -72 q 78 113 -29 24 q 92 226 92 213 q 81 239 92 239 q 56 228 71 239 q 49 232 49 228 q 82 267 49 242 q 122 289 106 289 q 133 284 125 289 q 142 267 142 279 q 139 239 142 256 q 126 151 136 221 q 331 304 317 304 z "},"y":{"ha":346,"x_min":-317,"x_max":354,"o":"m 354 260 q 323 210 354 258 q 274 138 292 163 q 129 -96 257 113 q 165 -94 140 -94 q 232 -129 232 -94 q 207 -175 232 -149 q 168 -201 182 -201 q 154 -192 154 -201 q 169 -174 154 -186 q 185 -147 185 -162 q 158 -131 185 -131 q 106 -135 131 -131 q -112 -458 -21 -342 q -269 -575 -204 -575 q -317 -526 -317 -575 q -191 -295 -317 -443 q 82 -106 -65 -147 l 215 125 q 95 32 157 72 q 1 -8 33 -8 q -31 21 -31 -8 q 115 267 -31 65 q 133 278 122 278 q 165 264 165 268 q 157 247 165 260 q 32 51 32 78 q 51 35 32 35 q 128 79 69 35 q 229 169 188 124 l 307 264 q 328 274 315 274 q 354 260 354 269 m -182 -324 q -202 -352 -182 -324 q -246 -428 -222 -379 q -269 -506 -269 -478 q -247 -535 -269 -535 q 57 -146 -178 -535 q -77 -219 -12 -168 q -182 -324 -142 -269 z "},"z":{"ha":336,"x_min":-210,"x_max":386,"o":"m 233 256 q 274 226 274 256 q 208 138 274 197 q 119 65 143 79 q 166 69 132 69 q 233 47 200 69 q 265 -6 265 24 q 260 -57 265 -36 q 319 -51 286 -51 q 386 -86 386 -51 q 360 -135 386 -106 q 321 -165 335 -165 q 307 -156 307 -165 q 322 -138 307 -150 q 338 -110 338 -126 q 311 -87 338 -87 q 250 -94 285 -87 q 58 -409 201 -239 q -162 -579 -86 -579 q -210 -531 -210 -579 q -77 -287 -210 -444 q 204 -74 56 -131 q 217 -13 217 -39 q 194 28 217 13 q 144 43 171 43 q 42 11 81 43 q 19 0 28 0 q 10 6 10 0 q 19 20 10 13 q 58 48 29 28 q 112 88 86 68 q 167 135 138 108 q 233 228 233 193 q 180 207 224 218 q 97 196 136 196 q 18 233 18 196 q 39 264 18 247 q 79 290 60 281 q 101 300 99 300 q 111 293 110 300 q 97 274 114 285 q 81 250 81 263 q 113 238 81 238 q 181 247 144 238 q 233 256 218 256 m 13 -229 q -30 -271 13 -229 q -117 -390 -72 -312 q -162 -503 -162 -468 q -140 -539 -162 -539 q 28 -391 -85 -539 q 192 -111 140 -243 q 13 -229 99 -146 z "},"{":{"ha":433,"x_min":54,"x_max":701,"o":"m 224 461 l 219 471 q 232 479 219 475 q 294 533 258 486 q 348 674 329 581 q 385 858 367 767 q 442 994 404 950 q 542 1039 479 1039 q 692 1003 604 1039 q 701 977 701 983 q 694 971 701 971 q 569 1000 628 1000 q 475 958 510 1000 q 424 822 440 915 q 391 638 407 729 q 347 513 375 546 q 264 457 319 481 q 290 362 290 404 q 245 239 290 319 q 155 76 200 158 q 110 -61 110 -7 q 264 -212 110 -167 q 267 -216 267 -212 q 257 -227 267 -219 q 240 -235 247 -235 q 54 -67 54 -179 q 143 157 54 3 q 236 376 232 311 q 224 461 236 439 z "},"|":{"ha":433,"x_min":138,"x_max":386,"o":"m 138 -197 q 244 384 139 -186 q 351 963 349 954 q 355 978 353 972 q 360 989 357 983 q 376 1003 367 1003 q 386 997 386 1003 q 174 -183 386 986 q 161 -212 171 -196 q 146 -229 151 -229 q 138 -197 138 -229 z "},"}":{"ha":379,"x_min":-128,"x_max":519,"o":"m 350 344 l 354 335 q 342 326 354 331 q 280 272 315 319 q 226 132 244 225 q 188 -53 207 39 q 132 -189 169 -144 q 32 -233 94 -233 q -118 -197 -31 -233 q -128 -172 -128 -178 q -121 -165 -128 -165 q 5 -194 -54 -194 q 99 -152 64 -194 q 150 -17 133 -110 q 183 168 167 76 q 226 292 199 260 q 310 349 254 325 q 283 444 283 401 q 328 567 283 486 q 419 730 374 647 q 464 867 464 813 q 310 1018 464 972 q 307 1022 307 1018 q 317 1033 307 1025 q 333 1040 326 1040 q 519 872 519 985 q 431 649 519 803 q 338 429 342 494 q 350 344 338 367 z "},"~":{"ha":604,"x_min":114,"x_max":496,"o":"m 496 143 q 464 107 496 122 q 395 92 432 92 q 294 117 358 92 q 205 143 231 143 q 151 130 179 143 q 117 117 124 117 l 114 118 q 128 137 114 124 q 172 163 143 150 q 232 175 200 175 q 332 147 264 175 q 422 118 400 118 q 458 126 443 118 q 482 140 474 133 q 493 147 490 147 q 496 143 496 147 z "},"":{"ha":471,"x_min":-139,"x_max":381,"o":"m 28 -189 q -52 -334 28 -189 q -136 -485 -133 -479 q -139 -494 -139 -490 q -132 -499 -139 -499 q -73 -476 -81 -482 q -60 -462 -65 -469 q 31 -283 -62 -461 q 314 265 314 256 q 303 274 314 274 q 256 228 292 274 q 28 -189 190 101 m 381 375 q 367 346 381 360 q 338 332 354 332 q 315 339 322 332 q 306 363 307 346 q 321 390 306 379 q 350 401 336 401 q 381 375 381 401 z "},"":{"ha":397,"x_min":-100,"x_max":326,"o":"m 326 701 l 239 546 q 269 513 269 542 q 235 464 269 493 q 174 424 186 424 q 161 435 161 424 q 167 443 161 439 q 198 469 181 451 q 215 499 215 486 q 197 518 215 518 q 83 448 158 518 q 8 335 8 378 q 61 286 8 286 q 138 303 96 286 l 151 308 q 294 383 218 336 l 321 400 q 322 389 322 397 q 310 375 322 381 q 169 290 236 325 q 44 250 103 256 q -43 97 -29 124 q -87 49 -69 49 q -100 63 -100 49 q -94 82 -100 71 q 6 251 -79 101 q -53 307 -53 257 q 30 449 -53 369 q 201 543 113 529 q 263 649 246 621 q 282 681 281 678 q 312 708 297 708 q 326 701 326 708 z "},"":{"ha":1040,"x_min":-381,"x_max":1140,"o":"m 1129 829 l 1079 832 l 1063 832 q 958 698 1038 760 q 796 636 879 636 q 750 672 750 636 q 834 791 750 725 q 1038 868 918 857 l 1038 871 q 917 943 1038 943 q 665 821 768 943 q 576 697 613 758 q 490 540 539 636 l 578 540 q 644 533 644 540 q 630 515 644 526 q 596 506 615 504 q 474 507 576 507 l 449 458 l 538 458 q 604 451 604 458 q 590 433 604 444 q 556 424 575 422 q 432 425 536 425 q 274 150 344 250 q 377 148 324 150 q 540 143 431 146 q 670 139 649 140 q 692 132 692 138 q 625 88 692 92 q 233 96 443 93 q -303 -167 21 -167 q -381 -111 -381 -167 q -344 -35 -381 -76 q -240 46 -308 6 q -53 115 -171 86 q 210 149 65 143 q 365 425 272 242 q 210 413 294 424 q 203 417 203 413 l 222 440 q 381 456 249 451 q 394 483 386 465 q 407 507 403 500 q 250 494 335 506 q 243 499 243 494 l 263 522 q 422 538 289 533 q 518 703 474 636 q 625 833 563 769 q 933 964 749 964 q 1069 875 1069 964 l 1069 869 l 1078 869 q 1133 864 1107 869 q 1140 842 1142 856 q 1129 829 1139 829 m -281 -140 q 171 94 -14 -140 q -36 69 64 93 q -201 14 -136 46 q -306 -51 -267 -18 q -346 -108 -346 -85 q -281 -140 -346 -140 m 819 658 q 935 714 868 658 q 1028 829 1003 769 q 859 767 926 817 q 792 681 792 718 q 819 658 792 658 z "},"":{"ha":650,"x_min":49,"x_max":553,"o":"m 364 246 q 270 224 319 224 q 178 251 221 224 q 60 169 90 169 q 49 181 49 169 q 62 201 49 192 q 150 274 75 211 q 114 364 114 313 q 140 458 114 415 q 208 529 165 501 l 156 624 q 164 631 156 631 q 197 606 183 631 q 233 543 211 581 q 325 565 278 565 q 446 524 401 565 l 503 571 q 537 588 521 588 q 553 579 553 588 q 547 571 553 576 l 464 501 q 486 428 486 469 q 461 340 486 386 q 393 264 436 294 q 444 182 413 231 q 450 163 450 171 q 438 149 450 149 q 364 246 415 149 m 314 533 q 284 533 314 533 q 211 480 254 533 q 168 372 168 426 q 197 285 168 317 q 274 254 226 254 q 385 309 340 254 q 429 419 429 364 q 401 503 429 474 q 314 533 374 533 z "},"":{"ha":714,"x_min":-147,"x_max":735,"o":"m 224 342 q 382 357 250 353 q 450 478 410 406 q 563 669 532 622 q 344 461 463 557 q 227 383 292 418 q 115 349 163 349 q 81 353 97 349 q 48 377 65 357 q 31 445 31 397 q 57 555 31 493 q 122 667 83 617 q 197 768 160 718 q 289 977 289 888 q 251 1103 289 1067 q 129 1139 213 1139 q 117 1154 117 1147 q 167 1167 117 1167 q 255 1152 218 1167 q 308 1117 292 1138 q 346 1039 343 1075 l 347 1024 q 320 878 347 950 q 254 750 293 806 q 176 644 215 694 q 83 439 83 522 q 98 398 83 414 q 139 382 113 382 q 600 742 271 382 q 675 833 649 793 l 682 844 q 701 860 692 860 q 735 839 735 856 q 683 751 735 832 q 556 544 632 669 q 443 358 481 418 q 533 359 461 360 q 606 352 606 358 q 591 335 606 346 q 557 325 576 324 q 428 326 538 326 l 424 326 q 392 276 401 293 q 490 277 414 278 q 565 270 565 276 q 551 253 565 264 q 517 243 536 242 q 371 244 497 244 l 313 153 q 451 164 376 164 q 529 121 526 164 q 510 82 529 97 q 460 57 478 57 q 442 61 442 57 q 453 71 442 65 q 469 80 464 76 q 479 88 474 83 q 492 106 492 97 q 426 125 492 125 q 285 111 361 125 q -111 -314 0 -314 q -147 -269 -147 -314 q -123 -166 -147 -224 q -53 -48 -99 -108 q 74 65 -7 13 q 254 142 154 117 q 317 243 296 206 q 171 232 256 242 q 164 236 164 232 l 183 260 q 335 275 208 269 q 365 326 354 304 q 211 314 294 325 q 204 318 204 314 l 224 342 m -78 -251 q 226 97 6 -251 q -14 -47 71 51 q -99 -222 -99 -144 q -78 -251 -99 -251 z "},"":{"ha":433,"x_min":138,"x_max":386,"o":"m 146 -229 q 138 -203 138 -229 q 236 354 138 -178 q 244 365 236 365 l 269 354 q 225 106 256 281 q 174 -183 194 -69 q 161 -212 171 -196 q 146 -229 151 -229 m 257 458 q 354 975 351 967 q 360 989 357 983 q 376 1003 367 1003 q 386 997 386 1003 q 290 458 386 988 q 282 447 290 447 l 257 458 z "},"":{"ha":342,"x_min":-29,"x_max":322,"o":"m 117 120 q 107 128 117 120 q 83 154 96 136 q 69 206 69 172 q 103 275 69 239 q 174 326 136 311 q 223 416 175 374 q 304 458 271 458 q 322 441 322 458 q 267 357 322 424 q 254 343 261 350 q 240 327 247 336 q 228 314 232 318 q 253 290 235 307 q 282 261 271 272 q 313 192 313 231 q 282 126 313 154 q 207 82 251 97 q 208 67 208 78 q 151 -20 208 14 q 33 -54 94 -54 q -29 -17 -29 -54 q 28 50 -29 19 q 147 92 85 81 q 117 120 139 104 m 176 300 q 128 276 153 299 q 104 230 104 254 q 147 167 104 206 q 200 103 189 128 q 247 125 228 108 q 267 167 267 142 q 255 211 267 192 q 228 240 243 231 q 176 300 186 267 m 65 -25 q 84 -25 65 -25 q 133 -7 103 -25 q 163 33 163 11 q 157 75 163 56 q 68 49 110 69 q 26 2 26 29 q 65 -25 26 -25 m 218 325 q 290 419 290 397 q 274 425 290 425 q 233 402 258 425 q 208 359 208 379 q 218 325 208 339 z "},"":{"ha":547,"x_min":194,"x_max":422,"o":"m 256 424 q 276 403 276 424 q 257 360 276 382 q 214 339 238 339 q 194 366 194 339 q 217 408 194 393 q 256 424 239 424 m 401 410 q 422 389 422 410 q 403 347 422 368 q 360 325 383 325 q 340 352 340 325 q 363 394 340 379 q 401 410 385 410 z "},"":{"ha":850,"x_min":68,"x_max":807,"o":"m 501 497 q 713 431 619 497 q 807 244 807 365 q 678 17 807 122 q 385 -87 550 -87 q 144 -25 221 -87 q 68 136 68 38 q 192 383 68 269 q 501 497 315 497 m 496 469 q 217 367 328 469 q 106 142 106 264 q 174 -2 106 54 q 391 -58 243 -58 q 654 35 539 -58 q 769 239 769 129 q 688 407 769 349 q 496 469 607 465 m 617 201 q 460 114 522 140 q 357 88 397 88 q 304 136 304 88 q 379 249 304 179 q 493 319 454 319 q 511 300 511 319 q 494 270 511 288 q 463 244 476 253 q 457 236 457 240 q 469 225 457 225 q 524 260 482 225 q 565 314 565 294 q 526 347 565 347 q 338 262 433 347 q 243 108 243 176 q 322 51 243 51 q 460 89 385 51 q 586 164 519 121 l 606 176 q 618 194 618 183 l 617 201 z "},"":{"ha":481,"x_min":-17,"x_max":496,"o":"m 296 649 q 288 658 288 649 l 292 668 q 317 710 317 690 q 294 729 317 729 q 163 662 246 729 q 81 542 81 594 q 110 519 81 519 q 177 544 139 519 q 242 592 215 568 q 272 617 269 617 q 286 603 286 615 q 265 567 286 597 q 243 518 243 536 q 266 504 243 504 q 347 531 289 504 q 450 586 406 558 l 494 614 q 496 603 496 611 q 483 589 496 594 q 222 461 296 461 q 186 497 186 461 q 192 529 186 513 q 134 495 182 518 q 49 472 86 472 q 11 507 11 472 q 125 674 11 589 q 317 760 239 760 q 363 721 363 760 q 335 674 363 699 q 296 649 307 649 m 0 388 l 326 389 q 338 383 338 389 q 319 358 338 360 q 24 351 181 351 q -17 363 -17 351 q 0 388 -17 386 z "},"":{"ha":551,"x_min":89,"x_max":488,"o":"m 99 167 l 329 278 q 332 258 332 267 q 318 243 332 250 l 154 147 l 246 50 q 257 33 257 39 q 236 18 257 24 l 93 143 q 89 154 89 147 q 99 167 89 161 m 254 153 l 485 250 q 488 231 488 239 q 474 215 488 222 l 310 133 l 401 36 q 413 19 413 25 q 392 4 413 10 l 249 129 q 244 140 244 133 q 254 153 244 147 z "},"":{"ha":494,"x_min":-32,"x_max":393,"o":"m 393 438 l 332 264 q 321 254 329 254 q 305 262 313 254 q 297 279 297 269 q 336 404 321 361 q 90 399 194 399 q -24 401 -15 399 q -32 413 -32 404 q -11 442 -32 440 l 381 442 q 388 443 383 443 q 393 438 393 443 z "},"":{"ha":850,"x_min":68,"x_max":807,"o":"m 240 222 q 328 310 240 256 q 494 365 417 365 q 571 325 571 365 q 524 244 571 290 q 413 169 476 199 l 497 328 q 481 336 497 336 q 460 322 465 336 l 461 322 l 368 154 q 331 147 347 147 q 314 135 314 146 q 331 125 314 125 q 344 127 336 125 q 354 129 351 129 l 303 35 q 314 25 303 25 q 331 31 321 25 q 340 40 340 36 l 394 139 l 399 140 q 474 112 444 140 q 511 56 504 83 l 519 28 q 533 10 524 10 q 542 24 542 10 q 515 112 540 72 q 449 161 489 151 q 563 247 517 197 q 608 331 608 297 q 512 396 608 396 q 310 323 415 396 q 206 204 206 250 q 245 175 206 175 q 338 206 285 175 q 403 254 392 238 q 415 275 415 271 q 406 286 415 286 l 393 279 q 326 228 363 247 q 265 208 289 208 q 240 222 240 208 m 501 497 q 713 431 619 497 q 807 244 807 365 q 678 17 807 122 q 385 -87 550 -87 q 144 -25 221 -87 q 68 136 68 38 q 192 383 68 269 q 501 497 315 497 m 496 469 q 217 367 328 469 q 106 142 106 264 q 174 -2 106 54 q 391 -58 243 -58 q 654 35 539 -58 q 769 238 769 129 q 687 408 769 347 q 496 469 604 469 z "},"":{"ha":522,"x_min":133,"x_max":417,"o":"m 149 376 l 407 374 q 417 368 417 374 q 401 346 417 347 q 169 342 315 342 q 133 354 133 342 q 149 376 133 375 z "},"":{"ha":364,"x_min":94,"x_max":306,"o":"m 175 692 q 155 692 175 692 q 115 713 135 692 q 94 769 94 735 q 132 856 94 804 q 228 907 169 907 q 284 883 263 907 q 306 818 306 858 q 260 735 306 778 q 175 692 215 692 m 271 817 q 213 872 271 872 q 155 839 181 872 q 129 780 129 806 q 143 739 129 754 q 186 724 157 724 q 243 753 215 724 q 271 817 271 783 z "},"":{"ha":494,"x_min":-86,"x_max":406,"o":"m -65 260 l 326 263 q 339 256 339 263 q 318 225 339 226 q 41 217 151 217 q -78 219 -69 217 q -86 231 -86 222 q -65 260 -86 258 m 207 440 l 158 300 q 147 290 156 290 q 131 298 139 290 q 124 315 124 306 q 138 364 131 339 q 161 439 149 404 l 29 439 q -11 442 -3 439 q -19 453 -19 444 q 1 482 -19 481 l 176 482 q 195 533 185 507 q 217 594 206 560 q 240 628 229 628 q 258 619 250 628 q 265 601 265 611 l 222 483 l 397 483 q 406 478 406 483 q 385 447 406 449 q 207 440 314 443 z "},"":{"ha":515,"x_min":-57,"x_max":510,"o":"m 365 786 q 303 731 365 761 q 186 701 242 701 q 131 735 131 701 q 222 844 131 783 q 415 906 313 906 q 482 889 454 906 q 510 841 510 872 q 492 777 510 810 q 453 720 474 744 q 390 663 432 696 q 327 615 349 631 q 260 571 306 600 q 11 372 11 413 q 15 365 11 365 q 35 369 18 365 q 78 377 51 372 q 136 386 106 382 q 260 399 213 399 q 335 388 307 399 q 364 363 364 378 q 354 347 364 356 q 339 339 344 339 l 324 343 q 208 358 278 358 q 0 338 89 358 l -31 331 q -43 328 -42 328 q -57 342 -57 328 q 7 423 -57 367 q 133 524 71 479 l 197 568 q 463 835 463 738 q 397 888 463 888 q 256 837 332 888 q 179 753 179 786 q 214 733 179 733 q 349 793 296 733 q 359 797 353 797 q 365 786 365 797 z "},"":{"ha":492,"x_min":-29,"x_max":485,"o":"m 485 840 q 267 674 485 750 q 258 668 258 671 q 265 665 258 665 q 281 664 272 665 q 314 656 290 663 q 356 638 338 649 q 388 606 374 628 q 403 554 403 583 q 301 384 403 453 q 94 315 199 315 q -11 353 11 315 q -29 403 -29 382 q 11 483 -25 451 q 114 528 65 528 q 126 522 126 528 q 119 510 126 517 q 38 467 68 499 q 7 402 7 435 q 32 349 7 369 q 106 329 57 329 q 273 403 197 329 q 349 550 349 476 q 315 619 349 593 q 214 646 282 646 l 186 646 q 181 650 181 646 l 189 669 l 197 674 q 279 698 236 683 q 376 763 322 713 q 431 847 431 813 q 356 888 431 888 q 226 854 282 888 q 171 785 171 821 q 199 761 171 761 q 304 797 246 761 l 306 797 q 310 790 310 797 q 264 753 310 771 q 183 736 218 736 q 126 771 126 736 q 203 860 126 817 q 371 904 281 904 q 456 885 428 904 q 485 840 485 865 z "},"":{"ha":528,"x_min":222,"x_max":378,"o":"m 229 328 q 222 336 222 331 q 235 353 224 342 l 344 443 q 358 449 350 449 q 378 429 378 449 q 369 411 378 419 l 251 336 q 229 328 235 328 z "},"":{"ha":442,"x_min":-144,"x_max":483,"o":"m 174 14 q 197 65 174 29 q 227 111 219 101 q 250 142 235 121 q 22 -8 85 -8 q 8 -7 13 -8 q -75 -137 -68 -124 q -99 -163 -82 -151 q -131 -175 -117 -175 q -144 -171 -144 -175 q -126 -139 -144 -167 q -3 54 -53 -29 q 128 256 21 106 q 146 267 135 267 q 178 253 178 257 q 169 236 178 249 q 50 55 50 75 q 64 35 50 35 q 202 124 103 35 q 346 272 301 214 q 364 282 351 282 q 392 271 392 276 q 350 213 376 249 q 307 153 324 176 q 272 104 290 131 q 231 35 238 57 q 253 21 231 21 q 335 48 276 21 q 438 103 393 75 l 482 131 q 483 119 483 128 q 471 106 483 111 q 210 -22 283 -22 q 174 14 174 -22 z "},"":{"ha":715,"x_min":28,"x_max":711,"o":"m 531 656 l 589 656 q 592 653 592 656 q 76 -292 592 624 q 59 -315 71 -303 q 40 -326 47 -326 q 28 -312 28 -326 q 33 -293 28 -304 l 426 415 q 204 325 268 325 q 140 367 140 325 q 201 480 140 411 q 355 602 261 549 q 531 656 449 656 m 154 -292 q 158 -285 154 -292 q 408 164 161 -279 q 667 630 654 607 q 695 653 679 653 q 711 647 711 653 l 711 646 q 196 -292 724 646 q 178 -315 190 -303 q 160 -326 167 -326 q 147 -312 147 -326 q 154 -292 147 -304 z "},"":{"ha":317,"x_min":129,"x_max":204,"o":"m 204 188 q 191 158 204 172 q 162 144 178 144 q 138 151 146 144 q 130 175 131 158 q 144 203 129 192 q 174 214 160 214 q 204 188 204 214 z "},"":{"ha":338,"x_min":89,"x_max":224,"o":"m 221 4 l 196 -32 q 224 -64 224 -39 q 181 -122 221 -103 q 99 -142 140 -142 q 89 -135 89 -142 q 94 -129 89 -129 q 159 -113 128 -129 q 192 -71 190 -97 q 161 -44 192 -44 l 194 0 q 206 7 199 7 q 221 4 213 7 z "},"":{"ha":367,"x_min":32,"x_max":439,"o":"m 435 869 q 266 634 354 771 q 131 410 178 497 l 82 322 q 52 306 72 306 q 32 315 32 306 q 260 692 60 399 q 322 785 299 749 l 347 821 q 343 824 347 824 l 338 822 q 142 706 263 765 l 104 688 q 89 683 94 683 q 85 692 83 683 q 108 725 88 710 q 393 885 264 785 q 422 890 404 890 q 439 881 439 890 q 435 869 439 875 z "},"":{"ha":343,"x_min":-72,"x_max":349,"o":"m 339 586 q 239 560 296 560 l 222 560 q 142 490 185 517 q 69 463 100 463 q 26 518 26 463 q 86 647 26 574 q 81 685 81 663 q 123 769 81 733 q 206 804 165 804 q 290 713 290 804 q 238 579 290 651 q 331 600 299 579 q 342 604 335 604 q 349 599 349 604 q 339 586 349 594 m 206 746 q 217 749 213 749 q 221 742 221 749 q 206 725 221 736 q 122 647 150 682 q 215 583 153 599 q 269 703 269 647 q 249 751 269 735 q 195 768 228 768 q 135 749 163 768 q 107 709 107 731 q 111 675 107 688 q 206 746 154 719 m -56 401 l 271 403 q 282 397 282 403 q 264 372 282 374 q -32 365 125 365 q -72 376 -72 365 q -56 401 -72 400 m 103 617 q 81 533 81 579 q 103 508 81 508 q 196 564 140 508 q 103 617 133 575 z "},"":{"ha":589,"x_min":90,"x_max":489,"o":"m 479 117 l 249 6 q 246 25 246 17 q 260 40 246 33 l 424 136 l 332 233 q 321 250 321 244 q 342 265 321 260 l 485 140 q 489 129 489 136 q 479 117 489 122 m 324 131 l 93 33 q 90 53 90 44 q 104 68 90 61 l 268 150 l 176 247 q 165 264 165 258 q 186 279 165 274 l 329 154 q 333 143 333 150 q 324 131 333 136 z "},"":{"ha":931,"x_min":-43,"x_max":857,"o":"m 435 869 q 266 634 354 771 q 131 410 178 497 l 82 322 q 52 306 72 306 q 32 315 32 306 q 260 692 60 399 q 322 785 299 749 l 347 821 q 343 824 347 824 l 338 822 q 142 706 263 765 l 104 688 q 89 683 94 683 q 85 692 83 683 q 108 725 88 710 q 393 885 264 785 q 422 890 404 890 q 439 881 439 890 q 435 869 439 875 m -34 -101 q -30 -93 -34 -101 q 256 410 -25 -85 q 550 928 538 906 q 577 950 563 950 q 592 944 592 950 q 6 -104 592 938 q -12 -127 0 -115 q -31 -139 -24 -139 q -43 -125 -43 -139 q -34 -101 -43 -117 m 478 22 q 446 8 472 8 q 419 19 419 8 l 425 35 q 524 193 446 76 l 514 193 l 275 185 q 251 200 251 185 l 256 217 q 577 483 376 347 q 828 618 778 618 q 857 608 856 618 l 857 607 q 826 551 857 590 q 594 221 704 390 q 740 233 661 222 l 744 233 q 756 222 756 233 q 578 193 756 201 q 478 22 519 104 m 365 215 q 542 218 461 215 l 786 574 l 790 581 q 786 583 790 583 l 776 581 q 697 534 746 564 q 531 414 649 504 q 335 236 413 324 q 329 222 329 228 q 339 215 329 215 l 365 215 z "},"":{"ha":856,"x_min":-43,"x_max":772,"o":"m 435 869 q 266 634 354 771 q 131 410 178 497 l 82 322 q 52 306 72 306 q 32 315 32 306 q 260 692 60 399 q 322 785 299 749 l 347 821 q 343 824 347 824 l 338 822 q 142 706 263 765 l 104 688 q 89 683 94 683 q 85 692 83 683 q 108 725 88 710 q 393 885 264 785 q 422 890 404 890 q 439 881 439 890 q 435 869 439 875 m 628 469 q 566 415 628 444 q 449 385 504 385 q 393 418 393 385 q 484 528 393 467 q 678 589 575 589 q 744 572 717 589 q 772 524 772 556 q 754 460 772 493 q 715 403 736 428 q 653 347 694 379 q 590 299 611 314 q 522 254 568 283 q 274 56 274 96 q 277 49 274 49 q 297 52 281 49 q 341 60 314 56 q 400 69 368 65 q 522 82 475 82 q 598 72 569 82 q 626 46 626 61 q 617 31 626 39 q 601 22 607 22 l 586 26 q 472 42 540 42 q 261 21 351 42 l 232 14 q 219 11 221 11 q 206 25 206 11 q 269 106 206 50 q 397 207 333 163 l 460 251 q 725 518 725 421 q 660 571 725 571 q 518 520 594 571 q 442 436 442 469 q 476 417 442 417 q 611 476 558 417 q 622 481 615 481 q 628 469 628 481 m -34 -101 q -30 -93 -34 -101 q 256 410 -25 -85 q 550 928 538 906 q 577 950 563 950 q 592 944 592 950 q 6 -104 592 938 q -12 -127 0 -115 q -31 -139 -24 -139 q -43 -125 -43 -139 q -34 -101 -43 -117 z "},"":{"ha":1072,"x_min":-29,"x_max":999,"o":"m 619 22 q 588 8 614 8 q 561 19 561 8 l 567 35 q 665 193 588 76 l 656 193 l 417 185 q 393 200 393 185 l 397 217 q 719 483 518 347 q 969 618 919 618 q 999 608 997 618 l 999 607 q 968 551 999 590 q 736 221 846 390 q 882 233 803 222 l 886 233 q 897 222 897 233 q 719 193 897 201 q 619 22 661 104 m 485 840 q 267 674 485 750 q 258 668 258 671 q 265 665 258 665 q 281 664 272 665 q 314 656 290 663 q 356 638 338 649 q 388 606 374 628 q 403 554 403 583 q 301 384 403 453 q 94 315 199 315 q -11 353 11 315 q -29 403 -29 382 q 11 483 -25 451 q 114 528 65 528 q 126 522 126 528 q 119 510 126 517 q 38 467 68 499 q 7 402 7 435 q 32 349 7 369 q 106 329 57 329 q 273 403 197 329 q 349 550 349 476 q 315 619 349 593 q 214 646 282 646 l 186 646 q 181 650 181 646 l 189 669 l 197 674 q 279 698 236 683 q 376 763 322 713 q 431 847 431 813 q 356 888 431 888 q 226 854 282 888 q 171 785 171 821 q 199 761 171 761 q 304 797 246 761 l 306 797 q 310 790 310 797 q 264 753 310 771 q 183 736 218 736 q 126 771 126 736 q 203 860 126 817 q 371 904 281 904 q 456 885 428 904 q 485 840 485 865 m 507 215 q 683 218 603 215 l 928 574 l 932 581 q 928 583 932 583 l 918 581 q 839 534 888 564 q 672 414 790 504 q 476 236 554 324 q 471 222 471 228 q 481 215 471 215 l 507 215 m 108 -101 q 112 -93 108 -101 q 398 410 117 -85 q 692 928 679 906 q 719 950 704 950 q 733 944 733 950 q 147 -104 733 938 q 130 -127 142 -115 q 111 -139 118 -139 q 99 -125 99 -139 q 108 -101 99 -117 z "},"":{"ha":454,"x_min":-326,"x_max":331,"o":"m 206 168 q 113 31 179 100 q -25 -92 47 -37 q -167 -197 -97 -146 q -326 -397 -326 -315 q -300 -465 -326 -437 q -233 -504 -274 -493 q -117 -524 -161 -524 q 181 -439 42 -524 q 321 -260 321 -354 q 221 -192 321 -192 q 58 -225 149 -192 q -33 -285 -33 -258 q -26 -292 -33 -292 l -10 -285 q 170 -229 82 -229 q 258 -286 258 -229 q 153 -421 258 -349 q -90 -493 47 -493 q -169 -483 -124 -493 q -260 -401 -260 -467 q -208 -290 -260 -350 q -84 -174 -157 -229 q 63 -64 -11 -119 q 239 151 239 67 q 225 186 239 175 q 206 168 213 185 m 331 390 q 317 361 331 375 q 288 347 304 347 q 265 354 272 347 q 256 378 257 361 q 271 406 256 394 q 300 417 286 417 q 331 390 331 417 z "},"":{"ha":715,"x_min":-104,"x_max":964,"o":"m -57 -94 q -100 -74 -89 -94 q -104 -62 -104 -67 q -101 -56 -104 -58 q 199 236 25 38 q 65 349 113 283 q 18 472 18 415 q 53 560 18 528 q 154 592 88 592 q 369 446 281 592 q 494 604 408 494 q 618 762 579 714 q 714 875 657 810 q 874 992 819 992 q 915 947 915 990 q 884 822 915 901 q 834 695 853 742 q 778 572 815 649 q 721 449 742 494 q 657 316 700 404 q 597 193 614 228 q 767 231 704 200 q 781 243 778 236 q 788 250 783 250 q 798 244 793 250 q 803 233 803 239 q 586 168 803 186 q 511 6 532 56 q 494 -6 506 -6 q 465 50 465 -6 q 446 168 460 93 q 240 217 336 176 l 240 215 q 106 65 181 142 q -12 -53 32 -12 l -57 -94 m 546 192 q 864 929 864 853 q 847 953 864 953 q 777 903 822 953 q 704 819 732 853 q 631 727 676 786 q 555 629 585 668 q 471 517 525 590 q 390 410 417 444 q 468 197 433 329 q 546 192 501 192 m 354 425 q 160 567 272 567 q 85 546 110 567 q 60 484 60 525 q 106 383 60 443 q 232 276 153 322 q 354 425 274 325 m 374 388 q 271 254 329 328 q 438 201 353 215 q 374 388 408 318 m 964 1024 q 942 1032 958 1024 l 824 1107 q 815 1125 815 1115 q 835 1144 815 1144 q 849 1139 843 1144 l 958 1049 q 964 1024 978 1029 m 533 165 l 475 165 l 492 78 q 533 165 508 111 z "},"":{"ha":715,"x_min":-104,"x_max":1061,"o":"m -57 -94 q 240 215 106 50 l 240 217 q 446 168 336 176 q 465 50 460 93 q 494 -6 465 -6 q 511 6 506 -6 q 586 168 532 56 q 803 233 803 186 q 798 244 803 239 q 788 250 793 250 q 782 247 783 250 q 767 231 778 236 q 597 193 704 200 q 657 316 614 228 q 721 449 700 404 q 778 572 742 494 q 834 695 815 649 q 875 797 853 742 q 915 946 915 901 q 874 992 915 990 q 714 875 819 992 q 520 638 632 782 q 369 446 408 494 q 154 592 281 592 q 53 560 88 592 q 18 472 18 528 q 65 349 18 415 q 199 236 113 283 q -101 -56 25 38 q -104 -62 -104 -58 q -100 -74 -104 -67 q -57 -94 -89 -94 m 546 192 q 468 197 501 192 q 390 410 433 329 q 471 517 417 444 q 555 629 525 590 q 631 727 585 668 q 704 819 676 786 q 764 888 732 853 q 847 953 822 953 q 864 929 864 953 q 546 192 864 853 m 354 425 q 232 276 274 325 q 106 383 153 322 q 60 483 60 443 q 166 567 60 567 q 354 425 272 567 m 374 388 q 438 201 408 318 q 271 254 353 215 q 374 388 329 328 m 913 1028 q 906 1036 906 1031 q 918 1053 907 1042 l 1028 1143 q 1042 1149 1033 1149 q 1061 1129 1061 1149 q 1053 1111 1061 1119 l 935 1036 q 913 1028 918 1028 m 533 165 l 492 78 q 475 165 488 114 l 533 165 z "},"":{"ha":715,"x_min":-104,"x_max":1007,"o":"m -57 -94 q -100 -74 -89 -94 q -104 -62 -104 -67 q -101 -56 -104 -58 q 199 236 25 38 q 65 349 113 283 q 18 472 18 415 q 53 560 18 528 q 154 592 88 592 q 369 446 281 592 q 494 604 408 494 q 618 762 579 714 q 714 875 657 810 q 874 992 819 992 q 915 947 915 990 q 884 822 915 901 q 834 695 853 742 q 778 572 815 649 q 721 449 742 494 q 657 316 700 404 q 597 193 614 228 q 767 231 704 200 q 781 243 778 236 q 788 250 783 250 q 798 244 793 250 q 803 233 803 239 q 586 168 803 186 q 511 6 532 56 q 494 -6 506 -6 q 465 50 465 -6 q 446 168 460 93 q 240 217 336 176 l 240 215 q 106 65 181 142 q -12 -53 32 -12 l -57 -94 m 546 192 q 864 929 864 853 q 847 953 864 953 q 777 903 822 953 q 704 819 732 853 q 631 727 676 786 q 555 629 585 668 q 471 517 525 590 q 390 410 417 444 q 468 197 433 329 q 546 192 501 192 m 354 425 q 160 567 272 567 q 85 546 110 567 q 60 484 60 525 q 106 383 60 443 q 232 276 153 322 q 354 425 274 325 m 374 388 q 271 254 329 328 q 438 201 353 215 q 374 388 408 318 m 928 1097 q 760 1021 772 1021 q 747 1027 747 1021 q 840 1089 747 1033 q 944 1144 933 1144 q 978 1086 956 1144 q 1007 1015 1001 1028 q 996 1007 1003 1007 q 942 1075 985 1007 l 928 1097 m 533 165 l 475 165 l 492 78 q 533 165 508 111 z "},"":{"ha":715,"x_min":-104,"x_max":1058,"o":"m -57 -94 q 240 215 106 50 l 240 217 q 446 168 336 176 q 465 50 460 93 q 494 -6 465 -6 q 511 6 506 -6 q 586 168 532 56 q 803 233 803 186 q 798 244 803 239 q 788 250 793 250 q 782 247 783 250 q 767 231 778 236 q 597 193 704 200 q 657 316 614 228 q 721 449 700 404 q 778 572 742 494 q 834 695 815 649 q 875 797 853 742 q 915 946 915 901 q 874 992 915 990 q 714 875 819 992 q 520 638 632 782 q 369 446 408 494 q 154 592 281 592 q 53 560 88 592 q 18 472 18 528 q 65 349 18 415 q 199 236 113 283 q -101 -56 25 38 q -104 -62 -104 -58 q -100 -74 -104 -67 q -57 -94 -89 -94 m 546 192 q 468 197 501 192 q 390 410 433 329 q 471 517 417 444 q 555 629 525 590 q 631 727 585 668 q 704 819 676 786 q 764 888 732 853 q 847 953 822 953 q 864 929 864 953 q 546 192 864 853 m 354 425 q 232 276 274 325 q 106 383 153 322 q 60 483 60 443 q 166 567 60 567 q 354 425 272 567 m 374 388 q 438 201 408 318 q 271 254 353 215 q 374 388 329 328 m 1058 1106 q 1037 1069 1058 1085 q 989 1054 1015 1054 q 918 1080 963 1054 q 856 1106 874 1106 q 821 1092 839 1106 q 796 1079 803 1079 l 793 1081 q 819 1114 793 1090 q 871 1138 844 1138 q 944 1109 897 1138 q 1009 1081 992 1081 q 1040 1095 1026 1081 q 1056 1110 1054 1110 q 1058 1106 1058 1110 m 533 165 l 492 78 q 475 165 488 114 l 533 165 z "},"":{"ha":715,"x_min":-104,"x_max":1015,"o":"m -57 -94 q -100 -74 -89 -94 q -104 -62 -104 -67 q -101 -56 -104 -58 q 199 236 25 38 q 65 349 113 283 q 18 472 18 415 q 53 560 18 528 q 154 592 88 592 q 369 446 281 592 q 494 604 408 494 q 618 762 579 714 q 714 875 657 810 q 874 992 819 992 q 915 947 915 990 q 884 822 915 901 q 834 695 853 742 q 778 572 815 649 q 721 449 742 494 q 657 316 700 404 q 597 193 614 228 q 767 231 704 200 q 781 243 778 236 q 788 250 783 250 q 798 244 793 250 q 803 233 803 239 q 586 168 803 186 q 511 6 532 56 q 494 -6 506 -6 q 465 50 465 -6 q 446 168 460 93 q 240 217 336 176 l 240 215 q 106 65 181 142 q -12 -53 32 -12 l -57 -94 m 546 192 q 864 929 864 853 q 847 953 864 953 q 777 903 822 953 q 704 819 732 853 q 631 727 676 786 q 555 629 585 668 q 471 517 525 590 q 390 410 417 444 q 468 197 433 329 q 546 192 501 192 m 354 425 q 160 567 272 567 q 85 546 110 567 q 60 484 60 525 q 106 383 60 443 q 232 276 153 322 q 354 425 274 325 m 374 388 q 271 254 329 328 q 438 201 353 215 q 374 388 408 318 m 994 1126 q 1015 1106 1015 1126 q 996 1063 1015 1085 q 953 1042 976 1042 q 933 1069 933 1042 q 956 1111 933 1096 q 994 1126 978 1126 m 849 1140 q 869 1119 869 1140 q 850 1077 869 1099 q 807 1056 831 1056 q 788 1083 788 1056 q 810 1125 788 1110 q 849 1140 832 1140 m 533 165 l 475 165 l 492 78 q 533 165 508 111 z "},"":{"ha":715,"x_min":-104,"x_max":999,"o":"m -57 -94 q 240 215 106 50 l 240 217 q 446 168 336 176 q 465 50 460 93 q 494 -6 465 -6 q 511 6 506 -6 q 586 168 532 56 q 803 233 803 186 q 798 244 803 239 q 788 250 793 250 q 782 247 783 250 q 767 231 778 236 q 597 193 704 200 q 657 316 614 228 q 721 449 700 404 q 778 572 742 494 q 834 695 815 649 q 875 797 853 742 q 915 946 915 901 q 874 992 915 990 q 714 875 819 992 q 520 638 632 782 q 369 446 408 494 q 154 592 281 592 q 53 560 88 592 q 18 472 18 528 q 65 349 18 415 q 199 236 113 283 q -101 -56 25 38 q -104 -62 -104 -58 q -100 -74 -104 -67 q -57 -94 -89 -94 m 546 192 q 468 197 501 192 q 390 410 433 329 q 471 517 417 444 q 555 629 525 590 q 631 727 585 668 q 704 819 676 786 q 764 888 732 853 q 847 953 822 953 q 864 929 864 953 q 546 192 864 853 m 354 425 q 232 276 274 325 q 106 383 153 322 q 60 483 60 443 q 166 567 60 567 q 354 425 272 567 m 374 388 q 438 201 408 318 q 271 254 353 215 q 374 388 329 328 m 924 1018 q 913 1018 924 1018 q 890 1031 901 1018 q 878 1063 878 1043 q 899 1113 878 1083 q 947 1142 919 1142 q 999 1094 999 1142 q 973 1043 999 1068 q 924 1018 947 1018 m 949 1115 q 917 1099 929 1115 q 904 1071 904 1083 q 911 1051 904 1058 q 932 1043 918 1043 q 959 1058 946 1043 q 972 1089 972 1072 q 949 1115 972 1115 m 533 165 l 492 78 q 475 165 488 114 l 533 165 z "},"":{"ha":1257,"x_min":-104,"x_max":1631,"o":"m 1226 688 q 1189 710 1189 688 q 1269 810 1189 746 q 1450 914 1350 875 l 1450 924 q 1365 988 1450 988 q 1153 913 1279 988 q 933 738 1028 839 q 839 568 839 638 q 1000 481 839 481 q 1163 525 1094 481 q 1172 531 1167 531 q 1182 516 1182 531 q 1172 497 1182 501 q 886 317 999 418 q 797 209 836 274 q 757 90 757 144 q 785 -1 757 35 q 892 -36 814 -36 q 951 -28 918 -35 q 1064 19 985 -21 q 1215 126 1143 60 q 1233 140 1226 140 q 1242 129 1242 139 q 1176 57 1242 106 q 1013 -33 1111 8 q 842 -75 915 -75 q 697 -3 736 -75 q 682 73 682 26 q 725 189 682 119 q 586 168 668 175 q 511 6 532 56 q 494 -6 506 -6 q 465 50 465 -6 q 446 167 460 96 q 242 217 333 176 l 240 215 q 106 65 181 142 q -12 -53 32 -12 l -57 -94 q -100 -74 -89 -94 q -104 -62 -104 -67 q -101 -56 -104 -58 q 199 238 32 44 q 65 351 113 285 q 18 472 18 417 q 53 560 18 528 q 154 592 88 592 q 369 446 281 592 q 494 604 408 494 q 618 762 579 714 q 714 875 657 810 q 874 992 819 992 q 915 947 915 990 q 828 683 915 885 q 1088 915 919 807 q 1374 1022 1257 1022 q 1492 940 1492 1022 l 1492 929 q 1585 949 1557 949 q 1622 947 1614 949 q 1631 929 1631 944 q 1619 911 1631 914 q 1481 888 1556 911 q 1373 751 1450 814 q 1226 688 1296 688 m 546 192 q 864 929 864 853 q 847 953 864 953 q 777 903 822 953 q 704 819 732 853 q 631 727 676 786 q 555 629 585 668 q 471 517 525 590 q 390 410 417 444 q 468 197 433 329 q 546 192 501 192 m 597 193 q 747 222 686 197 q 1064 463 856 365 q 943 449 999 449 q 768 551 768 449 q 597 193 706 415 m 354 425 q 166 567 272 567 q 60 492 60 567 q 106 383 60 443 q 232 276 153 322 q 354 425 274 325 m 374 388 q 272 254 354 361 q 438 201 353 215 q 374 388 408 318 m 1257 714 q 1356 765 1300 714 q 1438 872 1413 815 q 1296 795 1357 840 q 1235 726 1235 750 q 1257 714 1235 714 m 533 165 l 475 165 l 492 78 q 533 165 508 111 z "},"":{"ha":638,"x_min":0,"x_max":924,"o":"m 624 150 q 635 133 635 150 q 570 69 635 113 q 403 -10 506 26 q 217 -47 301 -47 q 160 -42 183 -47 l 146 -62 q 174 -94 174 -69 q 131 -153 171 -133 q 49 -172 90 -172 q 39 -166 39 -172 q 44 -160 39 -160 q 109 -144 78 -160 q 142 -101 140 -128 q 111 -75 142 -75 q 139 -36 113 -69 q 0 193 0 4 q 55 439 0 315 q 197 659 110 563 q 385 832 283 756 q 588 949 488 908 q 765 990 689 990 q 924 868 924 990 q 839 650 924 776 q 632 431 754 524 q 413 338 510 338 q 338 408 338 338 q 455 631 338 499 q 656 764 572 764 q 667 756 667 764 l 660 738 q 542 681 610 738 q 426 549 474 624 q 379 424 379 474 q 436 368 379 368 q 610 454 507 368 q 790 658 714 540 q 865 856 865 775 q 738 957 865 957 q 581 919 671 957 q 399 808 490 881 q 228 646 307 736 q 101 440 150 556 q 51 208 51 324 q 246 -11 51 -11 q 465 44 347 -11 q 624 150 583 99 z "},"":{"ha":556,"x_min":-19,"x_max":929,"o":"m 525 688 q 488 710 488 688 q 569 810 488 744 q 749 915 650 876 q 750 925 750 918 q 664 988 750 988 q 452 913 578 988 q 232 738 326 839 q 138 568 138 638 q 299 481 138 481 q 461 525 393 481 q 471 531 465 531 q 481 516 481 531 q 471 497 481 501 q 183 317 297 418 q 95 209 135 274 q 56 90 56 144 q 84 -1 56 35 q 190 -36 113 -36 q 250 -28 217 -35 q 363 19 283 -21 q 514 126 442 60 q 532 140 525 140 q 540 129 540 139 q 475 57 540 106 q 312 -33 410 8 q 140 -75 214 -75 q -4 -3 35 -75 q -19 64 -19 26 q 87 270 -19 156 q 363 463 193 385 q 242 449 297 449 q 67 546 67 449 q 132 690 67 606 q 290 846 197 774 q 490 970 382 918 q 674 1022 597 1022 q 792 942 792 1022 q 790 929 792 933 q 882 949 851 949 q 921 947 913 949 q 929 929 929 944 q 918 911 929 914 q 779 888 854 911 q 672 751 749 814 q 525 688 594 688 m 533 726 q 556 714 533 714 q 654 765 597 714 q 736 872 711 815 q 594 794 656 839 q 533 726 533 749 m 818 1069 q 796 1078 813 1069 l 678 1153 q 669 1171 669 1161 q 689 1190 669 1190 q 703 1185 697 1190 l 813 1094 q 818 1069 832 1075 z "},"":{"ha":556,"x_min":-19,"x_max":929,"o":"m 525 688 q 672 751 594 688 q 779 888 749 814 q 918 911 854 911 q 929 929 929 914 q 921 947 929 944 q 882 949 913 949 q 790 929 851 949 q 792 942 792 933 q 674 1022 792 1022 q 490 970 597 1022 q 290 846 382 918 q 132 690 197 774 q 67 546 67 606 q 242 449 67 449 q 344 458 290 449 l 363 463 q 87 270 193 385 q -19 64 -19 156 q -4 -2 -19 26 q 30 -44 11 -31 q 75 -64 49 -57 q 140 -75 111 -75 q 312 -33 214 -75 q 475 57 410 8 q 540 129 540 106 q 535 139 540 139 q 514 126 525 140 q 363 19 442 60 q 250 -28 283 -21 q 190 -36 217 -35 q 84 -1 113 -36 q 56 90 56 35 q 95 209 56 144 q 184 317 135 274 q 303 406 233 361 q 471 497 389 460 q 481 516 481 501 q 471 531 481 531 l 461 525 q 299 481 393 481 q 138 568 138 481 q 232 738 138 638 q 452 913 326 839 q 664 988 578 988 q 750 925 750 988 q 749 915 750 918 q 569 810 650 876 q 488 710 488 744 q 525 688 488 688 m 533 726 q 594 794 533 749 q 736 872 656 839 q 654 765 711 815 q 556 714 597 714 q 533 726 533 714 m 706 1082 q 699 1090 699 1085 q 711 1107 700 1096 l 821 1197 q 835 1203 826 1203 q 854 1183 854 1203 q 846 1165 854 1174 l 728 1090 q 706 1082 711 1082 z "},"":{"ha":556,"x_min":-19,"x_max":929,"o":"m 525 688 q 488 710 488 688 q 569 810 488 744 q 749 915 650 876 q 750 925 750 918 q 664 988 750 988 q 452 913 578 988 q 232 738 326 839 q 138 568 138 638 q 299 481 138 481 q 461 525 393 481 q 471 531 465 531 q 481 516 481 531 q 471 497 481 501 q 183 317 297 418 q 95 209 135 274 q 56 90 56 144 q 84 -1 56 35 q 190 -36 113 -36 q 250 -28 217 -35 q 363 19 283 -21 q 514 126 442 60 q 532 140 525 140 q 540 129 540 139 q 475 57 540 106 q 312 -33 410 8 q 140 -75 214 -75 q -4 -3 35 -75 q -19 64 -19 26 q 87 270 -19 156 q 363 463 193 385 q 242 449 297 449 q 67 546 67 449 q 132 690 67 606 q 290 846 197 774 q 490 970 382 918 q 674 1022 597 1022 q 792 942 792 1022 q 790 929 792 933 q 882 949 851 949 q 921 947 913 949 q 929 929 929 944 q 918 911 929 914 q 779 888 854 911 q 672 751 749 814 q 525 688 594 688 m 533 726 q 556 714 533 714 q 654 765 597 714 q 736 872 711 815 q 594 794 656 839 q 533 726 533 749 m 694 1139 q 526 1063 539 1063 q 514 1069 514 1063 q 607 1131 514 1075 q 711 1186 700 1186 q 745 1128 722 1186 q 774 1057 768 1069 q 763 1049 769 1049 q 708 1117 751 1049 l 694 1139 z "},"":{"ha":556,"x_min":-19,"x_max":929,"o":"m 525 688 q 488 710 488 688 q 569 810 488 744 q 749 915 650 876 q 750 925 750 918 q 664 988 750 988 q 452 913 578 988 q 232 738 326 839 q 138 568 138 638 q 299 481 138 481 q 461 525 393 481 q 471 531 465 531 q 481 516 481 531 q 471 497 481 501 q 183 317 297 418 q 95 209 135 274 q 56 90 56 144 q 84 -1 56 35 q 190 -36 113 -36 q 250 -28 217 -35 q 363 19 283 -21 q 514 126 442 60 q 532 140 525 140 q 540 129 540 139 q 475 57 540 106 q 312 -33 410 8 q 140 -75 214 -75 q -4 -3 35 -75 q -19 64 -19 26 q 87 270 -19 156 q 363 463 193 385 q 242 449 297 449 q 67 546 67 449 q 132 690 67 606 q 290 846 197 774 q 490 970 382 918 q 674 1022 597 1022 q 792 942 792 1022 q 790 929 792 933 q 882 949 851 949 q 921 947 913 949 q 929 929 929 944 q 918 911 929 914 q 779 888 854 911 q 672 751 749 814 q 525 688 594 688 m 533 726 q 556 714 533 714 q 654 765 597 714 q 736 872 711 815 q 594 794 656 839 q 533 726 533 749 m 650 1182 q 671 1161 671 1182 q 651 1119 671 1140 q 608 1097 632 1097 q 589 1124 589 1097 q 611 1167 589 1151 q 650 1182 633 1182 m 796 1168 q 817 1147 817 1168 q 797 1105 817 1126 q 754 1083 778 1083 q 735 1110 735 1083 q 757 1153 735 1138 q 796 1168 779 1168 z "},"":{"ha":797,"x_min":-165,"x_max":1006,"o":"m -165 1 q -55 147 -165 74 q 217 266 56 221 q 529 311 379 311 q 611 307 567 311 q 917 897 917 593 q 863 979 917 979 q 786 945 829 979 q 703 856 743 911 q 637 718 664 800 q 610 545 610 636 q 635 439 610 454 q 642 429 642 435 q 610 406 631 406 q 578 417 590 406 q 567 451 567 429 q 602 690 567 574 q 689 883 638 806 q 797 1007 740 960 q 899 1054 854 1054 q 974 936 974 1054 q 654 301 974 596 q 803 197 803 275 q 767 140 803 169 q 710 108 732 110 q 688 113 689 107 q 703 126 688 117 q 761 188 761 163 q 604 257 761 244 q 229 17 431 110 q -61 -76 28 -76 q -131 -57 -106 -76 q -161 -18 -157 -37 l -165 1 m 519 261 q 237 228 382 261 q -9 138 92 194 q -111 21 -110 81 q -33 -31 -107 -31 q 235 50 65 -31 q 558 260 404 131 q 519 261 544 261 m 1006 1093 q 983 1101 1000 1093 l 865 1176 q 857 1194 857 1185 q 876 1214 857 1214 q 890 1208 885 1214 l 1000 1118 q 1006 1093 1019 1099 z "},"":{"ha":797,"x_min":-165,"x_max":1086,"o":"m -165 1 q -158 -23 -165 -7 q -140 -50 -150 -39 q -61 -76 -115 -76 q 229 17 28 -76 q 604 257 431 110 q 761 188 761 244 q 703 126 761 163 q 688 113 688 117 q 710 108 689 107 q 767 140 732 110 q 803 197 803 169 q 654 301 803 275 q 974 936 974 596 q 899 1054 974 1054 q 797 1007 854 1054 q 689 883 740 960 q 602 690 638 806 q 567 451 567 574 q 578 417 567 429 q 610 406 590 406 q 642 429 631 406 q 635 439 642 435 q 610 545 610 454 q 637 718 610 636 q 703 856 664 800 q 786 945 743 911 q 863 979 829 979 q 917 897 917 979 q 611 307 917 593 q 529 311 568 311 q 217 266 379 311 q -55 147 56 221 q -165 1 -165 74 m 519 261 q 558 260 544 261 q 235 50 404 131 q -33 -31 65 -31 q -111 21 -107 -31 q -9 138 -110 81 q 237 228 92 194 q 519 261 382 261 m 938 1094 q 931 1103 931 1097 q 943 1119 932 1108 l 1053 1210 q 1067 1215 1058 1215 q 1086 1196 1086 1215 q 1078 1178 1086 1186 l 960 1103 q 938 1094 943 1094 z "},"":{"ha":797,"x_min":-165,"x_max":1043,"o":"m -165 1 q -55 147 -165 74 q 217 266 56 221 q 529 311 379 311 q 611 307 567 311 q 917 897 917 593 q 863 979 917 979 q 786 945 829 979 q 703 856 743 911 q 637 718 664 800 q 610 545 610 636 q 635 439 610 454 q 642 429 642 435 q 610 406 631 406 q 578 417 590 406 q 567 451 567 429 q 602 690 567 574 q 689 883 638 806 q 797 1007 740 960 q 899 1054 854 1054 q 974 936 974 1054 q 654 301 974 596 q 803 197 803 275 q 767 140 803 169 q 710 108 732 110 q 688 113 689 107 q 703 126 688 117 q 761 188 761 163 q 604 257 761 244 q 229 17 431 110 q -61 -76 28 -76 q -131 -57 -106 -76 q -161 -18 -157 -37 l -165 1 m 519 261 q 237 228 382 261 q -9 138 92 194 q -111 21 -110 81 q -33 -31 -107 -31 q 235 50 65 -31 q 558 260 404 131 q 519 261 544 261 m 964 1156 q 796 1079 808 1079 q 783 1085 783 1079 q 876 1147 783 1092 q 981 1203 969 1203 q 1015 1144 992 1203 q 1043 1074 1038 1086 q 1032 1065 1039 1065 q 978 1133 1021 1065 l 964 1156 z "},"":{"ha":797,"x_min":-165,"x_max":1053,"o":"m -165 1 q -55 147 -165 74 q 217 266 56 221 q 529 311 379 311 q 611 307 567 311 q 917 897 917 593 q 863 979 917 979 q 786 945 829 979 q 703 856 743 911 q 637 718 664 800 q 610 545 610 636 q 635 439 610 454 q 642 429 642 435 q 610 406 631 406 q 578 417 590 406 q 567 451 567 429 q 602 690 567 574 q 689 883 638 806 q 797 1007 740 960 q 899 1054 854 1054 q 974 936 974 1054 q 654 301 974 596 q 803 197 803 275 q 767 140 803 169 q 710 108 732 110 q 688 113 689 107 q 703 126 688 117 q 761 188 761 163 q 604 257 761 244 q 229 17 431 110 q -61 -76 28 -76 q -131 -57 -106 -76 q -161 -18 -157 -37 l -165 1 m 519 261 q 237 228 382 261 q -9 138 92 194 q -111 21 -110 81 q -33 -31 -107 -31 q 235 50 65 -31 q 558 260 404 131 q 519 261 544 261 m 886 1206 q 907 1185 907 1206 q 888 1142 907 1164 q 844 1121 868 1121 q 825 1148 825 1121 q 847 1190 825 1175 q 886 1206 869 1206 m 1032 1192 q 1053 1171 1053 1192 q 1033 1128 1053 1150 q 990 1107 1014 1107 q 971 1134 971 1107 q 993 1176 971 1161 q 1032 1192 1015 1192 z "},"":{"ha":811,"x_min":-189,"x_max":1013,"o":"m 775 117 q 701 44 775 63 q 697 50 697 44 q 707 63 697 56 q 735 108 735 83 q 654 181 735 157 q 372 -15 519 58 q 96 -87 225 -87 q -3 -19 -3 -87 q 86 109 -3 50 q 299 199 175 168 q 513 229 422 229 q 647 219 603 229 q 869 495 783 351 q 956 748 956 639 q 874 917 956 857 q 629 976 793 976 q 290 917 465 976 q -8 763 114 858 q -131 574 -131 667 q -65 521 -131 521 q 118 567 28 521 q 354 736 208 614 q 381 757 372 757 q 394 747 394 757 q 385 728 394 744 q 283 640 349 692 q 163 554 218 589 q 37 492 107 519 q -90 464 -33 464 q -189 551 -189 464 q -48 763 -189 650 q 296 949 93 875 q 672 1024 499 1024 q 929 958 846 1024 q 1013 776 1013 893 q 922 504 1013 660 q 686 210 831 349 q 775 117 775 182 m 614 189 q 494 196 568 196 q 317 172 419 196 q 140 99 214 149 q 65 -14 65 49 q 125 -60 65 -60 q 360 8 231 -60 q 614 189 490 76 m 614 897 q 361 446 614 886 l 413 446 q 518 438 518 444 q 503 421 518 432 q 469 411 489 410 q 343 413 450 413 q 238 231 271 286 q 207 203 229 213 q 173 193 185 193 q 161 199 161 193 q 281 413 161 206 q 124 400 208 411 q 117 404 117 400 l 136 428 q 299 443 161 438 q 544 871 546 869 q 572 892 553 885 l 607 903 l 614 897 z "},"":{"ha":724,"x_min":-194,"x_max":894,"o":"m 511 35 q 843 721 511 75 q 847 738 847 729 q 831 753 847 746 q 806 761 815 761 q 494 415 754 710 q 228 117 233 119 q 442 497 336 279 q 522 691 486 586 q 557 865 557 796 q 428 1000 557 1000 q 202 957 318 1000 q 1 851 86 914 q -140 718 -85 789 q -194 592 -194 647 q -18 489 -194 489 q 128 524 53 489 q 254 606 203 558 q 339 698 306 653 q 372 760 372 743 q 368 778 372 778 l 357 769 q 206 613 313 686 q -21 540 100 540 q -142 615 -142 540 q -60 763 -142 678 q 152 914 22 849 q 399 979 282 979 q 499 864 499 979 q 463 688 499 794 q 378 476 428 581 q 192 125 272 257 l 157 67 q 146 38 146 50 q 161 25 146 25 l 192 33 q 778 690 758 671 l 796 710 q 454 14 454 89 q 489 -22 454 -22 q 589 10 524 -22 q 703 74 654 42 l 751 106 q 764 124 764 111 l 763 131 q 529 21 593 21 q 511 35 511 21 m 894 1031 q 873 994 894 1010 q 825 979 851 979 q 754 1005 799 979 q 692 1031 710 1031 q 657 1017 675 1031 q 632 1004 639 1004 l 629 1006 q 655 1039 629 1015 q 707 1063 681 1063 q 781 1034 733 1063 q 845 1006 828 1006 q 876 1020 863 1006 q 892 1035 890 1035 q 894 1031 894 1035 z "},"":{"ha":603,"x_min":0,"x_max":856,"o":"m 581 978 q 590 969 588 978 q 574 956 590 958 q 408 860 496 929 q 241 692 319 790 q 110 461 163 594 q 58 192 58 328 q 189 7 58 7 q 367 74 265 7 q 559 244 469 142 q 711 483 649 346 q 774 748 774 621 q 686 875 774 875 q 519 799 615 875 q 352 608 424 724 q 281 390 281 492 q 351 288 281 288 q 452 330 396 288 q 553 443 508 372 q 566 454 558 454 q 574 446 574 454 q 477 324 574 407 q 311 240 381 240 q 229 372 229 240 q 315 606 229 475 q 518 828 401 738 q 719 918 635 918 q 831 753 831 918 q 758 484 831 628 q 583 228 686 340 q 361 42 479 117 q 154 -33 243 -33 q 0 186 0 -33 q 53 449 0 319 q 181 671 106 579 q 341 835 257 763 q 490 942 425 907 q 581 978 554 978 m 856 967 q 833 975 850 967 l 715 1050 q 707 1068 707 1058 q 726 1088 707 1088 q 740 1082 735 1088 l 850 992 q 856 967 869 972 z "},"":{"ha":603,"x_min":0,"x_max":883,"o":"m 574 446 q 565 454 574 454 q 553 443 558 454 q 452 330 508 372 q 351 288 396 288 q 281 390 281 288 q 352 608 281 492 q 519 799 424 724 q 686 875 615 875 q 774 748 774 875 q 711 483 774 621 q 559 244 649 346 q 367 74 469 142 q 189 7 265 7 q 58 192 58 7 q 110 461 58 328 q 241 692 163 594 q 408 860 319 790 q 574 956 496 929 q 590 969 590 958 q 572 978 589 978 q 490 942 554 978 q 341 835 425 907 q 181 671 257 763 q 53 449 106 579 q 0 186 0 319 q 154 -33 0 -33 q 361 42 243 -33 q 583 228 479 117 q 758 484 686 340 q 831 753 831 628 q 719 918 831 918 q 518 828 635 918 q 315 606 401 738 q 229 372 229 475 q 311 240 229 240 q 477 324 381 240 q 574 446 574 407 m 735 979 q 728 988 728 982 q 740 1004 729 993 l 850 1094 q 864 1100 856 1100 q 883 1081 883 1100 q 875 1063 883 1071 l 757 988 q 735 979 740 979 z "},"":{"ha":603,"x_min":0,"x_max":863,"o":"m 581 978 q 590 969 588 978 q 574 956 590 958 q 408 860 496 929 q 241 692 319 790 q 110 461 163 594 q 58 192 58 328 q 189 7 58 7 q 367 74 265 7 q 559 244 469 142 q 711 483 649 346 q 774 748 774 621 q 686 875 774 875 q 519 799 615 875 q 352 608 424 724 q 281 390 281 492 q 351 288 281 288 q 452 330 396 288 q 553 443 508 372 q 566 454 558 454 q 574 446 574 454 q 477 324 574 407 q 311 240 381 240 q 229 372 229 240 q 315 606 229 475 q 518 828 401 738 q 719 918 635 918 q 831 753 831 918 q 758 484 831 628 q 583 228 686 340 q 361 42 479 117 q 154 -33 243 -33 q 0 186 0 -33 q 53 449 0 319 q 181 671 106 579 q 341 835 257 763 q 490 942 425 907 q 581 978 554 978 m 783 1089 q 615 1013 628 1013 q 603 1019 603 1013 q 696 1081 603 1025 q 800 1136 789 1136 q 834 1078 811 1136 q 863 1007 857 1019 q 851 999 858 999 q 797 1067 840 999 l 783 1089 z "},"":{"ha":603,"x_min":0,"x_max":906,"o":"m 574 446 q 565 454 574 454 q 553 443 558 454 q 452 330 508 372 q 351 288 396 288 q 281 390 281 288 q 352 608 281 492 q 519 799 424 724 q 686 875 615 875 q 774 748 774 875 q 711 483 774 621 q 559 244 649 346 q 367 74 469 142 q 189 7 265 7 q 58 192 58 7 q 110 461 58 328 q 241 692 163 594 q 408 860 319 790 q 574 956 496 929 q 590 969 590 958 q 572 978 589 978 q 490 942 554 978 q 341 835 425 907 q 181 671 257 763 q 53 449 106 579 q 0 186 0 319 q 154 -33 0 -33 q 361 42 243 -33 q 583 228 479 117 q 758 484 686 340 q 831 753 831 628 q 719 918 831 918 q 518 828 635 918 q 315 606 401 738 q 229 372 229 475 q 311 240 229 240 q 477 324 381 240 q 574 446 574 407 m 906 1089 q 884 1053 906 1068 q 836 1038 863 1038 q 765 1063 810 1038 q 703 1089 721 1089 q 668 1076 686 1089 q 643 1063 650 1063 l 640 1064 q 666 1097 640 1074 q 718 1121 692 1121 q 792 1092 744 1121 q 856 1064 839 1064 q 888 1078 874 1064 q 903 1093 901 1093 q 906 1089 906 1093 z "},"":{"ha":603,"x_min":0,"x_max":858,"o":"m 581 978 q 590 969 588 978 q 574 956 590 958 q 408 860 496 929 q 241 692 319 790 q 110 461 163 594 q 58 192 58 328 q 189 7 58 7 q 367 74 265 7 q 559 244 469 142 q 711 483 649 346 q 774 748 774 621 q 686 875 774 875 q 519 799 615 875 q 352 608 424 724 q 281 390 281 492 q 351 288 281 288 q 452 330 396 288 q 553 443 508 372 q 566 454 558 454 q 574 446 574 454 q 477 324 574 407 q 311 240 381 240 q 229 372 229 240 q 315 606 229 475 q 518 828 401 738 q 719 918 635 918 q 831 753 831 918 q 758 484 831 628 q 583 228 686 340 q 361 42 479 117 q 154 -33 243 -33 q 0 186 0 -33 q 53 449 0 319 q 181 671 106 579 q 341 835 257 763 q 490 942 425 907 q 581 978 554 978 m 692 1136 q 713 1115 713 1136 q 693 1073 713 1094 q 650 1051 674 1051 q 631 1078 631 1051 q 653 1121 631 1106 q 692 1136 675 1136 m 838 1122 q 858 1101 858 1122 q 839 1059 858 1081 q 796 1038 819 1038 q 776 1065 776 1038 q 799 1107 776 1092 q 838 1122 821 1122 z "},"":{"ha":556,"x_min":-14,"x_max":435,"o":"m 435 589 q 433 583 433 585 l 235 424 l 385 249 q 389 240 389 242 q 374 231 389 231 q 350 242 358 231 q 207 401 338 249 l 8 242 q -3 238 3 238 q -14 252 -14 238 q -4 276 -14 267 l 183 428 q 64 569 85 539 q 53 597 53 582 q 68 611 53 611 l 75 610 l 211 450 l 374 582 q 417 601 400 601 q 435 589 435 601 z "},"":{"ha":603,"x_min":0,"x_max":831,"o":"m 581 978 q 590 969 588 978 q 574 956 590 958 q 408 860 496 929 q 241 692 319 790 q 110 461 163 594 q 58 196 58 328 q 124 24 58 64 l 258 261 q 229 372 229 294 q 355 661 229 500 q 615 889 481 822 l 704 1046 q 734 1074 719 1074 q 749 1069 749 1074 q 663 908 749 1065 q 719 918 690 918 q 831 753 831 918 q 758 484 831 628 q 583 228 686 340 q 361 42 479 117 q 154 -32 243 -32 q 133 -31 140 -32 l 82 -124 q 65 -147 76 -135 q 46 -158 53 -158 q 33 -144 33 -158 q 39 -125 33 -136 l 97 -22 q 0 186 0 14 q 53 449 0 319 q 181 671 106 579 q 341 835 257 763 q 490 942 425 907 q 581 978 554 978 m 553 443 q 566 454 558 454 q 574 446 574 454 q 477 324 574 407 q 311 240 381 240 q 289 243 303 240 q 157 10 278 225 q 188 7 167 7 q 366 74 264 7 q 558 243 468 140 q 711 483 649 346 q 774 748 774 621 q 685 875 774 875 q 639 867 664 875 l 318 296 q 351 288 333 288 q 452 330 396 288 q 553 443 508 372 m 281 390 q 293 322 281 347 q 590 846 550 774 q 379 648 478 785 q 281 390 281 511 z "},"":{"ha":694,"x_min":-315,"x_max":785,"o":"m 503 21 q 589 48 531 21 q 692 103 647 75 l 736 131 q 738 119 738 128 q 725 106 738 111 q 464 -22 538 -22 q 415 39 415 -22 q 556 353 415 149 q 407 196 503 289 q 129 10 215 10 q 78 33 96 10 q 60 83 60 56 q 117 252 60 143 q 245 462 175 361 q 373 668 315 563 q 431 829 431 774 q 386 915 431 885 q 265 946 342 946 q 86 905 189 946 q -94 805 -17 864 q -222 682 -171 746 q -274 572 -274 618 q -168 507 -274 507 q 50 586 -62 507 q 247 782 163 665 q 261 793 254 793 l 263 793 q 269 782 269 789 q 197 669 269 749 q 14 519 125 590 q -183 449 -97 449 q -315 539 -315 449 q -263 668 -315 594 q -129 808 -211 742 q 67 919 -47 874 q 277 965 181 965 q 432 930 374 965 q 490 810 490 894 q 307 456 490 724 q 182 251 239 357 q 125 97 125 146 q 161 47 125 47 q 250 88 193 47 q 367 186 307 129 q 567 403 486 304 l 601 443 l 725 613 q 753 628 735 628 l 776 626 q 785 621 785 626 q 633 378 785 615 q 481 54 481 142 q 486 31 481 39 q 503 21 492 22 m 764 794 q 742 803 758 794 l 624 878 q 615 896 615 886 q 635 915 615 915 q 649 910 643 915 l 758 819 q 764 794 778 800 z "},"":{"ha":694,"x_min":-315,"x_max":829,"o":"m 503 21 q 589 48 531 21 q 692 103 647 75 l 736 131 q 738 119 738 128 q 725 106 738 111 q 464 -22 538 -22 q 415 39 415 -22 q 556 353 415 149 q 407 196 503 289 q 129 10 215 10 q 78 33 96 10 q 60 83 60 56 q 117 252 60 143 q 245 462 175 361 q 373 668 315 563 q 431 829 431 774 q 386 915 431 885 q 265 946 342 946 q 86 905 189 946 q -94 805 -17 864 q -222 682 -171 746 q -274 572 -274 618 q -168 507 -274 507 q 50 586 -62 507 q 247 782 163 665 q 261 793 254 793 l 263 793 q 269 782 269 789 q 197 669 269 749 q 14 519 125 590 q -183 449 -97 449 q -315 539 -315 449 q -263 668 -315 594 q -129 808 -211 742 q 67 919 -47 874 q 277 965 181 965 q 432 930 374 965 q 490 810 490 894 q 307 456 490 724 q 182 251 239 357 q 125 97 125 146 q 161 47 125 47 q 250 88 193 47 q 367 186 307 129 q 567 403 486 304 l 601 443 l 725 613 q 753 628 735 628 l 776 626 q 785 621 785 626 q 633 378 785 615 q 481 54 481 142 q 486 31 481 39 q 503 21 492 22 m 681 835 q 674 843 674 838 q 686 860 675 849 l 796 950 q 810 956 801 956 q 829 936 829 956 q 821 918 829 926 l 703 843 q 681 835 686 835 z "},"":{"ha":694,"x_min":-315,"x_max":822,"o":"m 503 21 q 589 48 531 21 q 692 103 647 75 l 736 131 q 738 119 738 128 q 725 106 738 111 q 464 -22 538 -22 q 415 39 415 -22 q 556 353 415 149 q 407 196 503 289 q 129 10 215 10 q 78 33 96 10 q 60 83 60 56 q 117 252 60 143 q 245 462 175 361 q 373 668 315 563 q 431 829 431 774 q 386 915 431 885 q 265 946 342 946 q 86 905 189 946 q -94 805 -17 864 q -222 682 -171 746 q -274 572 -274 618 q -168 507 -274 507 q 50 586 -62 507 q 247 782 163 665 q 261 793 254 793 l 263 793 q 269 782 269 789 q 197 669 269 749 q 14 519 125 590 q -183 449 -97 449 q -315 539 -315 449 q -263 668 -315 594 q -129 808 -211 742 q 67 919 -47 874 q 277 965 181 965 q 432 930 374 965 q 490 810 490 894 q 307 456 490 724 q 182 251 239 357 q 125 97 125 146 q 161 47 125 47 q 250 88 193 47 q 367 186 307 129 q 567 403 486 304 l 601 443 l 725 613 q 753 628 735 628 l 776 626 q 785 621 785 626 q 633 378 785 615 q 481 54 481 142 q 486 31 481 39 q 503 21 492 22 m 743 915 q 575 839 588 839 q 563 845 563 839 q 656 907 563 851 q 760 963 749 963 q 794 904 771 963 q 822 833 817 846 q 811 825 818 825 q 757 892 797 825 l 743 915 z "},"":{"ha":694,"x_min":-315,"x_max":832,"o":"m 503 21 q 589 48 531 21 q 692 103 647 75 l 736 131 q 738 119 738 128 q 725 106 738 111 q 464 -22 538 -22 q 415 39 415 -22 q 556 353 415 149 q 407 196 503 289 q 129 10 215 10 q 78 33 96 10 q 60 83 60 56 q 117 252 60 143 q 245 462 175 361 q 373 668 315 563 q 431 829 431 774 q 386 915 431 885 q 265 946 342 946 q 86 905 189 946 q -94 805 -17 864 q -222 682 -171 746 q -274 572 -274 618 q -168 507 -274 507 q 50 586 -62 507 q 247 782 163 665 q 261 793 254 793 l 263 793 q 269 782 269 789 q 197 669 269 749 q 14 519 125 590 q -183 449 -97 449 q -315 539 -315 449 q -263 668 -315 594 q -129 808 -211 742 q 67 919 -47 874 q 277 965 181 965 q 432 930 374 965 q 490 810 490 894 q 307 456 490 724 q 182 251 239 357 q 125 97 125 146 q 161 47 125 47 q 250 88 193 47 q 367 186 307 129 q 567 403 486 304 l 601 443 l 725 613 q 753 628 735 628 l 776 626 q 785 621 785 626 q 633 378 785 615 q 481 54 481 142 q 486 31 481 39 q 503 21 492 22 m 811 957 q 832 936 832 957 q 813 894 832 915 q 769 872 793 872 q 750 899 750 872 q 772 942 750 926 q 811 957 794 957 m 665 971 q 686 950 686 971 q 667 908 686 929 q 624 886 647 886 q 604 913 604 886 q 626 956 604 940 q 665 971 649 971 z "},"":{"ha":646,"x_min":-289,"x_max":828,"o":"m 501 861 q 465 701 501 788 q 375 540 428 615 q 269 392 322 464 q 143 139 143 221 q 158 98 143 114 q 199 82 172 82 q 660 442 331 82 q 733 533 708 493 l 742 544 q 761 560 751 560 q 794 539 794 556 q 790 526 794 533 l 726 424 q 610 233 717 408 q 440 -40 503 58 q 592 -22 515 -22 q 671 -65 668 -22 q 651 -104 671 -89 q 601 -129 619 -129 q 583 -125 583 -129 q 594 -115 583 -121 q 610 -106 606 -110 q 621 -99 615 -103 q 633 -81 633 -89 q 564 -61 633 -61 q 413 -83 494 -61 q -51 -614 74 -614 q -87 -569 -87 -614 q 48 -303 -87 -471 q 372 -62 183 -136 q 512 178 425 26 q 622 369 599 331 q 403 161 522 257 q 287 83 351 118 q 175 49 222 49 q 141 53 157 49 q 108 77 125 57 q 90 145 90 97 q 126 269 90 193 q 215 416 163 344 q 319 558 267 488 q 443 825 443 725 q 405 940 443 904 q 278 976 367 976 q 91 935 189 976 q -77 835 -7 894 q -192 713 -147 776 q -236 604 -236 650 q -153 540 -236 540 q 242 796 51 540 q 255 810 249 810 q 261 793 261 810 q 220 725 261 776 q 119 618 179 674 q -21 521 60 563 q -169 479 -101 479 q -289 569 -289 479 q -239 701 -289 626 q -108 843 -189 775 q 88 958 -28 911 q 322 1004 204 1004 q 409 990 372 1004 q 464 954 446 975 q 500 875 496 914 l 501 861 m -39 -522 q -18 -551 -39 -551 q 346 -107 78 -551 q 71 -310 181 -174 q -39 -522 -39 -446 m 679 781 q 672 789 672 783 q 685 806 674 794 l 794 896 q 808 901 800 901 q 828 882 828 901 q 819 864 828 872 l 701 789 q 679 781 685 781 z "},"":{"ha":460,"x_min":-237,"x_max":906,"o":"m 714 1042 q 640 906 714 1036 l 642 906 q 906 761 906 906 q 811 558 906 674 q 560 339 717 443 q 235 179 403 235 q 136 6 149 29 q 101 -26 124 -17 q 67 -36 79 -36 q 56 -29 56 -36 l 161 158 q 50 138 106 144 q 42 155 42 138 q 57 174 42 172 q 181 193 114 178 l 554 857 q 236 781 408 849 q -58 615 64 714 q -179 428 -179 515 q -82 350 -179 350 q 112 408 0 350 q 313 561 224 465 q 333 579 324 579 q 342 569 342 579 q 260 472 342 538 q 63 351 178 406 q -131 296 -53 296 q -237 406 -237 296 q -103 608 -237 496 q 225 803 32 719 q 581 901 418 886 l 647 1021 q 672 1040 651 1032 q 707 1047 693 1047 l 714 1042 m 254 215 q 656 449 474 290 q 838 726 838 608 q 614 857 838 851 q 254 215 379 433 z "},"":{"ha":438,"x_min":-267,"x_max":519,"o":"m -199 -456 q -237 -489 -207 -489 q -267 -469 -267 -489 q -174 -247 -267 -435 q 40 155 -82 -60 q 294 542 161 369 q 493 715 426 715 q 512 704 504 715 q 519 681 519 693 q 459 553 519 647 q 296 338 399 460 q 351 344 331 344 q 438 268 438 344 q 350 58 438 188 q 140 -174 263 -72 q -74 -278 17 -275 q -92 -272 -85 -278 q -100 -258 -100 -265 q -67 -242 -100 -242 q 120 -147 10 -240 q 310 63 231 -54 q 390 250 390 181 q 326 308 390 308 q 268 300 301 308 q 244 290 254 290 q 231 298 231 290 q 251 317 231 306 q 468 660 468 575 q 458 667 468 667 q 259 421 424 667 q -57 -99 94 175 q -208 -440 -208 -372 q -203 -449 -208 -446 q -199 -456 -199 -451 z "},"":{"ha":421,"x_min":-22,"x_max":463,"o":"m 263 165 q 254 175 254 165 l 258 185 q 283 225 283 208 q 261 246 283 246 q 130 178 213 246 q 47 58 47 111 q 76 36 47 36 q 144 60 106 36 q 209 109 182 85 q 239 133 236 133 q 253 119 253 132 q 231 83 253 114 q 210 35 210 53 q 233 21 210 21 q 314 48 256 21 q 417 103 372 75 l 461 131 q 463 119 463 128 q 450 106 463 111 q 189 -22 263 -22 q 153 14 153 -22 q 158 46 153 29 q 101 12 149 35 q 15 -11 53 -11 q -22 24 -22 -11 q 92 191 -22 106 q 283 276 206 276 q 329 238 329 276 q 301 190 329 215 q 263 165 274 165 m 375 299 q 353 307 369 299 l 235 382 q 226 400 226 390 q 246 419 226 419 q 260 414 254 419 l 369 324 q 375 299 389 304 z "},"":{"ha":421,"x_min":-22,"x_max":463,"o":"m 263 165 q 301 190 274 165 q 329 238 329 215 q 283 276 329 276 q 92 191 206 276 q -22 24 -22 106 q 15 -11 -22 -11 q 101 12 53 -11 q 158 46 149 35 q 153 14 153 29 q 188 -22 153 -22 q 288 10 222 -22 q 401 74 353 42 l 450 106 q 463 124 463 111 l 461 131 q 228 21 292 21 q 210 35 210 21 q 231 83 210 53 q 253 119 253 114 q 239 133 253 132 q 208 108 236 133 q 75 36 128 36 q 47 58 47 36 q 130 178 47 111 q 261 246 213 246 q 283 225 283 246 q 258 185 283 208 q 254 175 254 181 q 263 165 254 165 m 299 328 q 292 336 292 331 q 304 353 293 342 l 414 443 q 428 449 419 449 q 447 429 447 449 q 439 411 447 419 l 321 336 q 299 328 304 328 z "},"":{"ha":421,"x_min":-22,"x_max":463,"o":"m 263 165 q 254 175 254 165 l 258 185 q 283 225 283 208 q 261 246 283 246 q 130 178 213 246 q 47 58 47 111 q 76 36 47 36 q 144 60 106 36 q 209 109 182 85 q 239 133 236 133 q 253 119 253 132 q 231 83 253 114 q 210 35 210 53 q 233 21 210 21 q 314 48 256 21 q 417 103 372 75 l 461 131 q 463 119 463 128 q 450 106 463 111 q 189 -22 263 -22 q 153 14 153 -22 q 158 46 153 29 q 101 12 149 35 q 15 -11 53 -11 q -22 24 -22 -11 q 92 191 -22 106 q 283 276 206 276 q 329 238 329 276 q 301 190 329 215 q 263 165 274 165 m 318 378 q 150 301 163 301 q 138 308 138 301 q 231 369 138 314 q 335 425 324 425 q 369 367 346 425 q 397 296 392 308 q 386 288 393 288 q 332 356 375 288 l 318 378 z "},"":{"ha":421,"x_min":-22,"x_max":463,"o":"m 263 165 q 301 190 274 165 q 329 238 329 215 q 283 276 329 276 q 92 191 206 276 q -22 24 -22 106 q 15 -11 -22 -11 q 101 12 53 -11 q 158 46 149 35 q 153 14 153 29 q 188 -22 153 -22 q 288 10 222 -22 q 401 74 353 42 l 450 106 q 463 124 463 111 l 461 131 q 228 21 292 21 q 210 35 210 21 q 231 83 210 53 q 253 119 253 114 q 239 133 253 132 q 208 108 236 133 q 75 36 128 36 q 47 58 47 36 q 130 178 47 111 q 261 246 213 246 q 283 225 283 246 q 258 185 283 208 q 254 175 254 181 q 263 165 254 165 m 400 388 q 378 351 400 367 q 331 336 357 336 q 260 362 304 336 q 198 388 215 388 q 163 374 181 388 q 138 361 144 361 l 135 363 q 160 396 135 372 q 213 419 186 419 q 286 391 239 419 q 351 363 333 363 q 382 377 368 363 q 398 392 396 392 q 400 388 400 392 z "},"":{"ha":421,"x_min":-22,"x_max":463,"o":"m 263 165 q 254 175 254 165 l 258 185 q 283 225 283 208 q 261 246 283 246 q 130 178 213 246 q 47 58 47 111 q 76 36 47 36 q 144 60 106 36 q 209 109 182 85 q 239 133 236 133 q 253 119 253 132 q 231 83 253 114 q 210 35 210 53 q 233 21 210 21 q 314 48 256 21 q 417 103 372 75 l 461 131 q 463 119 463 128 q 450 106 463 111 q 189 -22 263 -22 q 153 14 153 -22 q 158 46 153 29 q 101 12 149 35 q 15 -11 53 -11 q -22 24 -22 -11 q 92 191 -22 106 q 283 276 206 276 q 329 238 329 276 q 301 190 329 215 q 263 165 274 165 m 394 410 q 415 389 415 410 q 396 347 415 368 q 353 325 376 325 q 333 352 333 325 q 356 394 333 379 q 394 410 378 410 m 249 424 q 269 403 269 424 q 250 360 269 382 q 207 339 231 339 q 188 366 188 339 q 210 408 188 393 q 249 424 232 424 z "},"":{"ha":421,"x_min":-22,"x_max":463,"o":"m 263 165 q 301 190 274 165 q 329 238 329 215 q 283 276 329 276 q 92 191 206 276 q -22 24 -22 106 q 15 -11 -22 -11 q 101 12 53 -11 q 158 46 149 35 q 153 14 153 29 q 188 -22 153 -22 q 288 10 222 -22 q 401 74 353 42 l 450 106 q 463 124 463 111 l 461 131 q 228 21 292 21 q 210 35 210 21 q 231 83 210 53 q 253 119 253 114 q 239 133 253 132 q 208 108 236 133 q 75 36 128 36 q 47 58 47 36 q 130 178 47 111 q 261 246 213 246 q 283 225 283 246 q 258 185 283 208 q 254 175 254 181 q 263 165 254 165 m 347 310 q 335 310 347 310 q 312 322 324 310 q 300 355 300 335 q 321 404 300 375 q 369 433 342 433 q 421 386 421 433 q 395 335 421 360 q 347 310 369 310 m 371 407 q 339 391 351 407 q 326 363 326 375 q 333 342 326 350 q 354 335 340 335 q 381 349 368 335 q 394 381 394 364 q 371 407 394 407 z "},"":{"ha":581,"x_min":-22,"x_max":622,"o":"m 189 -22 q 153 14 153 -22 q 158 46 153 29 q 101 12 149 35 q 15 -11 53 -11 q -22 24 -22 -11 q 92 191 -22 106 q 283 276 206 276 q 326 253 317 276 q 535 332 438 332 q 575 307 575 332 q 554 276 575 293 q 514 250 533 260 q 492 240 494 240 q 481 247 483 240 q 495 267 478 257 q 513 290 513 278 q 481 303 513 303 q 383 259 450 303 q 317 188 317 215 q 365 167 317 167 q 396 168 374 167 q 418 163 418 169 q 349 113 418 156 q 281 39 281 69 q 326 4 281 4 q 428 28 371 4 q 594 114 519 68 l 621 131 q 622 119 622 128 q 610 106 622 111 q 449 10 536 56 q 283 -35 361 -35 q 228 -14 243 -35 q 189 -22 206 -22 m 342 135 q 258 171 258 135 q 282 215 258 189 q 283 225 283 218 q 261 246 283 246 q 130 178 213 246 q 47 58 47 111 q 76 36 47 36 q 144 60 106 36 q 209 109 182 85 q 239 133 236 133 q 253 119 253 132 q 231 83 253 114 q 210 37 210 53 q 222 21 210 21 q 342 135 232 67 z "},"":{"ha":333,"x_min":-44,"x_max":375,"o":"m 204 39 q 347 114 271 67 l 374 131 q 375 119 375 128 q 363 106 375 111 q 217 19 289 56 q 81 -19 146 -18 l 63 -46 q 90 -78 90 -53 q 47 -136 88 -117 q -35 -156 7 -156 q -44 -149 -44 -156 q -39 -143 -44 -143 q 26 -127 -6 -143 q 58 -85 57 -111 q 28 -58 58 -58 q 57 -18 29 -56 q 0 38 0 -10 q 95 191 0 106 q 283 276 190 276 q 322 243 322 276 q 288 194 322 224 q 226 154 239 154 q 214 165 214 154 q 219 174 214 169 q 251 199 233 182 q 268 229 268 217 q 250 249 268 249 q 136 178 211 249 q 61 65 61 108 q 114 17 61 17 q 190 33 149 17 l 204 39 z "},"":{"ha":317,"x_min":-43,"x_max":358,"o":"m 78 135 q -6 171 -6 135 q 93 273 -6 214 q 271 332 192 332 q 311 307 311 332 q 290 276 311 293 q 250 250 269 260 q 228 240 231 240 q 217 247 219 240 q 231 267 214 257 q 249 290 249 278 q 217 303 249 303 q 119 259 186 303 q 53 188 53 215 q 101 167 53 167 q 132 168 110 167 q 154 163 154 169 q 85 113 154 156 q 17 39 17 69 q 62 4 17 4 q 164 28 107 4 q 331 114 256 68 l 357 131 q 358 119 358 128 q 346 106 358 111 q 185 10 272 56 q 27 -35 97 -35 q -43 12 -43 -35 q 78 135 -43 58 m 299 393 q 276 401 293 393 l 158 476 q 150 494 150 485 q 169 514 150 514 q 183 508 178 514 l 293 418 q 299 393 313 399 z "},"":{"ha":317,"x_min":-43,"x_max":358,"o":"m 78 135 q -43 12 -43 58 q 28 -35 -43 -35 q 325 92 132 -35 l 346 106 q 358 124 358 111 l 357 131 q 185 37 263 69 q 62 4 107 4 q 17 39 17 4 q 85 113 17 69 q 154 163 154 156 q 132 168 154 169 q 101 167 110 167 q 53 188 53 167 q 119 259 53 215 q 217 303 186 303 q 249 289 249 303 q 225 263 249 281 q 215 251 215 258 q 228 240 219 240 q 250 250 231 240 q 290 276 269 260 q 311 307 311 293 q 271 332 311 332 q 93 273 192 332 q -6 171 -6 214 q 78 135 -6 135 m 200 385 q 193 393 193 388 q 206 410 194 399 l 315 500 q 329 506 321 506 q 349 486 349 506 q 340 468 349 476 l 222 393 q 200 385 206 385 z "},"":{"ha":317,"x_min":-43,"x_max":358,"o":"m 78 135 q -6 171 -6 135 q 93 273 -6 214 q 271 332 192 332 q 311 307 311 332 q 290 276 311 293 q 250 250 269 260 q 228 240 231 240 q 217 247 219 240 q 231 267 214 257 q 249 290 249 278 q 217 303 249 303 q 119 259 186 303 q 53 188 53 215 q 101 167 53 167 q 132 168 110 167 q 154 163 154 169 q 85 113 154 156 q 17 39 17 69 q 62 4 17 4 q 164 28 107 4 q 331 114 256 68 l 357 131 q 358 119 358 128 q 346 106 358 111 q 185 10 272 56 q 27 -35 97 -35 q -43 12 -43 -35 q 78 135 -43 58 m 264 446 q 96 369 108 369 q 83 376 83 369 q 176 438 83 382 q 281 493 269 493 q 315 435 292 493 q 343 364 338 376 q 332 356 339 356 q 278 422 318 356 l 264 446 z "},"":{"ha":317,"x_min":-43,"x_max":358,"o":"m 78 135 q -6 171 -6 135 q 93 273 -6 214 q 271 332 192 332 q 311 307 311 332 q 290 276 311 293 q 250 250 269 260 q 228 240 231 240 q 217 247 219 240 q 231 267 214 257 q 249 290 249 278 q 217 303 249 303 q 119 259 186 303 q 53 188 53 215 q 101 167 53 167 q 132 168 110 167 q 154 163 154 169 q 85 113 154 156 q 17 39 17 69 q 62 4 17 4 q 164 28 107 4 q 331 114 256 68 l 357 131 q 358 119 358 128 q 346 106 358 111 q 185 10 272 56 q 27 -35 97 -35 q -43 12 -43 -35 q 78 135 -43 58 m 179 489 q 200 468 200 489 q 181 426 200 447 q 138 404 161 404 q 118 431 118 404 q 140 474 118 458 q 179 489 163 489 m 325 475 q 346 454 346 475 q 326 412 346 433 q 283 390 307 390 q 264 417 264 390 q 286 460 264 444 q 325 475 308 475 z "},"":{"ha":254,"x_min":-14,"x_max":296,"o":"m 118 240 q 138 251 125 251 q 163 239 150 251 q 144 214 163 233 q 83 127 126 194 q 40 38 40 60 q 61 21 40 24 q 147 48 89 21 q 250 103 206 75 l 294 131 q 296 119 296 128 q 283 106 296 111 q 22 -22 96 -22 q -14 14 -14 -22 q 26 115 -14 50 q 118 240 65 179 m 219 290 q 197 299 214 290 l 79 374 q 71 392 71 382 q 90 411 71 411 q 104 406 99 411 l 214 315 q 219 290 233 296 z "},"":{"ha":254,"x_min":-14,"x_max":329,"o":"m 40 38 q 83 127 40 60 q 144 214 126 194 q 163 239 163 233 q 142 251 153 251 q 118 240 126 251 q 26 115 65 179 q -14 14 -14 50 q 21 -22 -14 -22 q 121 10 56 -22 q 235 74 186 42 l 283 106 q 296 124 296 111 l 294 131 q 61 21 125 21 q 40 38 40 21 m 181 311 q 174 319 174 314 q 186 336 175 325 l 296 426 q 310 432 301 432 q 329 413 329 432 q 321 394 329 403 l 203 319 q 181 311 186 311 z "},"":{"ha":254,"x_min":-14,"x_max":296,"o":"m 118 240 q 138 251 125 251 q 163 239 150 251 q 144 214 163 233 q 83 127 126 194 q 40 38 40 60 q 61 21 40 24 q 147 48 89 21 q 250 103 206 75 l 294 131 q 296 119 296 128 q 283 106 296 111 q 22 -22 96 -22 q -14 14 -14 -22 q 26 115 -14 50 q 118 240 65 179 m 207 365 q 39 289 51 289 q 26 295 26 289 q 119 357 26 301 q 224 413 213 413 q 258 354 235 413 q 286 283 281 296 q 275 275 282 275 q 221 342 261 275 l 207 365 z "},"":{"ha":254,"x_min":-14,"x_max":326,"o":"m 118 240 q 138 251 125 251 q 163 239 150 251 q 144 214 163 233 q 83 127 126 194 q 40 38 40 60 q 61 21 40 24 q 147 48 89 21 q 250 103 206 75 l 294 131 q 296 119 296 128 q 283 106 296 111 q 22 -22 96 -22 q -14 14 -14 -22 q 26 115 -14 50 q 118 240 65 179 m 160 424 q 181 403 181 424 q 161 360 181 382 q 118 339 142 339 q 99 366 99 339 q 121 408 99 393 q 160 424 143 424 m 306 410 q 326 389 326 410 q 307 347 326 368 q 264 325 288 325 q 244 352 244 325 q 267 394 244 379 q 306 410 289 410 z "},"":{"ha":382,"x_min":-43,"x_max":651,"o":"m 229 404 l 347 438 q 503 638 425 557 q 626 718 581 718 q 644 706 638 718 q 651 683 651 694 q 535 478 651 642 q 589 485 574 485 q 604 482 604 485 q 592 460 604 472 q 567 446 581 447 l 504 436 q 242 131 374 261 q 232 50 232 93 q 268 7 232 7 q 301 17 278 7 q 327 28 324 28 q 331 25 331 28 q 301 -10 331 8 q 243 -28 272 -28 q 185 50 185 -28 q 186 78 185 68 q 16 -19 75 -19 q -43 21 -43 -19 q 59 170 -43 81 q 253 272 161 260 q 326 404 285 333 q 222 375 310 400 q 215 378 215 375 q 219 388 215 381 q 229 404 228 404 m 24 32 q 47 11 24 11 q 193 115 85 11 q 236 233 211 179 q 96 144 168 217 q 24 32 24 72 m 600 663 q 592 674 600 674 q 513 608 571 674 q 396 449 456 542 q 503 472 456 465 q 600 663 600 613 m 472 431 l 374 414 q 257 178 289 275 q 472 431 371 296 z "},"":{"ha":496,"x_min":-4,"x_max":538,"o":"m 0 106 q 69 154 26 121 q 182 238 175 238 q 203 219 203 238 q 181 164 203 201 q 133 86 160 126 q 101 38 106 46 q 108 36 103 36 q 163 73 113 36 q 267 151 213 110 q 331 198 321 192 q 349 204 340 204 q 365 185 365 203 q 318 115 365 178 q 271 33 271 51 q 301 21 271 21 q 389 48 331 21 q 492 103 447 75 l 536 131 q 538 119 538 128 q 525 106 538 111 q 264 -22 338 -22 q 221 11 221 -22 q 240 72 221 43 q 272 122 258 101 q 286 143 286 142 q 135 33 222 97 q 36 -31 47 -31 q 28 -11 28 -31 q 83 90 28 8 q 138 178 138 172 q 135 183 138 183 l 121 176 l 51 121 q 25 103 44 115 q 1 90 6 90 q -4 97 -4 90 q 0 106 -4 103 m 435 314 q 413 278 435 293 q 365 263 392 263 q 294 288 339 263 q 233 314 250 314 q 197 301 215 314 q 172 288 179 288 l 169 289 q 195 322 169 299 q 247 346 221 346 q 321 317 274 346 q 385 289 368 289 q 417 303 403 289 q 433 318 431 318 q 435 314 435 318 z "},"":{"ha":288,"x_min":-7,"x_max":315,"o":"m 306 97 q 206 71 263 71 l 189 71 q 109 1 151 28 q 36 -26 67 -26 q -7 29 -7 -26 q 53 158 -7 85 q 47 196 47 174 q 90 280 47 244 q 172 315 132 315 q 257 224 257 315 q 204 90 257 163 l 221 90 q 297 111 265 90 q 308 115 301 115 q 315 110 315 115 q 306 97 315 106 m 172 257 q 183 260 179 260 q 188 253 188 260 q 172 236 188 247 q 89 158 117 193 q 182 94 119 110 q 236 214 236 158 q 215 263 236 246 q 162 279 194 279 q 101 260 129 279 q 74 220 74 242 q 78 186 74 199 q 172 257 121 231 m 69 128 q 47 44 47 90 q 69 19 47 19 q 163 75 107 19 q 69 128 100 86 m 315 336 q 293 344 310 336 l 175 419 q 167 438 167 428 q 186 457 167 457 q 200 451 194 457 l 310 361 q 315 336 329 342 z "},"":{"ha":288,"x_min":-7,"x_max":400,"o":"m 306 97 q 315 110 315 106 q 308 115 315 115 q 297 111 301 115 q 221 90 265 90 l 204 90 q 257 216 257 163 q 235 292 257 269 q 172 315 213 315 q 90 280 132 315 q 47 196 47 244 q 53 158 47 174 q -7 29 -7 85 q 36 -26 -7 -26 q 109 1 67 -26 q 189 71 151 28 l 206 71 q 306 97 263 71 m 172 257 q 78 186 121 231 q 74 220 74 199 q 101 260 74 242 q 162 279 129 279 q 215 263 194 279 q 236 214 236 246 q 182 94 236 158 q 89 158 119 110 q 152 220 117 193 q 188 253 188 247 q 183 260 188 260 l 172 257 m 69 128 q 163 75 100 86 q 69 19 107 19 q 47 44 47 19 q 69 128 47 90 m 251 329 q 244 338 244 332 q 257 354 246 343 l 367 444 q 381 450 372 450 q 400 431 400 450 q 392 413 400 421 l 274 338 q 251 329 257 329 z "},"":{"ha":288,"x_min":-7,"x_max":317,"o":"m 306 97 q 206 71 263 71 l 189 71 q 109 1 151 28 q 36 -26 67 -26 q -7 29 -7 -26 q 53 158 -7 85 q 47 196 47 174 q 90 280 47 244 q 172 315 132 315 q 257 224 257 315 q 204 90 257 163 l 221 90 q 297 111 265 90 q 308 115 301 115 q 315 110 315 115 q 306 97 315 106 m 172 257 q 183 260 179 260 q 188 253 188 260 q 172 236 188 247 q 89 158 117 193 q 182 94 119 110 q 236 214 236 158 q 215 263 236 246 q 162 279 194 279 q 101 260 129 279 q 74 220 74 242 q 78 186 74 199 q 172 257 121 231 m 69 128 q 47 44 47 90 q 69 19 47 19 q 163 75 107 19 q 69 128 100 86 m 238 406 q 69 329 82 329 q 57 335 57 329 q 150 397 57 342 q 254 453 243 453 q 288 394 265 453 q 317 324 311 336 q 306 315 313 315 q 251 383 294 315 l 238 406 z "},"":{"ha":288,"x_min":-7,"x_max":368,"o":"m 306 97 q 315 110 315 106 q 308 115 315 115 q 297 111 301 115 q 221 90 265 90 l 204 90 q 257 216 257 163 q 235 292 257 269 q 172 315 213 315 q 90 280 132 315 q 47 196 47 244 q 53 158 47 174 q -7 29 -7 85 q 36 -26 -7 -26 q 109 1 67 -26 q 189 71 151 28 l 206 71 q 306 97 263 71 m 172 257 q 78 186 121 231 q 74 220 74 199 q 101 260 74 242 q 162 279 129 279 q 215 263 194 279 q 236 214 236 246 q 182 94 236 158 q 89 158 119 110 q 152 220 117 193 q 188 253 188 247 q 183 260 188 260 l 172 257 m 69 128 q 163 75 100 86 q 69 19 107 19 q 47 44 47 19 q 69 128 47 90 m 368 401 q 347 365 368 381 q 299 350 325 350 q 228 376 272 350 q 166 401 183 401 q 131 388 149 401 q 106 375 113 375 l 103 376 q 128 410 103 386 q 181 433 154 433 q 254 405 207 433 q 319 376 301 376 q 350 391 336 376 q 366 406 364 406 q 368 401 368 406 z "},"":{"ha":288,"x_min":-7,"x_max":325,"o":"m 306 97 q 206 71 263 71 l 189 71 q 109 1 151 28 q 36 -26 67 -26 q -7 29 -7 -26 q 53 158 -7 85 q 47 196 47 174 q 90 280 47 244 q 172 315 132 315 q 257 224 257 315 q 204 90 257 163 l 221 90 q 297 111 265 90 q 308 115 301 115 q 315 110 315 115 q 306 97 315 106 m 172 257 q 183 260 179 260 q 188 253 188 260 q 172 236 188 247 q 89 158 117 193 q 182 94 119 110 q 236 214 236 158 q 215 263 236 246 q 162 279 194 279 q 101 260 129 279 q 74 220 74 242 q 78 186 74 199 q 172 257 121 231 m 69 128 q 47 44 47 90 q 69 19 47 19 q 163 75 107 19 q 69 128 100 86 m 158 453 q 179 432 179 453 q 160 390 179 411 q 117 368 140 368 q 97 395 97 368 q 119 438 97 422 q 158 453 142 453 m 304 439 q 325 418 325 439 q 306 376 325 397 q 263 354 286 354 q 243 381 243 354 q 265 424 243 408 q 304 439 288 439 z "},"":{"ha":494,"x_min":-32,"x_max":393,"o":"m 381 444 l -11 442 q -32 413 -32 440 q -24 401 -32 404 q 95 399 -15 399 q 372 407 206 399 q 393 438 393 408 q 381 444 393 444 m 165 292 q 152 263 165 276 q 123 249 139 249 q 99 256 107 249 q 91 279 92 263 q 106 307 90 296 q 135 318 121 318 q 165 292 165 318 m 269 561 q 256 532 269 546 q 227 518 243 518 q 203 525 211 518 q 195 549 196 532 q 210 576 194 565 q 239 588 225 588 q 269 561 269 588 z "},"":{"ha":288,"x_min":-18,"x_max":315,"o":"m 306 97 q 206 71 263 71 l 189 71 q 58 -22 122 -4 l 19 -90 q -8 -122 3 -122 q -18 -112 -18 -122 q -12 -93 -18 -101 l 26 -25 q -7 32 -7 -21 q 53 158 -7 85 q 47 196 47 174 q 90 280 47 244 q 179 315 132 315 q 222 303 203 315 l 246 346 q 273 371 260 371 q 286 365 286 371 l 239 286 q 257 224 257 261 q 204 90 257 163 l 221 90 q 297 111 265 90 q 308 115 301 115 q 315 110 315 115 q 306 97 315 106 m 172 257 q 183 260 179 260 q 188 253 188 260 q 172 236 188 247 q 89 158 117 193 q 182 94 119 110 q 236 214 236 158 q 215 263 236 246 q 162 279 194 279 q 101 260 129 279 q 74 220 74 242 q 78 186 74 199 q 172 257 121 231 m 69 128 q 47 44 47 90 q 69 19 47 19 q 163 75 107 19 q 69 128 100 86 z "},"":{"ha":442,"x_min":-12,"x_max":483,"o":"m 174 14 q 197 65 174 29 q 227 111 219 101 q 250 142 235 121 q 22 -8 85 -8 q -12 21 -12 -8 q 128 256 -12 63 q 146 267 135 267 q 178 253 178 257 q 169 236 178 249 q 50 55 50 75 q 64 35 50 35 q 202 124 103 35 q 346 272 301 214 q 364 282 351 282 q 392 271 392 276 q 350 213 376 249 q 307 153 324 176 q 272 104 290 131 q 231 35 238 57 q 253 21 231 21 q 335 48 276 21 q 438 103 393 75 l 482 131 q 483 119 483 128 q 471 106 483 111 q 210 -22 283 -22 q 174 14 174 -22 m 311 324 q 289 332 306 324 l 171 407 q 163 425 163 415 q 182 444 163 444 q 196 439 190 444 l 306 349 q 311 324 325 329 z "},"":{"ha":442,"x_min":-12,"x_max":483,"o":"m 250 142 q 174 14 174 38 q 208 -22 174 -22 q 308 10 243 -22 q 422 74 374 42 l 471 106 q 483 124 483 111 l 482 131 q 249 21 313 21 q 231 35 231 21 q 281 118 239 60 q 350 213 324 176 q 392 271 376 249 q 375 279 392 276 q 346 272 354 283 q 202 124 301 214 q 64 35 103 35 q 50 55 50 35 q 169 236 50 75 q 178 253 178 249 q 146 267 178 257 q 128 256 136 267 q -12 21 -12 63 q 22 -8 -12 -8 q 250 142 85 -8 m 257 311 q 250 319 250 314 q 263 336 251 325 l 372 426 q 386 432 378 432 q 406 413 406 432 q 397 394 406 403 l 279 319 q 257 311 263 311 z "},"":{"ha":442,"x_min":-12,"x_max":483,"o":"m 174 14 q 197 65 174 29 q 227 111 219 101 q 250 142 235 121 q 22 -8 85 -8 q -12 21 -12 -8 q 128 256 -12 63 q 146 267 135 267 q 178 253 178 257 q 169 236 178 249 q 50 55 50 75 q 64 35 50 35 q 202 124 103 35 q 346 272 301 214 q 364 282 351 282 q 392 271 392 276 q 350 213 376 249 q 307 153 324 176 q 272 104 290 131 q 231 35 238 57 q 253 21 231 21 q 335 48 276 21 q 438 103 393 75 l 482 131 q 483 119 483 128 q 471 106 483 111 q 210 -22 283 -22 q 174 14 174 -22 m 325 401 q 157 325 169 325 q 144 331 144 325 q 238 393 144 338 q 342 449 331 449 q 376 390 353 449 q 404 319 399 332 q 393 311 400 311 q 339 378 379 311 l 325 401 z "},"":{"ha":442,"x_min":-12,"x_max":483,"o":"m 174 14 q 197 65 174 29 q 227 111 219 101 q 250 142 235 121 q 22 -8 85 -8 q -12 21 -12 -8 q 128 256 -12 63 q 146 267 135 267 q 178 253 178 257 q 169 236 178 249 q 50 55 50 75 q 64 35 50 35 q 202 124 103 35 q 346 272 301 214 q 364 282 351 282 q 392 271 392 276 q 350 213 376 249 q 307 153 324 176 q 272 104 290 131 q 231 35 238 57 q 253 21 231 21 q 335 48 276 21 q 438 103 393 75 l 482 131 q 483 119 483 128 q 471 106 483 111 q 210 -22 283 -22 q 174 14 174 -22 m 406 426 q 426 406 426 426 q 407 363 426 385 q 364 342 388 342 q 344 369 344 342 q 367 411 344 396 q 406 426 389 426 m 260 440 q 281 419 281 440 q 261 377 281 399 q 218 356 242 356 q 199 383 199 356 q 221 425 199 410 q 260 440 243 440 z "},"":{"ha":346,"x_min":-317,"x_max":394,"o":"m 129 -96 q 274 138 257 113 q 323 210 292 163 q 354 260 354 258 q 328 274 354 269 l 307 264 q 128 79 228 154 q 51 35 69 35 q 32 51 32 35 q 157 247 32 78 q 165 264 165 260 q 133 278 165 268 q 115 267 124 278 q -31 21 -31 65 q 1 -8 -31 -8 q 86 25 33 -8 q 178 92 139 58 l 215 125 q 82 -106 157 19 q -191 -295 -65 -147 q -317 -526 -317 -443 q -269 -575 -317 -575 q -112 -458 -204 -575 q 106 -135 -21 -342 q 158 -131 131 -131 q 185 -147 185 -131 q 169 -174 185 -162 q 154 -192 154 -186 q 168 -201 154 -201 q 207 -175 182 -201 q 232 -129 232 -149 q 165 -94 232 -94 q 129 -96 140 -94 m -247 -535 q -269 -506 -269 -535 q -246 -428 -269 -478 q -182 -324 -222 -379 q -77 -219 -142 -269 q 57 -146 -12 -168 q -247 -535 -178 -535 m 246 324 q 239 332 239 326 q 251 349 240 338 l 361 439 q 375 444 367 444 q 394 425 394 444 q 386 407 394 415 l 268 332 q 246 324 251 324 z "},"":{"ha":390,"x_min":-415,"x_max":468,"o":"m 163 219 q 322 274 257 274 q 386 219 386 274 q 294 66 386 146 q 110 -14 201 -14 q 89 -6 101 -14 q 76 22 76 3 q 108 68 76 42 q 145 94 139 94 q 158 92 151 94 q 170 85 164 90 q 176 75 176 79 q 169 64 176 71 q 140 38 156 54 q 124 16 124 22 q 138 10 124 10 q 196 30 151 10 q 285 97 240 50 q 329 199 329 143 q 289 233 329 233 q 142 183 226 233 q -6 -69 1 -56 q -221 -416 -126 -292 q -390 -540 -315 -540 q -415 -510 -415 -540 q -256 -174 -415 -387 q 86 171 -96 39 l 378 674 q 326 631 363 656 l 247 576 q 232 574 239 574 q 224 581 225 574 q 417 731 354 663 q 433 751 432 747 q 453 754 438 756 q 468 740 468 753 q 464 729 468 736 l 163 219 m -46 -58 q 64 132 -3 18 q -235 -192 -94 10 q -376 -487 -376 -393 q -368 -500 -376 -500 q -46 -58 -281 -500 z "},"":{"ha":346,"x_min":-317,"x_max":390,"o":"m 354 260 q 323 210 354 258 q 274 138 292 163 q 129 -96 257 113 q 165 -94 140 -94 q 232 -129 232 -94 q 207 -175 232 -149 q 168 -201 182 -201 q 154 -192 154 -201 q 169 -174 154 -186 q 185 -147 185 -162 q 158 -131 185 -131 q 106 -135 131 -131 q -112 -458 -21 -342 q -269 -575 -204 -575 q -317 -526 -317 -575 q -191 -295 -317 -443 q 82 -106 -65 -147 l 215 125 q 95 32 157 72 q 1 -8 33 -8 q -31 21 -31 -8 q 115 267 -31 65 q 133 278 122 278 q 165 264 165 268 q 157 247 165 260 q 32 51 32 78 q 51 35 32 35 q 128 79 69 35 q 229 169 188 124 l 307 264 q 328 274 315 274 q 354 260 354 269 m -182 -324 q -202 -352 -182 -324 q -246 -428 -222 -379 q -269 -506 -269 -478 q -247 -535 -269 -535 q 57 -146 -178 -535 q -77 -219 -12 -168 q -182 -324 -142 -269 m 224 424 q 244 403 244 424 q 225 360 244 382 q 182 339 206 339 q 163 366 163 339 q 185 408 163 393 q 224 424 207 424 m 369 410 q 390 389 390 410 q 371 347 390 368 q 328 325 351 325 q 308 352 308 325 q 331 394 308 379 q 369 410 353 410 z "},"":{"ha":254,"x_min":-14,"x_max":296,"o":"m 118 240 q 138 251 125 251 q 163 239 150 251 q 144 214 163 233 q 83 127 126 194 q 40 38 40 60 q 61 21 40 24 q 147 48 89 21 q 250 103 206 75 l 294 131 q 296 119 296 128 q 283 106 296 111 q 22 -22 96 -22 q -14 14 -14 -22 q 26 115 -14 50 q 118 240 65 179 z "},"":{"ha":694,"x_min":-425,"x_max":1233,"o":"m 1222 872 l 1172 875 l 1156 875 q 1051 741 1131 803 q 889 679 972 679 q 843 715 843 679 q 927 834 843 768 q 1131 911 1011 900 l 1131 914 q 1010 986 1131 986 q 871 953 949 986 q 753 858 833 936 q 678 765 725 833 q 597 638 631 696 q 500 461 549 551 q 636 485 613 485 q 660 482 660 485 q 648 460 660 472 q 613 444 636 447 q 538 433 590 442 q 481 424 486 424 q 261 71 351 186 q 360 69 307 71 q 522 64 413 67 q 652 60 631 61 q 674 53 674 58 q 607 8 674 13 q 217 17 424 14 q -321 -246 -12 -246 q -397 -223 -368 -246 q -425 -165 -425 -200 q -392 -92 -425 -129 q -289 -18 -358 -54 q -93 42 -219 18 q 197 69 33 67 q 404 408 283 186 q 278 375 344 396 q 271 378 271 375 q 275 388 271 381 q 285 404 283 404 q 422 442 353 424 q 676 836 594 751 q 893 986 794 956 q 1026 1007 956 1007 q 1163 918 1163 1007 l 1163 913 q 1226 907 1200 913 q 1233 885 1235 899 q 1222 872 1232 872 m -299 -219 q 156 17 -43 -219 q -367 -103 -243 13 q -399 -159 -399 -132 q -372 -203 -399 -186 q -299 -219 -344 -219 m 913 701 q 1028 757 961 701 q 1121 872 1096 813 q 952 810 1019 860 q 885 724 885 761 q 913 701 885 701 z "},"":{"ha":268,"x_min":-33,"x_max":521,"o":"m -22 344 q 3 350 -18 344 q 122 383 58 368 q 324 635 218 529 q 494 742 431 742 q 521 704 521 742 q 423 514 521 646 q 213 267 325 382 q 39 108 100 151 q 36 78 36 86 q 38 61 36 71 q 49 36 39 51 q 81 21 58 21 q 163 48 104 21 q 265 103 221 75 l 310 131 q 311 119 311 128 q 299 106 311 111 q 38 -22 111 -22 q -25 46 -25 -22 q 101 351 -25 149 q -29 321 26 336 q -33 322 -33 321 q -28 335 -33 326 q -22 344 -24 344 m 471 671 q 453 701 469 701 q 328 610 411 701 q 167 393 244 518 q 260 410 240 410 q 281 407 281 410 q 272 389 281 399 q 246 377 263 379 q 146 360 229 375 q 46 139 68 226 q 196 278 104 186 q 376 488 288 369 q 471 671 465 606 z "},"":{"ha":1047,"x_min":0,"x_max":1421,"o":"m 553 443 q 566 454 558 454 q 574 446 574 454 q 477 324 574 407 q 311 240 381 240 q 229 372 229 240 q 315 606 229 475 q 518 828 401 738 q 719 918 635 918 q 808 865 778 918 q 1165 1022 1019 1022 q 1283 942 1283 1022 q 1282 929 1283 933 q 1374 949 1343 949 q 1413 947 1404 949 q 1421 929 1421 944 q 1410 911 1421 914 q 1271 888 1346 911 q 1163 751 1240 814 q 1017 688 1086 688 q 979 710 979 688 q 1060 810 979 744 q 1240 915 1142 876 q 1242 925 1242 918 q 1156 988 1242 988 q 944 913 1069 988 q 724 738 818 839 q 629 568 629 638 q 790 481 629 481 q 953 525 885 481 q 963 531 957 531 q 972 516 972 531 q 963 497 972 501 q 675 317 789 418 q 587 209 626 274 q 547 90 547 144 q 576 -1 547 35 q 682 -36 604 -36 q 742 -28 708 -35 q 854 19 775 -21 q 1006 126 933 60 q 1024 140 1017 140 q 1032 129 1032 139 q 967 57 1032 106 q 803 -33 901 8 q 632 -75 706 -75 q 488 -3 526 -75 q 472 62 472 26 q 488 136 472 97 q 154 -33 296 -33 q 0 186 0 -33 q 53 449 0 319 q 181 671 106 579 q 341 835 257 763 q 490 942 425 907 q 581 978 554 978 q 590 969 588 978 q 574 956 590 958 q 408 860 496 929 q 241 692 319 790 q 110 461 163 594 q 58 192 58 328 q 189 7 58 7 q 352 63 260 7 q 531 213 444 119 q 854 463 638 361 q 733 449 789 449 q 558 546 558 449 q 614 677 558 601 q 760 826 669 753 q 686 875 738 875 q 519 799 615 875 q 352 608 424 724 q 281 390 281 492 q 351 288 281 288 q 452 330 396 288 q 553 443 508 372 m 1025 726 q 1047 714 1025 714 q 1146 765 1089 714 q 1228 872 1203 815 q 1086 794 1147 839 q 1025 726 1025 749 z "},"":{"ha":561,"x_min":-7,"x_max":603,"o":"m 206 71 l 189 71 q 109 1 151 28 q 36 -26 67 -26 q -7 29 -7 -26 q 53 158 -7 85 q 47 196 47 174 q 90 280 47 244 q 172 315 132 315 q 257 224 257 315 q 256 208 257 213 q 372 292 292 253 q 515 332 453 332 q 556 307 556 332 q 535 276 556 293 q 494 250 514 260 q 472 240 475 240 q 461 247 464 240 q 476 267 458 257 q 493 290 493 278 q 462 303 493 303 q 364 259 431 303 q 297 188 297 215 q 346 167 297 167 q 376 168 354 167 q 399 163 399 169 q 330 113 399 156 q 261 39 261 69 q 306 4 261 4 q 408 28 351 4 q 575 114 500 68 l 601 131 q 603 119 603 128 q 590 106 603 111 q 429 10 517 56 q 272 -35 342 -35 q 201 11 201 -35 q 239 72 201 39 q 206 71 228 71 m 172 257 q 183 260 179 260 q 188 253 188 260 q 172 236 188 247 q 89 158 117 193 q 182 94 119 110 q 236 214 236 158 q 215 263 236 246 q 162 279 194 279 q 101 260 129 279 q 74 220 74 242 q 78 186 74 199 q 172 257 121 231 m 69 128 q 47 44 47 90 q 69 19 47 19 q 163 75 107 19 q 69 128 100 86 m 322 135 q 242 157 257 135 q 204 90 229 125 l 221 90 q 267 96 246 90 q 322 135 289 114 z "},"":{"ha":632,"x_min":-208,"x_max":1025,"o":"m 647 653 q 593 700 593 653 q 674 836 593 772 q 865 940 754 900 q 815 1002 856 981 q 716 1024 775 1024 q 594 1001 657 1024 q 474 938 531 979 q 383 830 418 897 q 347 682 347 763 q 389 519 347 654 q 431 296 431 385 q 425 232 431 274 q 501 238 478 238 q 636 167 636 238 q 621 125 636 142 q 569 86 606 108 q 558 99 558 93 q 564 108 558 104 q 606 156 606 132 q 496 203 606 203 q 418 197 456 203 q 330 31 394 108 q 186 -94 265 -46 q 27 -168 107 -142 q -114 -194 -53 -194 q -208 -139 -208 -194 q -111 18 -208 -61 q 120 151 -14 97 q 383 226 254 204 q 389 289 389 265 q 345 476 389 349 q 301 694 301 603 q 374 877 301 786 q 545 1017 446 968 q 733 1065 644 1065 q 888 947 874 1065 q 993 972 965 972 q 1023 970 1021 972 q 1025 954 1025 968 q 1013 936 1025 940 q 889 918 950 933 q 804 729 886 806 q 647 653 722 653 m -154 -104 q -74 -144 -154 -144 q 178 -64 39 -144 q 301 42 246 -25 q 376 192 356 110 q 140 129 258 172 q -67 23 21 86 q -154 -104 -154 -40 m 638 708 q 665 682 638 682 q 792 753 718 682 q 868 911 867 825 q 704 826 771 881 q 638 708 638 772 m 836 1147 q 1004 1224 992 1224 q 1017 1217 1017 1224 q 924 1156 1017 1211 q 819 1100 831 1100 q 785 1158 808 1100 q 757 1229 763 1217 q 768 1238 761 1238 q 822 1169 779 1238 l 836 1147 z "},"":{"ha":274,"x_min":-29,"x_max":378,"o":"m 85 151 q 0 90 18 90 q -6 96 -6 90 q -1 106 -6 101 q 76 164 32 124 q 69 200 69 181 q 118 290 69 247 q 200 333 167 333 q 218 316 218 333 q 163 232 218 299 q 150 218 157 225 q 135 202 143 211 q 124 189 128 193 q 149 165 131 182 q 178 136 167 147 q 208 60 208 106 q 151 -20 208 14 q 33 -54 94 -54 q -29 -17 -29 -54 q 28 50 -29 19 q 147 92 85 81 q 116 121 139 103 q 85 151 93 139 m 197 417 q 365 493 353 493 q 378 487 378 493 q 285 425 378 481 q 181 369 192 369 q 147 428 169 369 q 118 499 124 486 q 129 507 122 507 q 183 439 140 507 l 197 417 m 157 75 q 68 49 110 69 q 26 2 26 29 q 65 -25 26 -25 q 133 -7 103 -25 q 163 33 163 11 q 157 75 163 56 m 114 200 l 150 239 q 186 291 186 282 q 178 300 186 300 q 129 277 154 300 q 104 233 104 254 q 114 200 104 211 z "},"":{"ha":646,"x_min":-294,"x_max":872,"o":"m 496 861 q 459 701 496 788 q 369 540 422 615 q 264 392 317 464 q 138 139 138 221 q 152 98 138 114 q 193 82 167 82 q 654 442 325 82 q 728 533 703 493 l 736 544 q 756 560 746 560 q 789 539 789 556 q 785 526 789 533 l 721 424 q 604 233 711 408 q 435 -40 497 58 q 586 -22 510 -22 q 665 -65 663 -22 q 646 -104 665 -89 q 596 -129 614 -129 q 578 -125 578 -129 q 589 -115 578 -121 q 605 -106 600 -110 q 615 -99 610 -103 q 628 -81 628 -89 q 558 -61 628 -61 q 407 -83 489 -61 q -57 -614 68 -614 q -93 -569 -93 -614 q 42 -303 -93 -471 q 367 -62 178 -136 q 506 178 419 26 q 617 369 593 331 q 397 161 517 257 q 281 83 346 118 q 169 49 217 49 q 135 53 151 49 q 102 77 119 57 q 85 145 85 97 q 121 269 85 193 q 209 416 157 344 q 314 558 261 488 q 438 825 438 725 q 399 940 438 904 q 272 976 361 976 q 85 935 183 976 q -83 835 -12 894 q -197 713 -153 776 q -242 604 -242 650 q -158 540 -242 540 q 236 796 46 540 q 249 810 243 810 q 256 793 256 810 q 215 725 256 776 q 114 618 174 674 q -26 521 54 563 q -175 479 -107 479 q -294 569 -294 479 q -244 701 -294 626 q -114 843 -194 775 q 83 958 -33 911 q 317 1004 199 1004 q 403 990 367 1004 q 458 954 440 975 q 494 875 490 914 l 496 861 m -44 -522 q -24 -551 -44 -551 q 340 -107 72 -551 q 65 -310 175 -174 q -44 -522 -44 -446 m 706 972 q 726 951 726 972 q 707 909 726 931 q 664 888 688 888 q 644 915 644 888 q 667 957 644 942 q 706 972 689 972 m 851 958 q 872 938 872 958 q 853 895 872 917 q 810 874 833 874 q 790 901 790 874 q 813 943 790 928 q 851 958 835 958 z "},"":{"ha":879,"x_min":0,"x_max":958,"o":"m 876 -14 q 795 11 876 11 q 621 -24 714 11 q 458 -297 572 -156 q 228 -524 343 -437 q 49 -611 113 -611 q 0 -553 0 -611 q 184 -283 0 -461 q 576 -10 368 -104 q 593 110 593 57 q 504 236 593 208 q 150 50 288 50 q 74 83 74 50 q 133 163 74 117 q 287 245 192 210 q 469 281 382 281 q 513 278 488 281 q 752 567 653 408 q 851 836 851 725 q 647 990 851 990 q 392 920 526 990 q 174 760 258 850 q 89 610 89 671 q 163 529 89 529 q 322 582 225 529 q 494 701 419 635 q 579 804 569 767 q 588 819 582 819 q 594 808 594 819 q 513 677 594 758 q 321 533 432 596 q 135 471 210 471 q 42 575 42 471 q 99 711 42 633 q 244 859 156 789 q 456 978 333 929 q 697 1026 579 1026 q 918 865 918 1026 q 809 581 918 749 q 544 271 700 414 q 650 124 650 240 q 633 14 650 69 q 826 54 743 54 q 910 7 910 54 q 883 -49 910 -26 q 838 -72 856 -72 q 819 -65 819 -72 q 829 -54 819 -57 q 858 -38 839 -51 q 876 -14 876 -25 m 53 -533 q 81 -561 53 -561 q 224 -492 129 -561 q 421 -297 319 -422 q 565 -46 522 -172 q 215 -291 376 -129 q 53 -533 53 -453 m 475 243 q 410 247 453 247 q 296 222 367 247 q 178 163 225 196 q 132 108 132 131 q 186 86 132 86 q 475 243 297 86 m 778 1122 q 946 1199 933 1199 q 958 1192 958 1199 q 865 1131 958 1186 q 761 1075 772 1075 q 727 1133 750 1075 q 699 1204 704 1192 q 710 1213 703 1213 q 764 1144 721 1213 l 778 1122 z "},"":{"ha":336,"x_min":-210,"x_max":401,"o":"m 233 256 q 274 226 274 256 q 208 138 274 197 q 119 65 143 79 q 166 69 132 69 q 233 47 200 69 q 265 -6 265 24 q 260 -57 265 -36 q 319 -51 286 -51 q 386 -86 386 -51 q 360 -135 386 -106 q 321 -165 335 -165 q 307 -156 307 -165 q 322 -138 307 -150 q 338 -110 338 -126 q 311 -87 338 -87 q 250 -94 285 -87 q 58 -409 201 -239 q -162 -579 -86 -579 q -210 -531 -210 -579 q -77 -287 -210 -444 q 204 -74 56 -131 q 217 -13 217 -39 q 194 28 217 13 q 144 43 171 43 q 42 11 81 43 q 19 0 28 0 q 10 6 10 0 q 19 20 10 13 q 58 48 29 28 q 112 88 86 68 q 167 135 138 108 q 233 228 233 193 q 180 207 224 218 q 97 196 136 196 q 18 233 18 196 q 39 264 18 247 q 79 290 60 281 q 101 300 99 300 q 111 293 110 300 q 97 274 114 285 q 81 250 81 263 q 113 238 81 238 q 181 247 144 238 q 233 256 218 256 m 13 -229 q -30 -271 13 -229 q -117 -390 -72 -312 q -162 -503 -162 -468 q -140 -539 -162 -539 q 28 -391 -85 -539 q 192 -111 140 -243 q 13 -229 99 -146 m 221 368 q 389 444 376 444 q 401 438 401 444 q 308 376 401 432 q 204 321 215 321 q 170 379 193 321 q 142 450 147 438 q 153 458 146 458 q 207 392 167 458 l 221 368 z "},"":{"ha":544,"x_min":143,"x_max":403,"o":"m 324 401 q 156 325 168 325 q 143 331 143 325 q 236 393 143 338 q 340 449 329 449 q 374 390 351 449 q 403 319 397 332 q 392 311 399 311 q 338 378 378 311 l 324 401 z "},"":{"ha":544,"x_min":256,"x_max":515,"o":"m 335 360 q 503 436 490 436 q 515 430 515 436 q 422 368 515 424 q 318 313 329 313 q 284 371 307 313 q 256 442 261 429 q 267 450 260 450 q 321 383 281 450 l 335 360 z "},"":{"ha":421,"x_min":256,"x_max":485,"o":"m 478 439 l 485 432 q 410 365 460 400 q 321 331 360 331 q 256 436 256 331 l 256 442 q 267 450 260 450 q 346 369 286 369 q 478 439 408 369 z "},"":{"ha":421,"x_min":292,"x_max":367,"o":"m 350 342 q 342 335 350 342 q 321 328 333 328 q 301 335 308 328 q 292 358 293 342 q 307 386 292 375 q 335 397 322 397 q 357 389 347 397 q 367 368 367 381 q 350 342 367 356 z "},"":{"ha":694,"x_min":303,"x_max":424,"o":"m 349 347 q 338 347 349 347 q 315 360 326 347 q 303 392 303 372 q 324 442 303 413 q 372 471 344 471 q 424 424 424 471 q 398 372 424 397 q 349 347 372 347 m 374 444 q 342 428 354 444 q 329 400 329 413 q 336 380 329 388 q 357 372 343 372 q 384 387 371 372 q 397 418 397 401 q 374 444 397 444 z "},"":{"ha":317,"x_min":71,"x_max":219,"o":"m 217 -89 l 219 -100 q 147 -114 182 -114 q 91 -103 111 -114 q 71 -75 71 -93 q 139 0 71 -43 q 145 3 142 3 q 151 0 149 3 q 117 -64 117 -39 q 168 -96 117 -96 q 217 -89 189 -96 z "},"":{"ha":524,"x_min":179,"x_max":444,"o":"m 444 339 q 423 303 444 318 q 375 288 401 288 q 304 313 349 288 q 242 339 260 339 q 207 326 225 339 q 182 313 189 313 l 179 314 q 205 347 179 324 q 257 371 231 371 q 331 342 283 371 q 395 314 378 314 q 426 328 413 314 q 442 343 440 343 q 444 339 444 343 z "},"":{"ha":528,"x_min":222,"x_max":472,"o":"m 229 328 q 222 336 222 331 q 235 353 224 342 l 344 443 q 358 449 350 449 q 378 429 378 449 q 369 411 378 419 l 251 336 q 229 328 235 328 m 324 328 q 317 336 317 331 q 329 353 318 342 l 439 443 q 453 449 444 449 q 472 429 472 449 q 464 411 472 419 l 346 336 q 324 328 329 328 z "},"":{"ha":494,"x_min":106,"x_max":460,"o":"m 122 186 l 449 188 q 460 182 460 188 q 442 157 460 158 q 146 150 303 150 q 106 161 106 150 q 122 186 106 185 z "},"":{"ha":763,"x_min":36,"x_max":743,"o":"m 68 186 l 721 188 q 743 182 743 188 q 707 157 743 158 q 115 150 428 150 q 36 161 36 150 q 68 186 36 186 z "},"":{"ha":381,"x_min":299,"x_max":446,"o":"m 363 572 q 335 542 363 542 q 308 556 317 542 q 299 589 299 571 q 435 750 299 699 q 446 743 446 750 q 422 726 446 742 q 347 636 347 679 q 355 601 347 622 q 363 572 363 581 z "},"":{"ha":358,"x_min":179,"x_max":267,"o":"m 179 550 q 208 589 179 564 q 238 644 238 614 q 217 713 238 674 q 197 756 197 753 q 202 758 197 758 q 210 756 207 758 q 267 622 267 697 q 253 557 267 592 q 210 522 239 522 q 188 529 196 522 q 179 550 181 536 z "},"":{"ha":236,"x_min":46,"x_max":133,"o":"m 47 -95 q 46 -88 47 -95 q 75 -56 46 -81 q 104 -2 104 -32 q 84 67 104 28 q 64 110 64 107 q 69 113 64 113 q 76 110 74 113 q 133 -24 133 51 q 119 -89 133 -54 q 76 -124 106 -124 q 55 -117 63 -124 q 47 -95 47 -110 z "},"":{"ha":482,"x_min":299,"x_max":556,"o":"m 363 572 q 335 542 363 542 q 308 556 317 542 q 299 589 299 571 q 435 750 299 699 q 446 743 446 750 q 422 726 446 742 q 347 636 347 679 q 355 601 347 622 q 363 572 363 581 m 472 525 q 444 494 472 494 q 417 509 426 494 q 408 542 408 524 q 544 703 408 651 q 556 696 556 703 q 531 679 556 694 q 481 640 506 664 q 457 595 457 615 q 465 554 457 575 q 472 525 472 533 z "},"":{"ha":482,"x_min":179,"x_max":386,"o":"m 179 550 q 208 589 179 564 q 238 644 238 614 q 217 713 238 674 q 197 756 197 753 q 202 758 197 758 q 210 756 207 758 q 267 622 267 697 q 253 557 267 592 q 210 522 239 522 q 188 529 196 522 q 179 550 181 536 m 299 536 q 328 575 299 550 q 357 630 357 600 q 337 699 357 660 q 317 742 317 739 q 322 744 317 744 q 329 742 326 744 q 386 608 386 683 q 372 543 386 578 q 329 508 358 508 q 308 515 315 508 q 299 536 300 522 z "},"":{"ha":356,"x_min":46,"x_max":253,"o":"m 47 -95 q 46 -88 47 -95 q 75 -56 46 -81 q 104 -2 104 -32 q 84 67 104 28 q 64 110 64 107 q 69 113 64 113 q 76 110 74 113 q 133 -24 133 51 q 119 -89 133 -54 q 76 -124 106 -124 q 55 -117 63 -124 q 47 -95 47 -110 m 166 -109 q 166 -102 166 -109 q 194 -71 165 -94 q 224 -17 224 -47 q 203 53 224 14 q 183 96 183 93 q 188 99 183 99 q 196 96 193 99 q 253 -37 253 38 q 239 -103 253 -68 q 196 -137 225 -137 q 174 -131 182 -137 q 166 -109 167 -124 z "},"":{"ha":694,"x_min":53,"x_max":693,"o":"m 569 822 q 601 850 585 850 q 617 844 617 850 l 617 843 q 504 626 617 831 q 601 601 574 601 q 648 609 629 601 q 677 624 667 617 q 690 631 688 631 q 693 626 693 631 q 656 590 693 606 q 575 575 618 575 q 483 589 532 575 q 101 -94 365 375 q 84 -117 96 -106 q 65 -129 72 -129 q 53 -115 53 -129 q 58 -96 53 -107 l 447 601 q 347 626 379 626 q 281 613 314 626 q 239 600 247 600 l 235 601 q 253 620 235 607 q 305 646 271 633 q 376 658 339 658 q 468 639 413 658 l 569 822 z "},"":{"ha":403,"x_min":131,"x_max":281,"o":"m 281 192 q 281 179 281 192 q 247 138 281 167 q 188 110 214 110 q 148 124 163 110 q 132 151 133 138 l 131 165 q 161 226 131 204 q 217 249 192 249 q 262 233 243 249 q 281 192 281 217 z "},"":{"ha":742,"x_min":81,"x_max":544,"o":"m 156 22 q 142 -7 156 7 q 113 -21 129 -21 q 90 -14 97 -21 q 81 10 82 -7 q 96 38 81 26 q 125 49 111 49 q 156 22 156 49 m 350 21 q 337 -8 350 6 q 308 -22 324 -22 q 284 -15 292 -22 q 276 8 276 -8 q 290 36 275 25 q 319 47 306 47 q 350 21 350 47 m 544 21 q 531 -8 544 6 q 502 -22 518 -22 q 478 -15 486 -22 q 470 8 471 -8 q 485 36 469 25 q 514 47 500 47 q 544 21 544 47 z "},"":{"ha":1429,"x_min":67,"x_max":1376,"o":"m 185 -77 q 190 -69 185 -77 q 476 434 194 -61 q 769 951 757 929 q 797 974 782 974 q 811 967 811 974 q 225 -81 811 961 q 208 -103 219 -92 q 189 -115 196 -115 q 176 -101 176 -115 q 185 -77 176 -93 m 172 378 q 92 409 117 378 q 67 497 67 440 q 106 640 67 553 q 226 801 144 728 q 403 874 307 874 q 506 751 506 874 q 394 503 506 629 q 172 378 283 378 m 397 857 q 265 790 333 857 q 153 633 196 722 q 111 478 111 544 q 181 396 111 396 q 369 534 272 396 q 465 778 465 672 q 397 857 465 857 m 603 -25 q 522 6 547 -25 q 497 94 497 38 q 536 238 497 150 q 656 398 575 325 q 833 471 738 471 q 936 349 936 471 q 825 101 936 226 q 603 -25 714 -25 m 828 454 q 695 387 764 454 q 584 231 626 319 q 542 75 542 142 q 611 -7 542 -7 q 799 131 703 -7 q 896 375 896 269 q 828 454 896 454 m 1043 -25 q 963 6 988 -25 q 938 94 938 38 q 976 238 938 150 q 1097 398 1015 325 q 1274 471 1178 471 q 1376 349 1376 471 q 1265 101 1376 226 q 1043 -25 1154 -25 m 1268 454 q 1135 387 1204 454 q 1024 231 1067 319 q 982 75 982 142 q 1051 -7 982 -7 q 1240 131 1143 -7 q 1336 375 1336 269 q 1268 454 1336 454 z "},"":{"ha":396,"x_min":89,"x_max":332,"o":"m 99 167 l 329 278 q 332 258 332 267 q 318 243 332 250 l 154 147 l 246 50 q 257 33 257 39 q 236 18 257 24 l 93 143 q 89 154 89 147 q 99 167 89 161 z "},"":{"ha":433,"x_min":90,"x_max":333,"o":"m 324 117 l 93 6 q 90 25 90 17 q 104 40 90 33 l 268 136 l 176 233 q 165 250 165 244 q 186 265 165 260 l 329 140 q 333 129 333 136 q 324 117 333 122 z "},"":{"ha":313,"x_min":-193,"x_max":442,"o":"m -184 -77 q -180 -69 -184 -77 q 106 434 -175 -61 q 400 951 388 929 q 427 974 413 974 q 442 967 442 974 q -144 -81 442 961 q -162 -103 -150 -92 q -181 -115 -174 -115 q -193 -101 -193 -115 q -184 -77 -193 -93 z "},"":{"ha":567,"x_min":-4,"x_max":601,"o":"m 222 296 q 190 282 217 282 q 164 293 164 282 l 169 308 q 268 467 190 350 l 258 467 l 19 458 q -4 474 -4 458 l 0 490 q 322 756 121 621 q 572 892 522 892 q 601 882 600 892 l 601 881 q 571 825 601 864 q 339 494 449 664 q 485 507 406 496 l 489 507 q 500 496 500 507 q 322 467 500 475 q 222 296 264 378 m 110 489 q 286 492 206 489 l 531 847 q 535 855 535 853 q 531 857 535 857 l 521 854 q 442 808 490 838 q 275 688 393 778 q 79 510 157 597 q 74 495 74 501 q 83 489 74 489 l 110 489 z "},"":{"ha":779,"x_min":-171,"x_max":867,"o":"m -111 429 q -14 440 -101 433 q 185 720 53 590 q 454 920 317 850 q 696 990 592 990 q 867 850 867 990 q 794 634 867 756 q 610 425 721 513 q 407 338 500 338 q 332 408 332 338 q 449 631 332 499 q 650 764 567 764 q 661 756 661 764 l 654 738 q 536 681 604 738 q 421 549 468 624 q 374 424 374 474 q 436 368 374 368 q 589 449 499 368 q 743 642 679 529 q 807 838 807 754 q 665 957 807 957 q 324 804 524 957 q 33 443 124 651 q 165 447 89 447 l 204 447 q 271 440 271 446 q 256 422 271 433 q 222 413 242 411 q 122 414 203 414 q 21 413 42 414 l 4 363 q 125 365 74 365 l 164 365 q 231 358 231 364 q 216 340 231 351 q 182 331 201 329 q 53 332 163 332 l -3 332 q -18 208 -18 268 q 176 -11 -18 -11 q 396 44 278 -11 q 554 150 514 99 q 565 133 565 150 q 501 69 565 113 q 334 -10 436 26 q 147 -47 232 -47 q -69 193 -69 -47 q -51 331 -69 256 q -164 319 -79 329 q -171 324 -171 319 l -151 347 q -43 360 -137 353 q -25 411 -29 400 q -124 401 -33 411 q -131 406 -131 401 l -111 429 z "},"":{"ha":458,"x_min":-19,"x_max":426,"o":"m 333 211 q 342 207 333 207 q 389 231 350 207 l 389 229 q 386 224 389 225 q 325 192 339 192 q 311 201 311 192 q 401 372 311 210 q 260 208 346 319 q 244 193 247 193 q 237 197 240 193 q 233 206 233 200 q 280 282 233 211 q 326 360 326 353 q 294 328 326 364 q 176 197 196 217 q 167 196 174 196 q 161 199 161 196 l 164 206 q 235 351 235 290 q 210 381 235 381 q 235 390 224 390 q 253 364 253 390 q 238 304 253 338 q 206 251 222 271 l 190 232 q 256 302 192 232 q 328 381 319 372 q 342 385 336 385 q 347 379 347 385 q 326 339 347 374 q 280 263 306 304 q 250 214 254 222 q 281 247 253 214 q 386 379 371 363 q 409 386 397 386 q 421 381 421 386 l 343 235 q 333 211 333 219 m 228 428 l 340 425 q 409 428 392 425 q 426 431 426 432 q 340 413 426 413 l 239 414 q 40 371 107 414 q -6 315 -6 340 q 16 300 -6 300 q 71 319 38 300 q 118 352 104 338 q 133 367 132 367 l 135 365 l 135 364 q 87 314 124 340 q 15 288 50 288 q -19 307 -19 288 q 32 379 -19 343 q 228 428 104 428 m 200 394 l 199 393 l 85 178 q 69 169 79 169 q 58 171 58 169 q 146 333 58 174 l 175 388 q 182 393 178 392 l 197 396 l 200 394 z "},"":{"ha":494,"x_min":-32,"x_max":393,"o":"m -11 442 l 381 444 q 393 438 393 444 q 372 407 393 408 q 95 399 206 399 q -24 401 -15 399 q -32 413 -32 404 q -11 442 -32 440 z "},"":{"ha":494,"x_min":-86,"x_max":432,"o":"m 326 263 l -65 260 q -86 231 -86 258 q -78 219 -86 222 q 41 217 -69 217 q 318 225 151 217 q 339 256 339 226 q 326 263 339 263 m 14 497 l 432 660 l 432 640 q 408 607 432 618 l 49 471 l 324 338 q 335 321 335 333 q 307 294 335 303 l 4 456 q -4 474 -4 464 q 14 497 -4 483 z "},"":{"ha":494,"x_min":-86,"x_max":404,"o":"m 326 263 l -65 260 q -86 231 -86 258 q -78 219 -86 222 q 41 217 -69 217 q 318 225 151 217 q 339 256 339 226 q 326 263 339 263 m 386 449 l -26 297 l -26 317 q -3 350 -26 339 l 351 475 l 122 619 q 101 647 101 640 q 119 669 101 664 l 396 490 q 404 472 404 482 q 386 449 404 463 z "},"":{"ha":878,"x_min":0,"x_max":878,"o":"m 603 1025 l 478 907 q 439 908 465 908 q 400 907 413 908 l 275 1025 l 357 1025 l 438 940 l 519 1025 l 603 1025 m 749 732 q 813 667 749 732 q 878 422 878 603 q 749 113 878 242 q 438 -17 619 -17 q 128 112 257 -17 q 0 422 0 240 q 128 733 0 604 q 438 861 257 861 q 749 732 619 861 m 704 156 q 759 211 704 156 q 814 422 814 267 q 704 688 814 578 q 439 799 594 799 q 173 688 283 799 q 63 422 63 578 q 173 156 63 267 q 439 46 283 46 q 704 156 594 46 m 636 283 q 574 172 636 210 q 433 133 513 133 q 242 188 353 133 l 254 253 q 432 196 346 196 q 522 219 488 196 q 557 276 557 242 q 526 337 557 310 q 450 385 494 364 q 361 431 406 407 q 285 490 317 454 q 254 568 254 525 q 309 677 254 643 q 436 711 364 711 q 519 696 488 711 q 604 651 583 665 l 589 592 q 440 650 522 650 q 360 628 390 650 q 329 574 329 607 q 361 517 329 542 q 438 473 393 492 q 528 433 483 454 q 604 373 572 411 q 636 283 636 335 z "},"":{"ha":526,"x_min":-289,"x_max":568,"o":"m 390 240 q 410 251 397 251 q 435 239 422 251 q 417 214 435 233 q 356 127 399 194 q 313 38 313 60 q 333 21 313 24 q 419 48 361 21 q 522 103 478 75 l 567 131 q 568 119 568 128 q 556 106 568 111 q 294 -22 368 -22 q 258 14 258 -22 q 285 92 258 43 q 211 47 261 78 q 94 -22 161 15 q 99 -56 99 -36 q 34 -238 99 -129 q -117 -427 -31 -347 q -262 -507 -204 -507 q -289 -465 -289 -507 q -143 -142 -289 -424 q -192 -153 -174 -153 q -242 -124 -242 -153 q -181 -39 -242 -89 q -53 29 -121 11 q 249 513 103 311 q 471 715 394 715 q 501 685 501 715 q 442 528 501 621 q 283 335 382 435 q 36 97 160 208 q -3 36 32 93 q 85 -1 60 35 q 303 122 215 67 q 390 240 338 178 m -231 -440 q -221 -456 -231 -456 q -115 -384 -182 -456 q 6 -216 -47 -312 q 58 -58 58 -119 q 57 -43 58 -49 q -90 -119 -50 -101 q -231 -440 -231 -376 m 451 650 q 436 667 451 667 q 301 512 410 665 q 64 147 193 358 q 251 335 150 224 q 451 650 451 551 m -149 -37 q -167 -50 -149 -37 q -185 -83 -185 -64 q -149 -103 -185 -103 q -121 -97 -143 -103 l -67 3 q -149 -37 -112 -10 m 521 424 q 542 403 542 424 q 522 360 542 382 q 479 339 503 339 q 460 366 460 339 q 482 408 460 393 q 521 424 504 424 m -67 -75 q 50 -19 -56 -71 q -14 11 32 11 l -17 11 q -43 -35 -26 -6 q -67 -75 -60 -64 z "},"":{"ha":540,"x_min":-289,"x_max":793,"o":"m 249 68 q 94 -22 147 7 q 99 -56 99 -36 q 34 -238 99 -129 q -117 -427 -31 -347 q -262 -507 -204 -507 q -289 -465 -289 -507 q -143 -142 -289 -424 q -192 -153 -174 -153 q -242 -124 -242 -153 q -181 -39 -242 -89 q -53 29 -121 11 q 249 513 103 311 q 471 715 394 715 q 501 685 501 715 q 442 528 501 621 q 283 335 382 435 q 36 97 160 208 q -3 36 32 93 q 85 -1 60 35 q 253 93 168 43 q 374 353 276 197 q 585 625 471 508 q 767 742 700 742 q 793 704 793 742 q 695 514 793 646 q 485 267 597 382 q 311 108 372 151 q 308 78 308 86 q 310 61 308 71 q 321 36 311 51 q 353 21 331 21 q 435 48 376 21 q 538 103 493 75 l 582 131 q 583 119 583 128 q 571 106 583 111 q 310 -22 383 -22 q 247 46 247 -22 l 249 68 m 743 671 q 725 701 742 701 q 594 604 682 701 q 425 372 507 507 q 318 139 343 236 q 468 278 376 186 q 649 488 560 369 q 743 671 738 606 m -231 -440 q -221 -456 -231 -456 q -115 -384 -182 -456 q 6 -216 -47 -312 q 58 -58 58 -119 q 57 -43 58 -49 q -90 -119 -50 -101 q -231 -440 -231 -376 m 451 650 q 436 667 451 667 q 301 512 410 665 q 64 147 193 358 q 251 335 150 224 q 451 650 451 551 m -149 -37 q -167 -50 -149 -37 q -185 -83 -185 -64 q -149 -103 -185 -103 q -121 -97 -143 -103 l -67 3 q -149 -37 -112 -10 m -67 -75 q 50 -19 -56 -71 q -17 11 32 11 q -43 -35 -26 -6 q -67 -75 -60 -64 z "}}}
